<svg width="556" height="105" viewBox="0 0 556 105" fill="none" xmlns="http://www.w3.org/2000/svg">
<path d="M135.292 41.5519H124.052L122.384 46H113.885L125.76 18.1597H134.259L145.737 46H136.92L135.292 41.5519ZM133.107 35.5152L129.771 26.4205L126.356 35.5152H133.107ZM174.814 46L171.12 38.4939H166.751V46H158.491V18.1597H171.478C178.944 18.1597 183.233 21.7341 183.233 28.0488C183.233 32.1792 181.565 35.1975 178.547 36.9053L184.186 46H174.814ZM166.751 32.1394H171.478C173.94 32.1394 175.37 30.7891 175.37 28.2871C175.37 25.8645 173.94 24.5142 171.478 24.5142H166.751V32.1394ZM214.315 46L210.621 38.4939H206.252V46H197.992V18.1597H210.978C218.445 18.1597 222.734 21.7341 222.734 28.0488C222.734 32.1792 221.066 35.1975 218.048 36.9053L223.687 46H214.315ZM206.252 32.1394H210.978C213.441 32.1394 214.871 30.7891 214.871 28.2871C214.871 25.8645 213.441 24.5142 210.978 24.5142H206.252V32.1394ZM256.238 41.5519H244.999L243.331 46H234.832L246.707 18.1597H255.206L266.683 46H257.866L256.238 41.5519ZM254.054 35.5152L250.718 26.4205L247.302 35.5152H254.054ZM290.836 17.8023C295.086 17.8023 299.454 19.0732 302.473 21.0192L299.415 27.3736C296.555 25.7453 292.504 24.2759 290.161 24.2759C288.771 24.2759 287.858 24.7524 287.858 25.785C287.858 29.8757 302.393 27.4531 302.393 37.501C302.393 43.4185 297.151 46.2383 290.916 46.2383C286.19 46.2383 281.027 44.5703 277.532 41.8299L280.629 35.5549C283.489 37.9776 288.136 39.8045 290.995 39.8045C292.743 39.8045 293.855 39.2087 293.855 37.9378C293.855 33.728 279.319 36.389 279.319 26.5793C279.319 21.2178 283.886 17.8023 290.836 17.8023ZM338.505 24.7524H330.403V46H322.103V24.7524H314.041V18.1597H338.505V24.7524ZM374.564 24.5142H360.068V28.8828H373.213V35.2372H360.068V39.6456H374.961V46H351.807V18.1597H374.564V24.5142ZM409.051 18.1597H421.68C428.869 18.1597 432.999 21.7341 432.999 28.0488C432.999 34.6812 428.869 38.4939 421.68 38.4939H417.312V46H409.051V18.1597ZM417.312 24.5142V32.1394H421.283C423.745 32.1394 425.175 30.7891 425.175 28.2871C425.175 25.8645 423.745 24.5142 421.283 24.5142H417.312ZM463.419 41.5519H452.18L450.512 46H442.012L453.887 18.1597H462.386L473.864 46H465.047L463.419 41.5519ZM461.235 35.5152L457.899 26.4205L454.483 35.5152H461.235ZM502.941 46L499.247 38.4939H494.879V46H486.618V18.1597H499.605C507.071 18.1597 511.36 21.7341 511.36 28.0488C511.36 32.1792 509.692 35.1975 506.674 36.9053L512.313 46H502.941ZM494.879 32.1394H499.605C502.067 32.1394 503.497 30.7891 503.497 28.2871C503.497 25.8645 502.067 24.5142 499.605 24.5142H494.879V32.1394ZM544.864 41.5519H533.625L531.957 46H523.458L535.333 18.1597H543.832L555.309 46H546.493L544.864 41.5519ZM542.68 35.5152L539.344 26.4205L535.928 35.5152H542.68ZM126.634 94L114.322 66.1995H117.499L129.017 92.3717H127.269L138.866 66.1995H141.845L129.533 94H126.634ZM159.224 78.6303H173.918V81.1323H159.224V78.6303ZM159.542 91.4582H176.262V94H156.603V66.1995H175.666V68.7412H159.542V91.4582ZM193.893 94V66.1995H204.298C206.655 66.1995 208.68 66.5834 210.375 67.3512C212.069 68.0925 213.367 69.1781 214.267 70.6078C215.193 72.0111 215.657 73.7188 215.657 75.7311C215.657 77.6903 215.193 79.3849 214.267 80.8146C213.367 82.2179 212.069 83.3034 210.375 84.0712C208.68 84.8126 206.655 85.1833 204.298 85.1833H195.521L196.832 83.8329V94H193.893ZM212.877 94L205.728 83.9124H208.905L216.094 94H212.877ZM196.832 84.0712L195.521 82.6812H204.219C206.999 82.6812 209.104 82.0722 210.534 80.8543C211.99 79.6364 212.718 77.9286 212.718 75.7311C212.718 73.507 211.99 71.786 210.534 70.5681C209.104 69.3502 206.999 68.7412 204.219 68.7412H195.521L196.832 67.3512V84.0712ZM259.835 94V68.7412H250.065V66.1995H272.544V68.7412H262.774V94H259.835ZM298.618 94.2383C295.071 94.2383 292.277 93.2189 290.239 91.1802C288.2 89.1415 287.181 86.1232 287.181 82.1252V66.1995H290.119V82.0061C290.119 85.2892 290.861 87.7118 292.343 89.2739C293.826 90.836 295.918 91.6171 298.618 91.6171C301.346 91.6171 303.45 90.836 304.933 89.2739C306.416 87.7118 307.157 85.2892 307.157 82.0061V66.1995H310.017V82.1252C310.017 86.1232 308.997 89.1415 306.959 91.1802C304.946 93.2189 302.166 94.2383 298.618 94.2383ZM329.596 94V66.1995H340.915C343.88 66.1995 346.475 66.7952 348.699 67.9866C350.949 69.1516 352.697 70.7799 353.941 72.8716C355.186 74.9632 355.808 77.3726 355.808 80.0997C355.808 82.8268 355.186 85.2362 353.941 87.3279C352.697 89.4195 350.949 91.0611 348.699 92.2525C346.475 93.4175 343.88 94 340.915 94H329.596ZM332.535 91.4582H340.756C343.218 91.4582 345.35 90.9817 347.15 90.0285C348.977 89.0489 350.393 87.7118 351.399 86.0173C352.406 84.2963 352.909 82.3238 352.909 80.0997C352.909 77.8492 352.406 75.8767 351.399 74.1822C350.393 72.4877 348.977 71.1638 347.15 70.2107C345.35 69.231 343.218 68.7412 340.756 68.7412H332.535V91.4582ZM385.283 94.2383C383.192 94.2383 381.246 93.8941 379.445 93.2057C377.671 92.4908 376.122 91.498 374.798 90.2271C373.501 88.9297 372.482 87.4338 371.74 85.7393C371.026 84.0183 370.668 82.1384 370.668 80.0997C370.668 78.061 371.026 76.1944 371.74 74.4999C372.482 72.7789 373.501 71.283 374.798 70.0121C376.122 68.7147 377.671 67.7219 379.445 67.0335C381.219 66.3186 383.165 65.9612 385.283 65.9612C387.375 65.9612 389.308 66.3186 391.082 67.0335C392.856 67.7219 394.391 68.7015 395.689 69.9724C397.012 71.2433 398.032 72.7392 398.747 74.4602C399.488 76.1812 399.859 78.061 399.859 80.0997C399.859 82.1384 399.488 84.0183 398.747 85.7393C398.032 87.4603 397.012 88.9562 395.689 90.2271C394.391 91.498 392.856 92.4908 391.082 93.2057C389.308 93.8941 387.375 94.2383 385.283 94.2383ZM385.283 91.6171C386.951 91.6171 388.487 91.3391 389.89 90.7831C391.32 90.2006 392.551 89.3931 393.584 88.3605C394.643 87.3014 395.464 86.0835 396.046 84.7067C396.629 83.3034 396.92 81.7678 396.92 80.0997C396.92 78.4317 396.629 76.9093 396.046 75.5325C395.464 74.1292 394.643 72.9113 393.584 71.8787C392.551 70.8196 391.32 70.0121 389.89 69.4561C388.487 68.8736 386.951 68.5824 385.283 68.5824C383.615 68.5824 382.066 68.8736 380.637 69.4561C379.207 70.0121 377.962 70.8196 376.903 71.8787C375.871 72.9113 375.05 74.1292 374.441 75.5325C373.859 76.9093 373.567 78.4317 373.567 80.0997C373.567 81.7413 373.859 83.2637 374.441 84.667C375.05 86.0702 375.871 87.3014 376.903 88.3605C377.962 89.3931 379.207 90.2006 380.637 90.7831C382.066 91.3391 383.615 91.6171 385.283 91.6171ZM416.693 85.6598L416.137 66.1995H419.473L418.877 85.6598H416.693ZM417.805 94.1986C417.222 94.1986 416.719 94 416.295 93.6028C415.898 93.1792 415.7 92.6894 415.7 92.1334C415.7 91.5509 415.898 91.0743 416.295 90.7036C416.719 90.3065 417.222 90.1079 417.805 90.1079C418.414 90.1079 418.903 90.3065 419.274 90.7036C419.671 91.0743 419.87 91.5509 419.87 92.1334C419.87 92.6894 419.671 93.1792 419.274 93.6028C418.903 94 418.414 94.1986 417.805 94.1986Z" fill="#234C43"/>
<path d="M37.3854 104.176C35.8028 103.81 34.1726 103.589 32.6448 103.053C22.8067 99.5908 16.9642 92.4566 15.3198 81.6424C14.9985 79.5278 15.0651 77.3429 15.0437 75.188C15.0057 71.0891 15.1437 66.9852 15.0057 62.8939C14.8176 57.2924 19.3559 55.2404 23.1898 56.4194C24.256 56.748 25.2555 57.3124 26.4216 57.8292C26.4216 57.5156 26.4216 57.1669 26.4216 56.8183C26.4002 50.7477 26.3526 44.6771 26.3788 38.609C26.3859 37.0236 26.4954 35.4082 26.7976 33.8579C27.4306 30.6019 30.4149 28.2263 33.8347 28.0633C37.1117 27.9077 40.2292 30.1554 41.2621 33.4942C41.5048 34.2818 41.6286 35.1423 41.6405 35.9726C41.6857 38.9727 41.6571 41.9754 41.6571 45.0534C46.619 42.9287 50.3244 44.3359 52.7827 49.3028C57.8827 46.2549 63.5656 49.3379 64.5485 55.125C67.4019 53.7027 70.1839 53.7453 72.7803 55.7396C74.7959 57.2874 75.8478 59.4321 75.855 62.0811C75.8692 67.5572 75.874 73.0332 75.855 78.5068C75.8169 90.9314 66.9616 101.826 55.3101 103.813C54.7342 103.91 54.1654 104.056 53.5919 104.176H37.3806H37.3854ZM30.2578 57.0164C30.2578 60.0216 30.2578 63.0243 30.2578 66.0295C30.2578 70.003 30.2626 73.979 30.2555 77.9524C30.2555 79.2443 29.513 80.1072 28.4206 80.1373C27.2974 80.1674 26.5358 79.3823 26.4478 78.0829C26.424 77.7392 26.443 77.3955 26.4382 77.0494C26.4073 73.4196 26.4168 69.7897 26.3359 66.1624C26.2598 62.8236 24.3107 60.5033 21.424 60.1696C19.6891 59.9689 18.8609 60.7466 18.8609 62.6029C18.8562 67.7353 18.7729 72.8702 18.9014 77.9976C18.9561 80.1599 19.2417 82.3774 19.7962 84.457C22.1379 93.2568 29.9056 99.7237 38.5753 100.052C43.1707 100.225 47.7756 100.115 52.3758 100.07C54.8341 100.045 57.2068 99.4328 59.4224 98.3365C67.1568 94.5161 71.5166 88.1219 71.9473 79.0988C72.2162 73.4472 72.0282 67.7729 72.0401 62.1087C72.0401 61.8905 72.0068 61.6722 71.9759 61.4565C71.7189 59.5826 70.2243 58.1904 68.43 58.1478C66.4833 58.1026 64.846 59.3744 64.6318 61.316C64.4533 62.924 64.5176 64.5595 64.4581 66.1825C64.4176 67.2687 63.6537 68.0789 62.6589 68.1216C61.6261 68.1642 60.8408 67.4819 60.6932 66.3807C60.6432 66.0119 60.6409 65.6332 60.6409 65.2569C60.6361 62.3144 60.629 59.3744 60.6409 56.4319C60.648 54.7237 60.0507 53.3741 58.5847 52.5689C56.0478 51.1741 53.1135 53.1032 53.0731 56.2187C53.0326 59.5049 53.0731 62.791 53.0588 66.0772C53.054 67.2386 52.2972 68.0739 51.2715 68.1216C50.2078 68.1718 49.4177 67.4593 49.2796 66.3004C49.2392 65.9593 49.2392 65.6131 49.2392 65.2694C49.2368 61.1379 49.2392 57.0089 49.2344 52.8774C49.2344 52.4083 49.2202 51.9367 49.1654 51.4726C48.9703 49.802 47.6471 48.4123 46.074 48.194C43.5943 47.8504 41.6785 49.6239 41.6666 52.3305C41.6476 56.8985 41.6666 61.469 41.6571 66.037C41.6547 67.2085 40.9194 68.0539 39.9056 68.1191C38.8109 68.1893 37.997 67.4518 37.8708 66.2452C37.8328 65.874 37.8375 65.4952 37.8375 65.1214C37.8375 55.8274 37.8375 46.5334 37.8328 37.2394C37.8328 36.6775 37.8375 36.1055 37.7495 35.5562C37.4948 33.9758 36.6 32.9047 35.1983 32.3352C33.8133 31.7758 32.5639 32.1546 31.4953 33.1656C30.5767 34.0335 30.2578 35.1824 30.2602 36.4592C30.265 43.3125 30.2626 50.1657 30.2626 57.0189L30.2578 57.0164Z" fill="#234C43"/>
<path d="M0.93934 10.9393C0.353553 11.5251 0.353553 12.4749 0.93934 13.0607L10.4853 22.6066C11.0711 23.1924 12.0208 23.1924 12.6066 22.6066C13.1924 22.0208 13.1924 21.0711 12.6066 20.4853L4.12132 12L12.6066 3.51472C13.1924 2.92893 13.1924 1.97919 12.6066 1.3934C12.0208 0.807612 11.0711 0.807612 10.4853 1.3934L0.93934 10.9393ZM60.0607 13.0607C60.6464 12.4749 60.6464 11.5251 60.0607 10.9393L50.5147 1.3934C49.9289 0.807616 48.9792 0.807616 48.3934 1.3934C47.8076 1.97919 47.8076 2.92894 48.3934 3.51472L56.8787 12L48.3934 20.4853C47.8076 21.0711 47.8076 22.0208 48.3934 22.6066C48.9792 23.1924 49.9289 23.1924 50.5147 22.6066L60.0607 13.0607ZM2 13.5L59 13.5L59 10.5L2 10.5L2 13.5Z" fill="#234C43"/>
</svg>
