<svg width="369" height="63" viewBox="0 0 369 63" fill="none" xmlns="http://www.w3.org/2000/svg">
<path fill-rule="evenodd" clip-rule="evenodd" d="M27.7081 28.1696C26.0452 29.8222 26.0452 32.5016 27.7081 34.1542L54.8061 61.0848C56.4689 62.7374 59.165 62.7374 60.8278 61.0848C62.4907 59.4322 62.4907 56.7528 60.8278 55.1002L36.7408 31.1619L60.8279 7.22365C62.4907 5.57106 62.4907 2.89167 60.8279 1.23908C59.165 -0.413518 56.4689 -0.413518 54.8061 1.23908L27.7081 28.1696Z" fill="#E2B34A"/>
<path fill-rule="evenodd" clip-rule="evenodd" d="M0.908534 29.0008C-0.292425 30.1943 -0.292426 32.1294 0.908534 33.323L20.4793 52.7728C21.6803 53.9664 23.6274 53.9664 24.8284 52.7728C26.0293 51.5793 26.0293 49.6442 24.8284 48.4506L7.43212 31.1619L24.8284 13.8731C26.0293 12.6796 26.0293 10.7445 24.8284 9.55092C23.6274 8.35738 21.6803 8.35738 20.4793 9.55092L0.908534 29.0008Z" fill="#E2B34A" fill-opacity="0.7"/>
<path d="M89.2615 46.5635V45.9909C91.0231 45.9909 92.3443 45.1542 92.3443 42.1154V20.1831C92.3443 17.1442 91.0231 16.3075 89.2615 16.3075V15.7349H102.958C110.313 15.7349 112.779 20.3592 112.779 24.3229C112.779 28.3306 110.093 32.8228 102.65 32.8228L101.725 32.9549C104.279 32.9549 107.274 33.2632 109.08 36.5662L112.515 42.5117C114.056 45.1542 115.422 45.9909 117.404 45.9909V46.5635H109.256L103.399 36.3901C102.298 34.4963 100.756 33.2191 98.51 33.087H97.3209V42.1154C97.3209 45.1542 98.6422 45.9909 100.404 45.9909V46.5635H89.2615ZM97.3209 32.3823L101.461 32.3383C105.997 32.2502 107.759 28.3306 107.715 24.3669C107.671 20.4473 105.997 16.4836 101.241 16.4836H97.3209V32.3823ZM121.482 46.5635V45.9909C123.243 45.9909 124.565 45.1542 124.565 42.1154V20.1831C124.565 17.1442 123.243 16.3075 121.482 16.3075V15.7349H143.15L144.427 24.8514L143.854 24.9835C142.886 19.3022 140.155 16.4836 135.663 16.4836H129.585V30.6207H134.474C137.336 30.6207 138.658 29.3435 138.658 25.512H139.274V36.5662H138.658C138.658 32.7347 137.336 31.3694 134.43 31.3694H129.585V43.4366C129.585 45.0661 130.026 45.8148 131.919 45.8148H136.368C141.52 45.8148 144.031 42.6438 145.484 37.6672L145.968 37.7994L144.251 46.5635H121.482ZM157.742 46.5635V45.9909C159.548 45.9909 160.825 45.1542 160.825 42.1154V16.4836H158.447C154.307 16.4836 151.444 20.2711 150.696 24.9835L150.079 24.8954L151.488 15.7349H175.182L176.459 24.8954L175.887 24.9835C175.094 20.2711 172.364 16.4836 168.224 16.4836H165.846V42.1154C165.846 45.1542 167.123 45.9909 168.928 45.9909V46.5635H157.742ZM196.408 47.0479C188.173 47.092 180.598 40.0014 180.906 30.7528C181.17 21.5924 188.129 15.3826 195.792 15.2505C204.424 15.0303 211.734 22.297 211.514 31.5015C211.338 40.618 204.38 47.0039 196.408 47.0479ZM186.323 32.2062C187.292 40.0454 192.004 46.7396 198.082 46.079C203.631 45.4184 207.154 38.8123 206.097 30.0041C205.084 21.6804 200.504 15.2064 194.03 16.2194C188.745 17.1002 185.266 23.8384 186.323 32.2062ZM216.293 46.5635V45.9909C218.055 45.9909 219.376 45.1542 219.376 42.1154V20.1831C219.376 17.1442 218.055 16.3075 216.293 16.3075V15.7349H229.99C237.345 15.7349 239.811 20.3592 239.811 24.3229C239.811 28.3306 237.125 32.8228 229.682 32.8228L228.757 32.9549C231.311 32.9549 234.306 33.2632 236.112 36.5662L239.547 42.5117C241.088 45.1542 242.454 45.9909 244.435 45.9909V46.5635H236.288L230.43 36.3901C229.329 34.4963 227.788 33.2191 225.542 33.087H224.353V42.1154C224.353 45.1542 225.674 45.9909 227.436 45.9909V46.5635H216.293ZM224.353 32.3823L228.493 32.3383C233.029 32.2502 234.79 28.3306 234.746 24.3669C234.702 20.4473 233.029 16.4836 228.272 16.4836H224.353V32.3823ZM246.895 46.5635V45.9909C249.406 45.9909 251.432 44.2734 251.432 39.7812L251.476 22.5172C251.476 18.0251 249.45 16.3075 246.94 16.3075V15.7349H253.59L273.012 38.9444V22.5172C273.012 18.0251 270.898 16.3075 268.255 16.3075V15.7349H278.561V16.3075C276.006 16.3075 274.025 18.0251 274.025 22.5172V46.5635H273.188L252.445 22.1208L252.401 39.7812C252.401 44.2734 254.867 45.9909 257.862 45.9909V46.5635H246.895ZM279.24 46.5635V45.9909C281.53 45.9909 283.776 44.3614 285.317 40.1335L291.131 24.1027C292.892 19.2582 291.571 17.6287 288.752 17.6287V17.0121C290.91 17.0121 293.377 16.2634 295.315 14.9422L295.887 15.1624L305.796 42.2915C306.853 45.1542 308.174 45.9909 310.024 45.9909V46.5635H298.221V45.9909C300.115 45.9909 301.524 45.1542 300.467 42.2915L298.618 37.0507H287.519L286.418 40.1335C284.921 44.3614 286.771 45.9909 289.677 45.9909V46.5635H279.24ZM287.784 36.302H298.353L293.112 21.5043L287.784 36.302ZM313.9 46.5635V45.9909C315.662 45.9909 316.983 45.1542 316.983 42.1154V20.1831C316.983 17.1442 315.662 16.3075 313.9 16.3075V15.7349H327.597C334.952 15.7349 337.418 20.3592 337.418 24.3229C337.418 28.3306 334.732 32.8228 327.289 32.8228L326.364 32.9549C328.918 32.9549 331.913 33.2632 333.719 36.5662L337.154 42.5117C338.695 45.1542 340.061 45.9909 342.042 45.9909V46.5635H333.895L328.037 36.3901C326.936 34.4963 325.395 33.2191 323.149 33.087H321.96V42.1154C321.96 45.1542 323.281 45.9909 325.043 45.9909V46.5635H313.9ZM321.96 32.3823L326.1 32.3383C330.636 32.2502 332.398 28.3306 332.353 24.3669C332.309 20.4473 330.636 16.4836 325.879 16.4836H321.96V32.3823ZM350.996 38.2398C350.996 29.872 348.618 24.499 348.618 18.5095C348.618 16.1313 349.851 15.2505 351.304 15.2505C352.801 15.2505 353.991 16.1313 353.991 18.5095C353.991 24.499 351.568 29.828 351.568 38.2398H350.996ZM348.265 43.7008C348.265 41.9392 349.498 40.618 351.348 40.618C353.198 40.618 354.431 41.9392 354.431 43.7008C354.431 45.5505 353.198 46.9158 351.348 46.9158C349.498 46.9158 348.265 45.5505 348.265 43.7008Z" fill="#ECE2CD"/>
</svg>
