<svg width="555" height="97" viewBox="0 0 555 97" fill="none" xmlns="http://www.w3.org/2000/svg">
<path d="M118.828 9.80231C123.078 9.80231 127.446 11.0732 130.465 13.0192L127.406 19.3736C124.547 17.7453 120.496 16.2759 118.153 16.2759C116.763 16.2759 115.849 16.7524 115.849 17.785C115.849 21.8757 130.385 19.4531 130.385 29.501C130.385 35.4185 125.143 38.2383 118.907 38.2383C114.181 38.2383 109.018 36.5703 105.523 33.8299L108.621 27.5549C111.481 29.9776 116.127 31.8045 118.987 31.8045C120.734 31.8045 121.846 31.2087 121.846 29.9378C121.846 25.728 107.311 28.389 107.311 18.5793C107.311 13.2178 111.878 9.80231 118.828 9.80231ZM166.894 16.5142H152.398V20.8828H165.544V27.2372H152.398V31.6456H167.291V38H144.137V10.1597H166.894V16.5142ZM190.231 31.0896H201.908V38H181.971V10.1597H190.231V31.0896ZM238.256 16.5142H223.76V20.8828H236.905V27.2372H223.76V31.6456H238.653V38H215.499V10.1597H238.256V16.5142ZM266.716 9.92145C270.926 9.92145 275.414 11.8278 278.233 14.8461L273.468 20.4857C271.72 18.2616 269.139 16.7922 266.835 16.7922C263.062 16.7922 260.203 19.8502 260.203 23.9409C260.203 28.0315 263.062 31.1293 266.835 31.1293C268.98 31.1293 271.561 29.8584 273.468 27.9124L278.233 32.9959C275.215 36.2525 270.648 38.3574 266.438 38.3574C257.979 38.3574 251.743 32.2413 251.743 24.0203C251.743 15.9184 258.098 9.92145 266.716 9.92145ZM299.736 38H291.476V10.1597H299.736V38ZM328.735 9.92145C337.472 9.92145 343.906 15.9184 343.906 24.06C343.906 32.2413 337.472 38.3574 328.735 38.3574C319.998 38.3574 313.564 32.281 313.564 24.06C313.564 15.8787 319.998 9.92145 328.735 9.92145ZM328.854 16.8319C325.161 16.8319 322.023 19.8899 322.023 24.0997C322.023 28.3095 325.2 31.447 328.854 31.447C332.508 31.447 335.447 28.3095 335.447 24.0997C335.447 19.8899 332.508 16.8319 328.854 16.8319ZM384.128 38H377.098L365.303 22.5111V38H357.718V10.1597H364.787L376.582 25.728V10.1597H384.128V38ZM422.302 16.5142H407.806V20.8828H420.952V27.2372H407.806V31.6456H422.699V38H399.546V10.1597H422.302V16.5142ZM484.231 10.1597V26.2443C484.231 33.6313 479.188 38.3574 471.245 38.3574C463.262 38.3574 458.059 33.6313 458.059 26.2443V10.1597H466.32V26.2443C466.32 29.4613 468.504 31.447 471.284 31.447C474.025 31.447 475.971 29.501 475.971 26.2443V10.1597H484.231ZM530.336 38H523.108L523.068 21.5182L517.468 35.2597H512.067L506.467 21.5182V38H499.199V10.1597H508.056L514.768 25.5692L521.479 10.1597H530.336V38ZM109.574 86V58.1995H120.893C123.859 58.1995 126.453 58.7952 128.677 59.9866C130.928 61.1516 132.675 62.7799 133.92 64.8716C135.164 66.9632 135.786 69.3726 135.786 72.0997C135.786 74.8268 135.164 77.2362 133.92 79.3279C132.675 81.4195 130.928 83.0611 128.677 84.2525C126.453 85.4175 123.859 86 120.893 86H109.574ZM112.513 83.4582H120.734C123.197 83.4582 125.328 82.9817 127.128 82.0285C128.955 81.0489 130.372 79.7118 131.378 78.0173C132.384 76.2963 132.887 74.3238 132.887 72.0997C132.887 69.8492 132.384 67.8767 131.378 66.1822C130.372 64.4877 128.955 63.1638 127.128 62.2107C125.328 61.231 123.197 60.7412 120.734 60.7412H112.513V83.4582ZM165.262 86.2383C163.17 86.2383 161.224 85.8941 159.424 85.2057C157.65 84.4908 156.101 83.498 154.777 82.2271C153.48 80.9297 152.46 79.4338 151.719 77.7393C151.004 76.0183 150.647 74.1384 150.647 72.0997C150.647 70.061 151.004 68.1944 151.719 66.4999C152.46 64.7789 153.48 63.283 154.777 62.0121C156.101 60.7147 157.65 59.7219 159.424 59.0335C161.198 58.3186 163.144 57.9612 165.262 57.9612C167.353 57.9612 169.286 58.3186 171.06 59.0335C172.834 59.7219 174.37 60.7015 175.667 61.9724C176.991 63.2433 178.01 64.7392 178.725 66.4602C179.466 68.1812 179.837 70.061 179.837 72.0997C179.837 74.1384 179.466 76.0183 178.725 77.7393C178.01 79.4603 176.991 80.9562 175.667 82.2271C174.37 83.498 172.834 84.4908 171.06 85.2057C169.286 85.8941 167.353 86.2383 165.262 86.2383ZM165.262 83.6171C166.93 83.6171 168.465 83.3391 169.869 82.7831C171.298 82.2006 172.53 81.3931 173.562 80.3605C174.621 79.3014 175.442 78.0835 176.025 76.7067C176.607 75.3034 176.898 73.7678 176.898 72.0997C176.898 70.4317 176.607 68.9093 176.025 67.5325C175.442 66.1292 174.621 64.9113 173.562 63.8787C172.53 62.8196 171.298 62.0121 169.869 61.4561C168.465 60.8736 166.93 60.5824 165.262 60.5824C163.594 60.5824 162.045 60.8736 160.615 61.4561C159.185 62.0121 157.941 62.8196 156.882 63.8787C155.849 64.9113 155.028 66.1292 154.42 67.5325C153.837 68.9093 153.546 70.4317 153.546 72.0997C153.546 73.7413 153.837 75.2637 154.42 76.667C155.028 78.0702 155.849 79.3014 156.882 80.3605C157.941 81.3931 159.185 82.2006 160.615 82.7831C162.045 83.3391 163.594 83.6171 165.262 83.6171ZM204.813 86.2383C202.747 86.2383 200.762 85.9073 198.855 85.2454C196.976 84.557 195.519 83.6833 194.487 82.6242L195.638 80.3605C196.618 81.3136 197.929 82.1212 199.57 82.7831C201.238 83.4185 202.986 83.7362 204.813 83.7362C206.56 83.7362 207.977 83.5244 209.062 83.1008C210.174 82.6507 210.982 82.055 211.485 81.3136C212.014 80.5723 212.279 79.7515 212.279 78.8513C212.279 77.7657 211.961 76.892 211.326 76.2301C210.717 75.5682 209.909 75.0519 208.903 74.6812C207.897 74.2841 206.785 73.9399 205.567 73.6486C204.349 73.3574 203.131 73.0529 201.913 72.7352C200.696 72.391 199.57 71.9409 198.538 71.3849C197.532 70.8288 196.711 70.1007 196.075 69.2005C195.466 68.2738 195.162 67.0692 195.162 65.5865C195.162 64.2097 195.519 62.952 196.234 61.8135C196.976 60.6486 198.101 59.7219 199.61 59.0335C201.119 58.3186 203.052 57.9612 205.408 57.9612C206.971 57.9612 208.519 58.1862 210.055 58.6363C211.591 59.0599 212.915 59.6557 214.027 60.4235L213.034 62.7667C211.842 61.9724 210.571 61.3899 209.221 61.0192C207.897 60.6486 206.613 60.4632 205.369 60.4632C203.701 60.4632 202.324 60.6883 201.238 61.1384C200.153 61.5885 199.345 62.1974 198.816 62.9653C198.313 63.7066 198.061 64.5539 198.061 65.507C198.061 66.5926 198.366 67.4663 198.975 68.1282C199.61 68.7901 200.431 69.3064 201.437 69.6771C202.469 70.0478 203.595 70.3787 204.813 70.67C206.031 70.9612 207.235 71.2789 208.427 71.6231C209.645 71.9673 210.757 72.4174 211.763 72.9735C212.795 73.503 213.616 74.2179 214.225 75.1181C214.861 76.0183 215.178 77.1965 215.178 78.6527C215.178 80.003 214.808 81.2607 214.066 82.4256C213.325 83.5641 212.186 84.4908 210.651 85.2057C209.142 85.8941 207.196 86.2383 204.813 86.2383ZM253.422 86V58.1995H256.361V83.4582H271.929V86H253.422ZM299.142 86.2383C297.05 86.2383 295.104 85.8941 293.304 85.2057C291.53 84.4908 289.981 83.498 288.657 82.2271C287.36 80.9297 286.34 79.4338 285.599 77.7393C284.884 76.0183 284.527 74.1384 284.527 72.0997C284.527 70.061 284.884 68.1944 285.599 66.4999C286.34 64.7789 287.36 63.283 288.657 62.0121C289.981 60.7147 291.53 59.7219 293.304 59.0335C295.078 58.3186 297.024 57.9612 299.142 57.9612C301.233 57.9612 303.166 58.3186 304.94 59.0335C306.714 59.7219 308.25 60.7015 309.547 61.9724C310.871 63.2433 311.89 64.7392 312.605 66.4602C313.347 68.1812 313.717 70.061 313.717 72.0997C313.717 74.1384 313.347 76.0183 312.605 77.7393C311.89 79.4603 310.871 80.9562 309.547 82.2271C308.25 83.498 306.714 84.4908 304.94 85.2057C303.166 85.8941 301.233 86.2383 299.142 86.2383ZM299.142 83.6171C300.81 83.6171 302.346 83.3391 303.749 82.7831C305.179 82.2006 306.41 81.3931 307.442 80.3605C308.501 79.3014 309.322 78.0835 309.905 76.7067C310.487 75.3034 310.778 73.7678 310.778 72.0997C310.778 70.4317 310.487 68.9093 309.905 67.5325C309.322 66.1292 308.501 64.9113 307.442 63.8787C306.41 62.8196 305.179 62.0121 303.749 61.4561C302.346 60.8736 300.81 60.5824 299.142 60.5824C297.474 60.5824 295.925 60.8736 294.495 61.4561C293.065 62.0121 291.821 62.8196 290.762 63.8787C289.729 64.9113 288.909 66.1292 288.3 67.5325C287.717 68.9093 287.426 70.4317 287.426 72.0997C287.426 73.7413 287.717 75.2637 288.3 76.667C288.909 78.0702 289.729 79.3014 290.762 80.3605C291.821 81.3931 293.065 82.2006 294.495 82.7831C295.925 83.3391 297.474 83.6171 299.142 83.6171ZM343.101 86.2383C341.009 86.2383 339.077 85.8941 337.303 85.2057C335.529 84.4908 333.993 83.498 332.696 82.2271C331.398 80.9562 330.379 79.4603 329.638 77.7393C328.923 76.0183 328.565 74.1384 328.565 72.0997C328.565 70.061 328.923 68.1812 329.638 66.4602C330.379 64.7392 331.398 63.2433 332.696 61.9724C334.02 60.7015 335.569 59.7219 337.342 59.0335C339.116 58.3186 341.049 57.9612 343.141 57.9612C345.153 57.9612 347.046 58.3054 348.82 58.9938C350.594 59.6557 352.09 60.6618 353.308 62.0121L351.441 63.8787C350.303 62.7137 349.045 61.8797 347.668 61.3767C346.292 60.8471 344.809 60.5824 343.22 60.5824C341.552 60.5824 340.003 60.8736 338.574 61.4561C337.144 62.0121 335.899 62.8196 334.84 63.8787C333.781 64.9113 332.947 66.1292 332.338 67.5325C331.756 68.9093 331.465 70.4317 331.465 72.0997C331.465 73.7678 331.756 75.3034 332.338 76.7067C332.947 78.0835 333.781 79.3014 334.84 80.3605C335.899 81.3931 337.144 82.2006 338.574 82.7831C340.003 83.3391 341.552 83.6171 343.22 83.6171C344.809 83.6171 346.292 83.3523 347.668 82.8228C349.045 82.2933 350.303 81.446 351.441 80.281L353.308 82.1476C352.09 83.498 350.594 84.5173 348.82 85.2057C347.046 85.8941 345.14 86.2383 343.101 86.2383ZM365.15 86L377.859 58.1995H380.758L393.467 86H390.369L378.693 59.9072H379.884L368.208 86H365.15ZM370.154 78.5733L371.028 76.1904H387.192L388.065 78.5733H370.154ZM408.789 86V58.1995H411.728V86H408.789ZM439.161 86.2383C437.096 86.2383 435.11 85.9073 433.204 85.2454C431.324 84.557 429.868 83.6833 428.835 82.6242L429.987 80.3605C430.966 81.3136 432.277 82.1212 433.919 82.7831C435.587 83.4185 437.334 83.7362 439.161 83.7362C440.908 83.7362 442.325 83.5244 443.411 83.1008C444.523 82.6507 445.33 82.055 445.833 81.3136C446.363 80.5723 446.627 79.7515 446.627 78.8513C446.627 77.7657 446.31 76.892 445.674 76.2301C445.065 75.5682 444.258 75.0519 443.252 74.6812C442.246 74.2841 441.134 73.9399 439.916 73.6486C438.698 73.3574 437.48 73.0529 436.262 72.7352C435.044 72.391 433.919 71.9409 432.886 71.3849C431.88 70.8288 431.059 70.1007 430.424 69.2005C429.815 68.2738 429.51 67.0692 429.51 65.5865C429.51 64.2097 429.868 62.952 430.583 61.8135C431.324 60.6486 432.449 59.7219 433.958 59.0335C435.467 58.3186 437.4 57.9612 439.757 57.9612C441.319 57.9612 442.868 58.1862 444.403 58.6363C445.939 59.0599 447.263 59.6557 448.375 60.4235L447.382 62.7667C446.191 61.9724 444.92 61.3899 443.569 61.0192C442.246 60.6486 440.961 60.4632 439.717 60.4632C438.049 60.4632 436.672 60.6883 435.587 61.1384C434.501 61.5885 433.694 62.1974 433.164 62.9653C432.661 63.7066 432.409 64.5539 432.409 65.507C432.409 66.5926 432.714 67.4663 433.323 68.1282C433.958 68.7901 434.779 69.3064 435.785 69.6771C436.818 70.0478 437.943 70.3787 439.161 70.67C440.379 70.9612 441.584 71.2789 442.775 71.6231C443.993 71.9673 445.105 72.4174 446.111 72.9735C447.144 73.503 447.965 74.2179 448.573 75.1181C449.209 76.0183 449.527 77.1965 449.527 78.6527C449.527 80.003 449.156 81.2607 448.415 82.4256C447.673 83.5641 446.535 84.4908 444.999 85.2057C443.49 85.8941 441.544 86.2383 439.161 86.2383ZM466.177 77.6598L465.621 58.1995H468.957L468.361 77.6598H466.177ZM467.289 86.1986C466.706 86.1986 466.203 86 465.779 85.6028C465.382 85.1792 465.184 84.6894 465.184 84.1334C465.184 83.5509 465.382 83.0743 465.779 82.7036C466.203 82.3065 466.706 82.1079 467.289 82.1079C467.898 82.1079 468.387 82.3065 468.758 82.7036C469.155 83.0743 469.354 83.5509 469.354 84.1334C469.354 84.6894 469.155 85.1792 468.758 85.6028C468.387 86 467.898 86.1986 467.289 86.1986Z" fill="#234C43"/>
<path d="M28.2291 96.1763C26.6465 95.8101 25.0164 95.5894 23.4885 95.0525C13.6504 91.5908 7.80798 84.4566 6.16354 73.6424C5.84226 71.5278 5.9089 69.3429 5.88748 67.188C5.8494 63.0891 5.98743 58.9852 5.8494 54.8939C5.6614 49.2924 10.1997 47.2404 14.0336 48.4194C15.0997 48.748 16.0992 49.3124 17.2653 49.8292C17.2653 49.5156 17.2653 49.1669 17.2653 48.8183C17.2439 42.7477 17.1963 36.6771 17.2225 30.609C17.2296 29.0236 17.3391 27.4082 17.6414 25.8579C18.2744 22.6019 21.2587 20.2263 24.6784 20.0633C27.9554 19.9077 31.073 22.1554 32.1058 25.4942C32.3486 26.2818 32.4723 27.1423 32.4842 27.9726C32.5294 30.9727 32.5009 33.9754 32.5009 37.0534C37.4628 34.9287 41.1681 36.3359 43.6265 41.3028C48.7264 38.2549 54.4094 41.3379 55.3922 47.125C58.2456 45.7027 61.0276 45.7453 63.624 47.7396C65.6397 49.2874 66.6916 51.4321 66.6987 54.0811C66.713 59.5572 66.7178 65.0332 66.6987 70.5068C66.6606 82.9314 57.8054 93.8259 46.1538 95.8126C45.5779 95.9104 45.0091 96.0559 44.4356 96.1763H28.2244H28.2291ZM21.1016 49.0164C21.1016 52.0216 21.1016 55.0243 21.1016 58.0295C21.1016 62.003 21.1064 65.979 21.0992 69.9524C21.0992 71.2443 20.3567 72.1072 19.2644 72.1373C18.1411 72.1674 17.3796 71.3823 17.2915 70.0829C17.2677 69.7392 17.2868 69.3955 17.282 69.0494C17.2511 65.4196 17.2606 61.7897 17.1797 58.1624C17.1035 54.8236 15.1545 52.5033 12.2677 52.1696C10.5329 51.9689 9.70469 52.7466 9.70469 54.6029C9.69993 59.7353 9.61664 64.8702 9.74515 69.9976C9.79988 72.1599 10.0855 74.3774 10.64 76.457C12.9817 85.2568 20.7494 91.7237 29.419 92.0524C34.0144 92.2254 38.6194 92.1151 43.2195 92.0699C45.6779 92.0448 48.0505 91.4328 50.2661 90.3365C58.0005 86.5161 62.3603 80.1219 62.7911 71.0988C63.06 65.4472 62.872 59.7729 62.8839 54.1087C62.8839 53.8905 62.8506 53.6722 62.8196 53.4565C62.5626 51.5826 61.0681 50.1904 59.2737 50.1478C57.327 50.1026 55.6897 51.3744 55.4755 53.316C55.2971 54.924 55.3613 56.5595 55.3018 58.1825C55.2614 59.2687 54.4974 60.0789 53.5027 60.1216C52.4698 60.1642 51.6845 59.4819 51.537 58.3807C51.487 58.0119 51.4846 57.6332 51.4846 57.2569C51.4798 54.3144 51.4727 51.3744 51.4846 48.4319C51.4917 46.7237 50.8944 45.3741 49.4284 44.5689C46.8916 43.1741 43.9573 45.1032 43.9168 48.2187C43.8764 51.5049 43.9168 54.791 43.9025 58.0772C43.8978 59.2386 43.141 60.0739 42.1153 60.1216C41.0515 60.1718 40.2614 59.4593 40.1234 58.3004C40.0829 57.9593 40.0829 57.6131 40.0829 57.2694C40.0806 53.1379 40.0829 49.0089 40.0782 44.8774C40.0782 44.4083 40.0639 43.9367 40.0092 43.4726C39.814 41.802 38.4908 40.4123 36.9178 40.194C34.438 39.8504 32.5223 41.6239 32.5104 44.3305C32.4914 48.8985 32.5104 53.469 32.5009 58.037C32.4985 59.2085 31.7631 60.0539 30.7493 60.1191C29.6546 60.1893 28.8407 59.4518 28.7146 58.2452C28.6765 57.874 28.6813 57.4952 28.6813 57.1214C28.6813 47.8274 28.6813 38.5334 28.6765 29.2394C28.6765 28.6775 28.6813 28.1055 28.5932 27.5562C28.3386 25.9758 27.4438 24.9047 26.0421 24.3352C24.657 23.7758 23.4076 24.1546 22.3391 25.1656C21.4205 26.0335 21.1016 27.1824 21.104 28.4592C21.1087 35.3125 21.1064 42.1657 21.1064 49.0189L21.1016 49.0164Z" fill="#234C43"/>
<path d="M0 26.0849C0.278438 13.437 8.55303 2.94643 20.3712 0.473043C33.7076 -2.31892 47.1345 7.5671 49.262 21.7126C49.7903 25.217 49.7309 28.6787 48.936 32.1254C48.5838 33.6531 47.7009 34.3354 46.4943 34.0268C45.3568 33.7358 44.8808 32.6446 45.2164 31.0843C46.1421 26.7998 45.9898 22.5579 44.462 18.4641C41.4801 10.482 35.9541 5.64057 27.8913 4.35119C16.6063 2.54758 6.1756 10.6701 4.32173 22.4777C3.85529 25.4553 3.97428 28.3852 4.63349 31.3101C4.98332 32.8679 4.17894 34.0895 2.83673 34.0971C1.93478 34.1046 1.16611 33.5552 0.985241 32.5368C0.602091 30.397 0.323654 28.2347 0 26.0824L0 26.0849Z" fill="#234C43"/>
<path d="M13.6416 26.4709C13.6416 27.0027 13.6463 27.5345 13.6416 28.0663C13.6297 29.1299 12.9585 29.9578 12.0138 30.0782C10.9643 30.2136 10.1075 29.732 9.95285 28.6282C9.76008 27.2486 9.62205 25.8112 9.77912 24.4365C10.6216 17.0716 15.4312 11.7284 22.3493 10.3212C30.1741 8.73078 38.2892 14.4903 39.76 22.796C40.0646 24.5193 39.9956 26.3305 39.9646 28.099C39.9432 29.2955 39.027 29.9904 37.9037 29.8976C36.878 29.8123 36.1569 28.9544 36.2307 27.7653C36.3616 25.6507 36.2497 23.5836 35.4787 21.5969C33.5486 16.6175 28.5725 13.4769 23.6677 14.1517C18.4202 14.8716 14.3936 18.9855 13.6511 24.4114C13.5583 25.0887 13.5821 25.7836 13.5535 26.4709C13.5844 26.4709 13.613 26.4709 13.6439 26.4709H13.6416Z" fill="#234C43"/>
</svg>
