<svg width="143" height="143" viewBox="0 0 143 143" fill="none" xmlns="http://www.w3.org/2000/svg">
<rect x="2.0698" y="2.0698" width="138.86" height="138.86" rx="18.6282" fill="#896337" stroke="#E2DED2" stroke-width="4.13959"/>
<path opacity="0.1" fill-rule="evenodd" clip-rule="evenodd" d="M0 20.698C0 9.26679 9.26678 0 20.698 0H122.118C133.549 0 142.816 9.26679 142.816 20.698V122.118C142.816 133.549 133.549 142.816 122.118 142.816H19.5361C18.837 142.816 18.1465 142.779 17.4663 142.708C7.64986 141.674 0 133.37 0 123.28V20.698ZM38.0468 43.4847C28.7902 44.5669 21.6059 52.438 21.6059 61.986V138.676H74.7275V89.5472C60.6554 78.5698 47.7857 63.7506 38.0468 43.4847ZM138.676 122.118C138.676 131.263 131.263 138.676 122.118 138.676H78.8671V92.6436C98.6638 106.839 120.343 113.912 138.676 118.265V122.118ZM42.5921 43.3578C51.3341 60.9538 62.5126 74.1763 74.7275 84.2418V61.986C74.7275 51.698 66.3873 43.3578 56.0993 43.3578H42.5921ZM78.8671 61.986C78.8671 49.4117 68.6736 39.2182 56.0993 39.2182H40.6182C35.9475 29.006 32.0648 17.3853 29.2238 4.13959H81.7862C83.3556 19.4679 88.8673 32.7242 98.3699 42.6044C107.969 52.5846 121.483 58.9568 138.676 60.6468V114.008C120.037 109.513 98.3397 102.191 78.8671 87.5055V61.986ZM17.4663 61.986C17.4663 50.7761 25.5669 41.4592 36.2347 39.5685C31.606 29.174 27.7829 17.4283 24.9921 4.13959H20.698C11.553 4.13959 4.13959 11.553 4.13959 20.698V123.28C4.13959 131.081 9.94185 137.527 17.4663 138.538V61.986ZM138.676 20.698C138.676 11.553 131.263 4.13959 122.118 4.13959H85.9483C87.4981 18.5468 92.6957 30.7329 101.354 39.7348C110.089 48.8177 122.501 54.819 138.676 56.4865V20.698Z" fill="#E2DED2"/>
<path fill-rule="evenodd" clip-rule="evenodd" d="M0 20.698C0 9.2668 9.26679 0 20.698 0H122.302C133.733 0 143 9.26679 143 20.698V122.302C143 133.733 133.733 143 122.302 143H20.698C9.2668 143 0 133.733 0 122.302V20.698ZM4.13959 20.698C4.13959 11.553 11.553 4.13959 20.698 4.13959H122.302C131.447 4.13959 138.86 11.553 138.86 20.698V122.302C138.86 131.447 131.447 138.86 122.302 138.86H20.698C11.553 138.86 4.13959 131.447 4.13959 122.302V20.698Z" fill="#E2DED2"/>
<path d="M59.4979 58.2026H46.7032C46.6912 54.2995 47.5643 50.6902 49.2219 47.2699C54.1185 37.162 64.9859 31.5448 76.1429 33.3273C87.0907 35.0777 95.6285 44.1031 97.0448 55.2773C97.9662 62.5242 95.4394 68.4996 90.4423 73.5294C88.2213 75.7667 85.7067 77.7142 83.3369 79.8026C82.4718 80.5631 81.5907 81.3155 80.7981 82.1525C79.1525 83.8948 78.1587 85.9148 78.3518 88.4015C78.4081 89.1419 78.3598 89.8943 78.3598 90.7313H65.69C64.8128 83.2872 67.2953 77.1509 72.6425 72.1492C75.133 69.8194 77.7885 67.6707 80.3836 65.4536C84.0007 62.3633 85.4291 58.6171 83.6265 54.038C81.7355 49.2295 78.1828 46.445 72.9966 45.9259C66.3941 45.2701 59.86 50.2435 59.4979 58.2067V58.2026Z" fill="#E2DED2"/>
<path d="M65.6354 110V97.337H78.2771V110H65.6354Z" fill="#E2DED2"/>
</svg>
