<svg width="293" height="180" viewBox="0 0 293 180" fill="none" xmlns="http://www.w3.org/2000/svg">
<path d="M124.189 136.996C124 136.996 123.811 136.951 123.641 136.86C123.263 136.658 123.027 136.268 123.027 135.842V103.867C121.535 102.75 120.119 101.525 118.782 100.2C115.028 96.4709 112.093 92.1113 110.061 87.2384C108.029 82.3676 107 77.2247 107 71.9498C107 66.675 108.029 61.5321 110.061 56.6613C112.093 51.7904 115.028 47.4287 118.782 43.6999C122.537 39.971 126.927 37.0563 131.833 35.0383C136.737 33.0224 141.916 32 147.225 32C152.534 32 157.714 33.0224 162.618 35.0404C167.525 37.0584 171.914 39.9731 175.669 43.7019C179.423 47.4308 182.356 51.7904 184.388 56.6633C186.42 61.5341 187.449 66.6791 187.449 71.9519C187.449 77.2247 186.42 82.3697 184.388 87.2405C182.356 92.1113 179.421 96.473 175.669 100.202C174.28 101.581 172.807 102.847 171.25 103.999V135.844C171.25 136.268 171.014 136.66 170.636 136.862C170.258 137.064 169.8 137.041 169.443 136.806L147.131 122.064L124.83 136.806C124.635 136.934 124.411 137 124.187 137L124.189 136.996ZM147.133 119.52C147.357 119.52 147.582 119.584 147.777 119.714L168.926 133.688V105.594C166.935 106.86 164.829 107.952 162.618 108.861C157.714 110.879 152.534 111.902 147.225 111.902C141.916 111.902 136.737 110.879 131.831 108.861C129.556 107.926 127.391 106.796 125.351 105.483V133.688L146.49 119.714C146.685 119.584 146.909 119.52 147.133 119.52ZM124.93 102.401C131.368 107.072 139.101 109.593 147.225 109.593C155.348 109.593 162.73 107.186 169.079 102.717C169.241 102.436 169.519 102.228 169.849 102.16C171.315 101.074 172.709 99.8741 174.025 98.5673C181.183 91.4579 185.127 82.0048 185.127 71.9498C185.127 61.8949 181.183 52.4439 174.025 45.3345C166.867 38.2251 157.349 34.3086 147.225 34.3086C137.101 34.3086 127.584 38.2251 120.426 45.3345C113.268 52.4439 109.325 61.8949 109.325 71.9498C109.325 82.0048 113.268 91.4579 120.426 98.5673C121.806 99.938 123.276 101.191 124.82 102.321C124.857 102.346 124.895 102.372 124.93 102.401ZM147.229 101.966C138.364 101.966 129.874 98.0849 124.108 91.2827C117.761 83.794 115.489 73.6772 118.027 64.2221C120.567 54.7649 127.609 47.1154 136.868 43.7617C146.125 40.4059 156.473 41.754 164.549 47.3648C172.624 52.9757 177.446 62.167 177.446 71.954C177.446 72.5909 176.925 73.1083 176.283 73.1083C175.642 73.1083 175.121 72.5909 175.121 71.954C175.121 62.9193 170.671 54.4351 163.216 49.255C155.761 44.075 146.21 42.8321 137.665 45.9302C129.12 49.0262 122.618 56.0882 120.273 64.8178C117.929 73.5473 120.028 82.885 125.887 89.7985C131.746 96.71 140.652 100.356 149.711 99.5505C158.773 98.7466 166.886 93.5872 171.414 85.7522C171.734 85.1998 172.444 85.0081 173.002 85.3255C173.558 85.643 173.751 86.3479 173.432 86.9024C168.523 95.3908 159.734 100.979 149.919 101.849C149.02 101.929 148.121 101.968 147.229 101.968V101.966ZM137.916 87.1786C137.709 87.1786 137.501 87.123 137.316 87.0117C136.932 86.7808 136.717 86.3521 136.76 85.9089L137.866 74.8439L130.154 67.7304C129.816 67.4191 129.695 66.9368 129.847 66.5039C129.998 66.071 130.395 65.768 130.855 65.733L142.1 64.8755L146.058 55.3049C146.237 54.8721 146.662 54.5897 147.133 54.5897C147.604 54.5897 148.028 54.8721 148.208 55.3049L152.179 64.8755L163.426 65.733C163.887 65.768 164.283 66.071 164.434 66.5039C164.586 66.9368 164.466 67.4191 164.127 67.7304L156.413 74.8439L157.519 85.9089C157.563 86.3521 157.347 86.7808 156.963 87.0117C156.579 87.2425 156.095 87.2322 155.722 86.9869L147.133 81.3576L138.558 86.9849C138.364 87.1127 138.14 87.1766 137.916 87.1766V87.1786ZM147.133 78.8222C147.355 78.8222 147.58 78.8861 147.773 79.0139L154.964 83.726L154.043 74.5038C154.007 74.1451 154.142 73.7885 154.408 73.5432L160.599 67.8355L151.288 67.1244C150.851 67.0914 150.471 66.8152 150.303 66.4132L147.135 58.7803L143.979 66.4132C143.813 66.8172 143.431 67.0914 142.993 67.1264L133.682 67.8376L139.871 73.5453C140.137 73.7906 140.274 74.1451 140.237 74.5058L139.315 83.726L146.492 79.0159C146.687 78.8881 146.909 78.8242 147.133 78.8242V78.8222ZM175.47 80.4444C174.828 80.4444 174.307 79.9208 174.307 79.2839C174.307 78.9706 174.38 78.7047 174.432 78.5089C174.449 78.4491 174.465 78.3893 174.478 78.3275C174.592 77.7008 175.196 77.2824 175.829 77.3958C176.46 77.5091 176.881 78.109 176.767 78.7377C176.742 78.8778 176.709 78.9995 176.68 79.1066C176.661 79.1726 176.636 79.2654 176.634 79.2963C176.634 79.9332 176.113 80.4444 175.472 80.4444H175.47Z" fill="#F0EFE9" stroke="#F0EFE9" stroke-width="0.681791"/>
</svg>
