<svg width="294" height="179" viewBox="0 0 294 179" fill="none" xmlns="http://www.w3.org/2000/svg">
<path d="M124.189 135.996C124 135.996 123.811 135.951 123.641 135.86C123.263 135.658 123.027 135.268 123.027 134.842V102.867C121.535 101.75 120.119 100.525 118.782 99.1998C115.028 95.4709 112.093 91.1113 110.061 86.2384C108.029 81.3676 107 76.2247 107 70.9498C107 65.675 108.029 60.5321 110.061 55.6613C112.093 50.7904 115.028 46.4287 118.782 42.6999C122.537 38.971 126.927 36.0563 131.833 34.0383C136.737 32.0224 141.916 31 147.225 31C152.534 31 157.714 32.0224 162.618 34.0404C167.525 36.0584 171.914 38.9731 175.669 42.7019C179.423 46.4308 182.356 50.7904 184.388 55.6633C186.42 60.5341 187.449 65.6791 187.449 70.9519C187.449 76.2247 186.42 81.3697 184.388 86.2405C182.356 91.1113 179.421 95.473 175.669 99.2019C174.28 100.581 172.807 101.847 171.25 102.999V134.844C171.25 135.268 171.014 135.66 170.636 135.862C170.258 136.064 169.8 136.041 169.443 135.806L147.131 121.064L124.83 135.806C124.635 135.934 124.411 136 124.187 136L124.189 135.996ZM147.133 118.52C147.357 118.52 147.582 118.584 147.777 118.714L168.926 132.688V104.594C166.935 105.86 164.829 106.952 162.618 107.861C157.714 109.879 152.534 110.902 147.225 110.902C141.916 110.902 136.737 109.879 131.831 107.861C129.556 106.926 127.391 105.796 125.351 104.483V132.688L146.49 118.714C146.685 118.584 146.909 118.52 147.133 118.52ZM124.93 101.401C131.368 106.072 139.101 108.593 147.225 108.593C155.348 108.593 162.73 106.186 169.079 101.717C169.241 101.436 169.519 101.228 169.849 101.16C171.315 100.074 172.709 98.8741 174.025 97.5673C181.183 90.4579 185.127 81.0048 185.127 70.9498C185.127 60.8949 181.183 51.4439 174.025 44.3345C166.867 37.2251 157.349 33.3086 147.225 33.3086C137.101 33.3086 127.584 37.2251 120.426 44.3345C113.268 51.4439 109.325 60.8949 109.325 70.9498C109.325 81.0048 113.268 90.4579 120.426 97.5673C121.806 98.938 123.276 100.191 124.82 101.321C124.857 101.346 124.895 101.372 124.93 101.401ZM147.229 100.966C138.364 100.966 129.874 97.0849 124.108 90.2827C117.761 82.794 115.489 72.6772 118.027 63.2221C120.567 53.7649 127.609 46.1154 136.868 42.7617C146.125 39.4059 156.473 40.754 164.549 46.3648C172.624 51.9757 177.446 61.167 177.446 70.954C177.446 71.5909 176.925 72.1083 176.283 72.1083C175.642 72.1083 175.121 71.5909 175.121 70.954C175.121 61.9193 170.671 53.4351 163.216 48.255C155.761 43.075 146.21 41.8321 137.665 44.9302C129.12 48.0262 122.618 55.0882 120.273 63.8178C117.929 72.5473 120.028 81.885 125.887 88.7985C131.746 95.71 140.652 99.3565 149.711 98.5505C158.773 97.7466 166.886 92.5872 171.414 84.7522C171.734 84.1998 172.444 84.0081 173.002 84.3255C173.558 84.643 173.751 85.3479 173.432 85.9024C168.523 94.3908 159.734 99.979 149.919 100.849C149.02 100.929 148.121 100.968 147.229 100.968V100.966ZM137.916 86.1786C137.709 86.1786 137.501 86.123 137.316 86.0117C136.932 85.7808 136.717 85.3521 136.76 84.9089L137.866 73.8439L130.154 66.7304C129.816 66.4191 129.695 65.9368 129.847 65.5039C129.998 65.071 130.395 64.768 130.855 64.733L142.1 63.8755L146.058 54.3049C146.237 53.8721 146.662 53.5897 147.133 53.5897C147.604 53.5897 148.028 53.8721 148.208 54.3049L152.179 63.8755L163.426 64.733C163.887 64.768 164.283 65.071 164.434 65.5039C164.586 65.9368 164.466 66.4191 164.127 66.7304L156.413 73.8439L157.519 84.9089C157.563 85.3521 157.347 85.7808 156.963 86.0117C156.579 86.2425 156.095 86.2322 155.722 85.9869L147.133 80.3576L138.558 85.9849C138.364 86.1127 138.14 86.1766 137.916 86.1766V86.1786ZM147.133 77.8222C147.355 77.8222 147.58 77.8861 147.773 78.0139L154.964 82.726L154.043 73.5038C154.007 73.1451 154.142 72.7885 154.408 72.5432L160.599 66.8355L151.288 66.1244C150.851 66.0914 150.471 65.8152 150.303 65.4132L147.135 57.7803L143.979 65.4132C143.813 65.8172 143.431 66.0914 142.993 66.1264L133.682 66.8376L139.871 72.5453C140.137 72.7906 140.274 73.1451 140.237 73.5058L139.315 82.726L146.492 78.0159C146.687 77.8881 146.909 77.8242 147.133 77.8242V77.8222ZM175.47 79.4444C174.828 79.4444 174.307 78.9208 174.307 78.2839C174.307 77.9706 174.38 77.7047 174.432 77.5089C174.449 77.4491 174.465 77.3893 174.478 77.3275C174.592 76.7008 175.196 76.2824 175.829 76.3958C176.46 76.5091 176.881 77.109 176.767 77.7377C176.742 77.8778 176.709 77.9995 176.68 78.1066C176.661 78.1726 176.636 78.2654 176.634 78.2963C176.634 78.9332 176.113 79.4444 175.472 79.4444H175.47Z" fill="#E2B34A" stroke="#E2B34A" stroke-width="0.681791"/>
</svg>
