<svg width="99" height="92" viewBox="0 0 99 92" fill="none" xmlns="http://www.w3.org/2000/svg">
<path fill-rule="evenodd" clip-rule="evenodd" d="M52.9426 23.5258C54.0085 23.5258 54.8725 24.3899 54.8725 25.4558V57.0571C67.7746 66.7277 82.0926 71.7128 94.5822 74.8094V39.197C83.0858 37.8839 73.9786 33.5027 67.4474 26.712C61.0052 20.0138 57.2038 11.1116 55.9857 0.860352H20.8911C22.7898 9.36964 25.3198 16.8824 28.3323 23.5258H52.9426ZM94.5822 78.7837C82.3542 75.8193 68.0529 71.0594 54.8725 61.8235V91.568H94.5822V78.7837ZM25.8778 27.3857C32.5685 41.2316 41.3774 51.4011 51.0126 58.9609V91.568H15.4087V27.3857H25.8778ZM13.4788 23.5258C12.4129 23.5258 11.5488 24.3899 11.5488 25.4558V91.568H3.87455V0.860352H16.939C18.7646 9.28251 21.1956 16.8034 24.11 23.5258H13.4788ZM70.2294 24.0363C75.964 29.9988 84.052 34.0252 94.5822 35.3105V0.860352H59.8745C61.0677 10.2359 64.5664 18.1483 70.2294 24.0363ZM51.0126 53.9829C43.1362 47.3195 35.9221 38.6914 30.1849 27.3857H51.0126V53.9829Z" fill="#896337"/>
</svg>
