<svg width="91" height="90" viewBox="0 0 91 90" fill="none" xmlns="http://www.w3.org/2000/svg">
<g clip-path="url(#clip0_149_27722)">
<mask id="mask0_149_27722" style="mask-type:alpha" maskUnits="userSpaceOnUse" x="-8" y="-4" width="790" height="99">
<rect x="-6.0554" y="-2.06907" width="785.489" height="94.5675" rx="17.3695" fill="#896337" stroke="#E2DED2" stroke-width="3.8599"/>
</mask>
<g mask="url(#mask0_149_27722)">
<path fill-rule="evenodd" clip-rule="evenodd" d="M-7.98535 94.4284V-3.99902H90.4421V94.4284H-7.98535ZM44.9426 22.5263C46.0085 22.5263 46.8725 23.3904 46.8725 24.4563V56.0576C59.7746 65.7283 74.0926 70.7133 86.5822 73.8099V38.1975C75.0858 36.8844 65.9786 32.5033 59.4474 25.7125C53.0052 19.0143 49.2038 10.1121 47.9857 -0.139125H12.8911C14.7898 8.37016 17.3198 15.8829 20.3323 22.5263H44.9426ZM86.5822 77.7842C74.3542 74.8199 60.0529 70.0599 46.8725 60.8241V90.5685H86.5822V77.7842ZM17.8778 26.3862C24.5685 40.2322 33.3774 50.4016 43.0126 57.9614V90.5685H7.40872V26.3862H17.8778ZM5.47878 22.5263C4.4129 22.5263 3.54883 23.3904 3.54883 24.4563V90.5685H-4.12545V-0.139125H8.939C10.7646 8.28304 13.1956 15.8039 16.11 22.5263H5.47878ZM62.2294 23.0368C67.964 28.9993 76.052 33.0257 86.5822 34.311V-0.139125H51.8745C53.0677 9.23638 56.5664 17.1488 62.2294 23.0368ZM43.0126 52.9834C35.1362 46.32 27.9221 37.6919 22.1849 26.3862H43.0126V52.9834Z" fill="#AFA38B"/>
</g>
</g>
<defs>
<clipPath id="clip0_149_27722">
<rect width="91" height="90" fill="white"/>
</clipPath>
</defs>
</svg>
