<svg width="99" height="95" viewBox="0 0 99 95" fill="none" xmlns="http://www.w3.org/2000/svg">
<path fill-rule="evenodd" clip-rule="evenodd" d="M52.9279 22.6659C53.9938 22.6659 54.8579 23.53 54.8579 24.5959V56.1972C67.76 65.8679 82.078 70.8529 94.5675 73.9495V38.3371C83.0712 37.024 73.964 32.6428 67.4327 25.8521C60.9906 19.1539 57.1891 10.2517 55.9711 0.000453234H20.8765C22.7752 8.50974 25.3051 16.0225 28.3176 22.6659H52.9279ZM94.5675 77.9238C82.3395 74.9594 68.0383 70.1995 54.8579 60.9636V90.7081H94.5675V77.9238ZM25.8631 26.5258C32.5539 40.3717 41.3628 50.5412 50.998 58.101V90.7081H15.3941V26.5258H25.8631ZM13.4641 22.6659C12.3982 22.6659 11.5342 23.53 11.5342 24.5959V90.7081H3.8599V0.000453234H16.9244C18.7499 8.42261 21.1809 15.9435 24.0954 22.6659H13.4641ZM70.2147 23.1764C75.9494 29.1389 84.0373 33.1653 94.5675 34.4506V0.000453234H59.8598C61.0531 9.37596 64.5518 17.2884 70.2147 23.1764ZM50.998 53.123C43.1215 46.4596 35.9075 37.8315 30.1702 26.5258H50.998V53.123Z" fill="#E2DED2"/>
</svg>
