<svg width="95" height="98" viewBox="0 0 95 98" fill="none" xmlns="http://www.w3.org/2000/svg">
<g filter="url(#filter0_i_6_19)">
<path d="M0 0H95V56.9688C95 79.6124 76.6437 97.9688 54 97.9688H0V0Z" fill="#234C43"/>
</g>
<path d="M76.4494 49.5924L64.0021 37.8716C64.0021 37.8524 64.007 37.8284 64.007 37.8092V27.1675C64.007 26.2563 63.2556 25.5178 62.3285 25.5178C61.4014 25.5178 60.65 26.2563 60.65 27.1675V34.716L48.7345 23.4892C48.0416 22.8369 46.9535 22.8369 46.2655 23.4892L18.5506 49.5924C17.8382 50.2638 17.8138 51.3716 18.4969 52.0718C19.18 52.7719 20.3071 52.7959 21.0195 52.1245L47.5 27.1867L73.9805 52.1293C74.3269 52.4554 74.7709 52.6185 75.215 52.6185C75.6834 52.6185 76.1518 52.4362 76.5031 52.0766C77.1862 51.3764 77.1618 50.2638 76.4494 49.5924Z" fill="#E2B34A"/>
<path d="M66.0215 50.4219C65.0358 50.4219 64.2356 51.2084 64.2356 52.1771V72.1418H54.0816V66.9816C54.0816 66.0128 53.2814 65.2263 52.2958 65.2263H42.698C41.7123 65.2263 40.9121 66.0128 40.9121 66.9816V72.137H30.7581V52.1771C30.7581 51.2084 29.9579 50.4219 28.9723 50.4219C27.9866 50.4219 27.1864 51.2084 27.1864 52.1771V73.897C27.1864 74.8657 27.9866 75.6522 28.9723 75.6522H42.698C43.6836 75.6522 44.4838 74.8657 44.4838 73.897V68.7368H50.5099V73.8922C50.5099 74.8609 51.3101 75.6474 52.2958 75.6474H66.0215C67.0071 75.6474 67.8073 74.8609 67.8073 73.8922V52.1771C67.8073 51.2084 67.0071 50.4219 66.0215 50.4219Z" fill="#E2B34A"/>
<defs>
<filter id="filter0_i_6_19" x="0" y="0" width="99" height="101.969" filterUnits="userSpaceOnUse" color-interpolation-filters="sRGB">
<feFlood flood-opacity="0" result="BackgroundImageFix"/>
<feBlend mode="normal" in="SourceGraphic" in2="BackgroundImageFix" result="shape"/>
<feColorMatrix in="SourceAlpha" type="matrix" values="0 0 0 0 0 0 0 0 0 0 0 0 0 0 0 0 0 0 127 0" result="hardAlpha"/>
<feOffset dx="4" dy="4"/>
<feGaussianBlur stdDeviation="7.3"/>
<feComposite in2="hardAlpha" operator="arithmetic" k2="-1" k3="1"/>
<feColorMatrix type="matrix" values="0 0 0 0 0 0 0 0 0 0 0 0 0 0 0 0 0 0 0.5 0"/>
<feBlend mode="normal" in2="shape" result="effect1_innerShadow_6_19"/>
</filter>
</defs>
</svg>
