<svg width="143" height="143" viewBox="0 0 143 143" fill="none" xmlns="http://www.w3.org/2000/svg">
<rect x="2.0698" y="2.0698" width="138.86" height="138.86" rx="18.6282" fill="#896337" stroke="#E2DED2" stroke-width="4.13959"/>
<path opacity="0.1" fill-rule="evenodd" clip-rule="evenodd" d="M0 20.698C0 9.26679 9.26678 0 20.698 0H122.118C133.549 0 142.816 9.26679 142.816 20.698V122.118C142.816 133.549 133.549 142.816 122.118 142.816H19.5361C18.837 142.816 18.1465 142.779 17.4663 142.708C7.64986 141.674 0 133.37 0 123.28V20.698ZM38.0468 43.4847C28.7902 44.5669 21.6059 52.438 21.6059 61.986V138.676H74.7275V89.5472C60.6554 78.5698 47.7857 63.7506 38.0468 43.4847ZM138.676 122.118C138.676 131.263 131.263 138.676 122.118 138.676H78.8671V92.6436C98.6638 106.839 120.343 113.912 138.676 118.265V122.118ZM42.5921 43.3578C51.3341 60.9538 62.5126 74.1763 74.7275 84.2418V61.986C74.7275 51.698 66.3873 43.3578 56.0993 43.3578H42.5921ZM78.8671 61.986C78.8671 49.4117 68.6736 39.2182 56.0993 39.2182H40.6182C35.9475 29.006 32.0648 17.3853 29.2238 4.13959H81.7862C83.3556 19.4679 88.8673 32.7242 98.3699 42.6044C107.969 52.5846 121.483 58.9568 138.676 60.6468V114.008C120.037 109.513 98.3397 102.191 78.8671 87.5055V61.986ZM17.4663 61.986C17.4663 50.7761 25.5669 41.4592 36.2347 39.5685C31.606 29.174 27.7829 17.4283 24.9921 4.13959H20.698C11.553 4.13959 4.13959 11.553 4.13959 20.698V123.28C4.13959 131.081 9.94185 137.527 17.4663 138.538V61.986ZM138.676 20.698C138.676 11.553 131.263 4.13959 122.118 4.13959H85.9483C87.4981 18.5468 92.6957 30.7329 101.354 39.7348C110.089 48.8177 122.501 54.819 138.676 56.4865V20.698Z" fill="#E2DED2"/>
<rect x="2.0698" y="2.0698" width="138.86" height="138.86" rx="18.6282" stroke="#E2DED2" stroke-width="4.13959"/>
<path d="M94.5667 105.512H81.0088C79.7412 104.921 79.386 103.901 79.3954 102.549C79.4415 96.7263 79.4158 90.9019 79.4144 85.0775C79.4144 83.9427 79.2938 83.8206 78.1874 83.8206C74.1919 83.8206 70.1965 83.8206 66.201 83.8206C65.0919 83.8206 64.9767 83.9386 64.9767 85.0775C64.9767 90.9236 64.9523 96.7711 64.9943 102.617C65.0038 103.95 64.6147 104.933 63.3823 105.513H49.8244C46.957 104.48 46.1638 103.345 46.1638 100.279C46.1638 91.6923 46.1638 83.1075 46.1638 74.5213V73.6834C44.4216 73.6834 42.7771 73.6916 41.1312 73.6807C39.6669 73.6712 38.5891 72.9961 37.8922 71.7162C37.7336 71.4247 37.621 71.1088 37.4868 70.8038C37.4868 70.3523 37.4868 69.8995 37.4868 69.448C37.7648 68.4922 38.3084 67.7261 39.0311 67.0347C49.3838 57.1361 59.7203 47.2199 70.0704 37.3186C70.549 36.8604 71.1238 36.5011 71.6539 36.0957C72.0159 36.0957 72.3766 36.0957 72.7385 36.0957C73.2375 36.4685 73.7798 36.7953 74.2272 37.2224C84.462 47.0138 94.6833 56.8202 104.919 66.6117C105.779 67.4333 106.587 68.2617 106.904 69.448V70.8038C106.855 70.9 106.794 70.9909 106.761 71.0925C106.194 72.748 104.955 73.655 103.194 73.6821C102.268 73.6957 101.34 73.6848 100.414 73.6862C99.6983 73.6862 98.9838 73.6862 98.2273 73.6862C98.2273 74.0509 98.2273 74.3207 98.2273 74.5891C98.2273 83.3787 98.23 92.1668 98.2259 100.956C98.2259 103.233 96.9989 104.815 94.8107 105.403C94.7253 105.426 94.648 105.477 94.5667 105.513V105.512Z" fill="#E2DED2"/>
</svg>
