<svg width="294" height="180" viewBox="0 0 294 180" fill="none" xmlns="http://www.w3.org/2000/svg">
<path d="M195.64 59.2154L195.805 59.0527H194.915H99.1503C98.723 59.0527 98.338 59.1951 98.0586 59.472C97.7789 59.7492 97.6341 60.1323 97.6341 60.5585V135.607C97.6341 136.033 97.7789 136.416 98.0586 136.693C98.338 136.97 98.723 137.112 99.1503 137.112H194.913C195.34 137.112 195.725 136.97 196.004 136.693C196.284 136.416 196.429 136.033 196.429 135.607V60.5604C196.429 60.1343 196.284 59.7511 196.004 59.474C195.897 59.3679 195.775 59.2816 195.64 59.2154ZM193.166 133.704V134.328H179.641L156.99 111.882L164.067 104.87L193.166 133.704ZM193.168 129.254L165.246 101.586C164.906 101.25 164.533 101.251 164.123 101.252C164.104 101.252 164.085 101.252 164.067 101.252C163.77 101.252 163.548 101.327 163.384 101.392C163.348 101.406 163.32 101.418 163.296 101.428C163.259 101.443 163.232 101.454 163.201 101.465C163.159 101.48 163.145 101.48 163.145 101.48H162.995L162.888 101.586L154.627 109.772L136.239 91.5504C135.636 90.9532 134.716 90.954 134.112 91.5498L134.111 91.5504L100.669 124.691V62.0643H193.168V129.254ZM100.669 134.33V129.143L135.292 94.8359L175.149 134.33H100.669ZM170.744 92.1765C176.698 92.1765 181.7 87.2256 181.7 81.3171C181.7 75.4086 176.698 70.4576 170.744 70.4576C164.789 70.4576 159.788 75.4086 159.788 81.3171C159.788 87.2256 164.789 92.1765 170.744 92.1765ZM170.744 73.6999C175.148 73.6999 178.665 77.1896 178.665 81.5458C178.665 85.9021 175.148 89.3917 170.744 89.3917C166.339 89.3917 162.822 85.9021 162.822 81.5458C162.822 77.1961 166.562 73.6999 170.744 73.6999ZM99.5172 55.9639H194.548C195.06 55.9639 195.523 55.8362 195.868 55.5773C196.221 55.3119 196.431 54.9206 196.431 54.4581C196.431 53.9957 196.221 53.6044 195.868 53.339C195.523 53.0801 195.06 52.9524 194.548 52.9524H99.5172C99.0049 52.9524 98.5419 53.0801 98.1972 53.339C97.844 53.6044 97.6341 53.9957 97.6341 54.4581C97.6341 54.9206 97.844 55.3119 98.1972 55.5773C98.5419 55.8362 99.0049 55.9639 99.5172 55.9639ZM99.5172 48.6457H194.548C195.06 48.6457 195.523 48.5179 195.868 48.259C196.221 47.9936 196.431 47.6023 196.431 47.1399C196.431 46.6775 196.221 46.2861 195.868 46.0208C195.523 45.7618 195.06 45.6341 194.548 45.6341H99.5172C99.0049 45.6341 98.5419 45.7618 98.1972 46.0208C97.844 46.2861 97.6341 46.6775 97.6341 47.1399C97.6341 47.6023 97.844 47.9936 98.1972 48.259C98.5419 48.5179 99.0049 48.6457 99.5172 48.6457Z" fill="#E2B34A" stroke="#E2B34A" stroke-width="0.731829"/>
</svg>
