<svg width="54" height="43" viewBox="0 0 54 43" fill="none" xmlns="http://www.w3.org/2000/svg">
<path fill-rule="evenodd" clip-rule="evenodd" d="M20.842 7.16295L16.1694 14.9545L24.9061 20.9737L30.0285 13.2683L20.842 7.16295ZM19.6969 14.1863L21.6734 10.8905L26.3893 14.0247L24.1514 17.1949L19.6969 14.1863Z" fill="#E2DED2"/>
<path fill-rule="evenodd" clip-rule="evenodd" d="M49.3344 0H4.66561L0 5.12018V37.8798L4.66561 43H49.3344L54 37.8798V5.12018L49.3344 0ZM2.62136 6.15765L5.81366 2.65432H48.1863L51.3786 6.15765V22.3194L41.1963 10.0317L26.1449 28.5L15.2141 20.9737L2.62136 29.6217V6.15765ZM41.2131 14.1814L51.3786 26.4488V36.8424L48.1863 40.3457H5.81366L2.62136 36.8424V32.8289L15.2122 24.1822L26.6462 32.055L41.2131 14.1814Z" fill="#E2DED2"/>
</svg>
