<svg width="294" height="180" viewBox="0 0 294 180" fill="none" xmlns="http://www.w3.org/2000/svg">
<path d="M154.792 110.328L170.737 84.6558C170.79 84.5706 170.832 84.4855 170.864 84.4003C173.619 79.9069 175.076 74.7641 175.076 69.5254C175.076 53.7986 162.291 41 146.581 41C130.87 41 118.085 53.7986 118.085 69.5254C118.085 74.7747 119.542 79.9069 122.297 84.4109C122.329 84.4855 122.372 84.5706 122.414 84.6452L137.784 110.402C125.85 112.095 118 117.004 118 122.966C118 130.345 130.541 136.138 146.538 136.138C162.536 136.138 175.076 130.356 175.076 122.966C175.076 116.982 166.865 111.957 154.792 110.338V110.328ZM125.158 82.9628C122.616 78.9167 121.276 74.2636 121.276 69.5254C121.276 55.5555 132.625 44.1943 146.581 44.1943C160.536 44.1943 171.885 55.5555 171.885 69.5254C171.885 74.2743 170.545 78.9167 168.003 82.9628C167.95 83.048 167.907 83.1332 167.875 83.229L151.027 110.349C150.772 110.732 150.729 110.828 150.41 111.339L146.155 118.186L125.297 83.2503C125.265 83.1545 125.212 83.0587 125.158 82.9628ZM146.538 132.922C131.604 132.922 121.191 127.662 121.191 122.945C121.191 118.665 129.03 114.629 139.571 113.383L144.751 122.061C145.038 122.541 145.549 122.839 146.102 122.839H146.113C146.666 122.839 147.176 122.551 147.464 122.083L152.909 113.32C163.621 114.48 171.864 118.612 171.864 122.945C171.864 127.662 161.451 132.922 146.517 132.922H146.538Z" fill="white"/>
<path d="M156.898 69.5251C156.898 63.8072 152.25 59.1542 146.538 59.1542C140.826 59.1542 136.178 63.8072 136.178 69.5251C136.178 75.2429 140.826 79.896 146.538 79.896C152.25 79.896 156.898 75.2429 156.898 69.5251ZM139.369 69.5251C139.369 65.5641 142.581 62.3485 146.538 62.3485C150.495 62.3485 153.707 65.5641 153.707 69.5251C153.707 73.4861 150.495 76.7017 146.538 76.7017C142.581 76.7017 139.369 73.4861 139.369 69.5251Z" fill="white"/>
<path d="M154.792 110.328L170.737 84.6558C170.79 84.5706 170.832 84.4855 170.864 84.4003C173.619 79.9069 175.076 74.7641 175.076 69.5254C175.076 53.7986 162.291 41 146.581 41C130.87 41 118.085 53.7986 118.085 69.5254C118.085 74.7747 119.542 79.9069 122.297 84.4109C122.329 84.4855 122.372 84.5706 122.414 84.6452L137.784 110.402C125.85 112.095 118 117.004 118 122.966C118 130.345 130.541 136.138 146.538 136.138C162.536 136.138 175.076 130.356 175.076 122.966C175.076 116.982 166.865 111.957 154.792 110.338V110.328ZM125.158 82.9628C122.616 78.9167 121.276 74.2636 121.276 69.5254C121.276 55.5555 132.625 44.1943 146.581 44.1943C160.536 44.1943 171.885 55.5555 171.885 69.5254C171.885 74.2743 170.545 78.9167 168.003 82.9628C167.95 83.048 167.907 83.1332 167.875 83.229L151.027 110.349C150.772 110.732 150.729 110.828 150.41 111.339L146.155 118.186L125.297 83.2503C125.265 83.1545 125.212 83.0587 125.158 82.9628ZM146.538 132.922C131.604 132.922 121.191 127.662 121.191 122.945C121.191 118.665 129.03 114.629 139.571 113.383L144.751 122.061C145.038 122.541 145.549 122.839 146.102 122.839H146.113C146.666 122.839 147.176 122.551 147.464 122.083L152.909 113.32C163.621 114.48 171.864 118.612 171.864 122.945C171.864 127.662 161.451 132.922 146.517 132.922H146.538Z" stroke="white" stroke-width="0.731829"/>
<path d="M156.898 69.5251C156.898 63.8072 152.25 59.1542 146.538 59.1542C140.826 59.1542 136.178 63.8072 136.178 69.5251C136.178 75.2429 140.826 79.896 146.538 79.896C152.25 79.896 156.898 75.2429 156.898 69.5251ZM139.369 69.5251C139.369 65.5641 142.581 62.3485 146.538 62.3485C150.495 62.3485 153.707 65.5641 153.707 69.5251C153.707 73.4861 150.495 76.7017 146.538 76.7017C142.581 76.7017 139.369 73.4861 139.369 69.5251Z" stroke="white" stroke-width="0.731829"/>
</svg>
