<svg width="45" height="58" viewBox="0 0 45 58" fill="none" xmlns="http://www.w3.org/2000/svg">
<path fill-rule="evenodd" clip-rule="evenodd" d="M22.5 10.95L12.219 21.8677L22.5 29.0206L32.7809 21.8677L22.5 10.95ZM22.5 25.5838L16.5224 21.4249L22.5 15.0771L28.4776 21.4249L22.5 25.5838Z" fill="#E2DED2"/>
<path fill-rule="evenodd" clip-rule="evenodd" d="M22.5 0C7.6696 0 0 12.1467 0 22.5394C0 25.3792 1.48289 28.9643 3.46583 32.5632C5.48462 36.2273 8.16024 40.1445 10.8123 43.7218C13.4684 47.3045 16.1215 50.5738 18.109 52.9458C19.1033 54.1325 19.9323 55.0962 20.5136 55.7642C20.8043 56.0982 21.0331 56.3583 21.1897 56.5355C21.268 56.6241 21.3283 56.692 21.3693 56.738L21.416 56.7905L21.4324 56.8088C21.4324 56.8088 21.4329 56.8093 22.5 55.8796L21.4324 56.8088L22.5 58L23.5672 56.8093L22.5 55.8796C23.5672 56.8093 23.5672 56.8093 23.5672 56.8093L23.5685 56.8078L23.584 56.7905L23.6307 56.738C23.6717 56.692 23.732 56.6241 23.8103 56.5355C23.9669 56.3583 24.1957 56.0982 24.4864 55.7642C25.0677 55.0962 25.8967 54.1325 26.891 52.9458C28.8785 50.5738 31.5316 47.3045 34.1876 43.7218C36.8398 40.1445 39.5154 36.2273 41.5342 32.5632C43.5171 28.9643 45 25.3792 45 22.5394C45 12.1467 37.3304 0 22.5 0ZM24.6952 51.1574C23.8099 52.214 23.0581 53.0906 22.5 53.7341C21.9419 53.0906 21.1901 52.214 20.3048 51.1574C18.3405 48.8131 15.7246 45.5892 13.1117 42.0648C10.4948 38.535 7.90146 34.7311 5.96851 31.2229C3.9997 27.6496 2.8481 24.6113 2.8481 22.5394C2.8481 13.2851 9.63058 2.80802 22.5 2.80802C35.3694 2.80802 42.1519 13.2851 42.1519 22.5394C42.1519 24.6113 41.0003 27.6496 39.0315 31.2229C37.0985 34.7311 34.5052 38.535 31.8883 42.0648C29.2754 45.5892 26.6595 48.8131 24.6952 51.1574Z" fill="#E2DED2"/>
</svg>
