<svg width="294" height="180" viewBox="0 0 294 180" fill="none" xmlns="http://www.w3.org/2000/svg">
<path d="M128.916 68.9297C128.133 68.9297 127.488 69.5541 127.488 70.3396V100.263C127.487 100.29 127.486 100.317 127.486 100.344C127.486 100.372 127.487 100.399 127.488 100.426V122.779C127.488 123.565 128.133 124.189 128.916 124.189H160.302C160.329 124.191 160.357 124.192 160.384 124.192H160.387C160.414 124.192 160.442 124.191 160.469 124.189H189.241C190.022 124.189 190.669 123.566 190.669 122.779V90.9614C190.669 90.9561 190.669 90.9507 190.669 90.9453C190.669 90.9399 190.669 90.9345 190.669 90.9292V70.3396C190.669 69.5541 190.025 68.9297 189.241 68.9297H167.823H148.331H128.916ZM187.813 71.7496V89.5353H169.251V85.5196C169.251 84.734 168.607 84.1096 167.823 84.1096C167.04 84.1096 166.395 84.734 166.395 85.5196V90.9453C166.395 91.7309 167.04 92.3553 167.823 92.3553H187.813V121.369H161.815V95.8271C161.815 95.0445 161.171 94.4172 160.387 94.4172H149.758V71.7496H166.395V75.7654C166.395 76.5509 167.04 77.1753 167.823 77.1753C168.607 77.1753 169.251 76.5509 169.251 75.7654V71.7496H187.813ZM146.9 71.7496V98.9342L130.344 98.9343V71.7496H146.9ZM149.325 101.354C149.592 101.099 149.758 100.741 149.758 100.342V97.2371H158.956V121.369H130.344V101.754H147.433H148.328C148.715 101.754 149.067 101.602 149.325 101.354ZM107.226 109.409C103.326 109.409 99.8341 111.161 97.5223 113.908L97.5392 58.0189C97.5392 58.0189 97.5392 58.0189 97.5392 58.0189C97.5415 52.7502 101.905 48.454 107.275 48.454C109.866 48.454 112.309 49.4532 114.155 51.2686C116.002 53.0837 117.013 55.4795 117.013 58.0188L116.97 113.958C114.729 111.27 111.366 109.523 107.592 109.416V109.409H107.226ZM197.489 134.183V134.185H197.855H197.858C198.638 134.185 199.286 133.561 199.286 132.775V59.8482C199.286 59.0656 198.642 58.4382 197.858 58.4382H119.871L119.871 58.0215C119.874 54.7242 118.56 51.6143 116.173 49.2699C113.786 46.926 110.628 45.6341 107.277 45.6341C100.343 45.6341 94.6882 51.184 94.6857 58.0186L94.6857 58.0187L94.666 120.924C94.6439 121.215 94.6341 121.507 94.6341 121.801C94.6341 128.635 100.286 134.185 107.226 134.185H107.376L107.378 134.183H197.489ZM119.869 61.2582H196.427V131.363H107.226C107.22 131.363 107.215 131.363 107.209 131.363C101.843 131.353 97.4924 127.061 97.4924 121.798C97.4924 116.53 101.854 112.234 107.228 112.234C112.603 112.234 116.964 116.53 116.964 121.798C116.964 122.584 117.608 123.208 118.392 123.208C119.173 123.208 119.82 122.584 119.82 121.798L119.869 61.2582Z" fill="#E2B34A" stroke="#E2B34A" stroke-width="0.731829"/>
</svg>
