<svg width="52" height="49" viewBox="0 0 52 49" fill="none" xmlns="http://www.w3.org/2000/svg">
<path fill-rule="evenodd" clip-rule="evenodd" d="M20.0304 11.9783V43.0858H45.4966V11.9783H20.0304ZM22.6047 21.1184V14.5902H31.4764V21.1184H25.2196V23.7303H36.1453V21.1184H34.0507V14.5902H42.9224V21.1184H40.0473V23.7303H42.9224V32.9468H41.8683V35.5587H42.9224V40.4739H34.0507V35.5587H40.0473V32.9468H29.3818V35.5587H31.4764V40.4739H22.6047V35.5587H25.7399V32.9468H22.6047V23.7303H23.1385V21.1184H22.6047Z" fill="#896337"/>
<path fill-rule="evenodd" clip-rule="evenodd" d="M8.09091 0L0 6.75331V42.3138L6.47003 49H52V6.87057H15.5704L8.09091 0ZM8.01039 3.44934L13.7872 8.75583V38.8359L8.03418 33.5512L2.57426 38.7596V7.98676L8.01039 3.44934ZM7.55019 46.3881L3.12707 41.8172L8.06712 37.1048L16.3614 44.7239V9.48246H49.4257V46.3881H7.55019Z" fill="#896337"/>
</svg>
