<svg width="293" height="180" viewBox="0 0 293 180" fill="none" xmlns="http://www.w3.org/2000/svg">
<path d="M128.916 69.9297C128.133 69.9297 127.488 70.5541 127.488 71.3396V101.263C127.487 101.29 127.486 101.317 127.486 101.344C127.486 101.372 127.487 101.399 127.488 101.426V123.779C127.488 124.565 128.133 125.189 128.916 125.189H160.302C160.329 125.191 160.357 125.192 160.384 125.192H160.387C160.414 125.192 160.442 125.191 160.469 125.189H189.241C190.022 125.189 190.669 124.566 190.669 123.779V91.9614C190.669 91.9561 190.669 91.9507 190.669 91.9453C190.669 91.9399 190.669 91.9345 190.669 91.9292V71.3396C190.669 70.5541 190.025 69.9297 189.241 69.9297H167.823H148.331H128.916ZM187.813 72.7496V90.5353H169.251V86.5196C169.251 85.734 168.607 85.1096 167.823 85.1096C167.04 85.1096 166.395 85.734 166.395 86.5196V91.9453C166.395 92.7309 167.04 93.3553 167.823 93.3553H187.813V122.369H161.815V96.8271C161.815 96.0445 161.171 95.4172 160.387 95.4172H149.758V72.7496H166.395V76.7654C166.395 77.5509 167.04 78.1753 167.823 78.1753C168.607 78.1753 169.251 77.5509 169.251 76.7654V72.7496H187.813ZM146.9 72.7496V99.9342L130.344 99.9343V72.7496H146.9ZM149.325 102.354C149.592 102.099 149.758 101.741 149.758 101.342V98.2371H158.956V122.369H130.344V102.754H147.433H148.328C148.715 102.754 149.067 102.602 149.325 102.354ZM107.226 110.409C103.326 110.409 99.8341 112.161 97.5223 114.908L97.5392 59.0189C97.5392 59.0189 97.5392 59.0189 97.5392 59.0189C97.5415 53.7502 101.905 49.454 107.275 49.454C109.866 49.454 112.309 50.4532 114.155 52.2686C116.002 54.0837 117.013 56.4795 117.013 59.0188L116.97 114.958C114.729 112.27 111.366 110.523 107.592 110.416V110.409H107.226ZM197.489 135.183V135.185H197.855H197.858C198.638 135.185 199.286 134.561 199.286 133.775V60.8482C199.286 60.0656 198.642 59.4382 197.858 59.4382H119.871L119.871 59.0215C119.874 55.7242 118.56 52.6143 116.173 50.2699C113.786 47.926 110.628 46.6341 107.277 46.6341C100.343 46.6341 94.6882 52.184 94.6857 59.0186L94.6857 59.0187L94.666 121.924C94.6439 122.215 94.6341 122.507 94.6341 122.801C94.6341 129.635 100.286 135.185 107.226 135.185H107.376L107.378 135.183H197.489ZM119.869 62.2582H196.427V132.363H107.226C107.22 132.363 107.215 132.363 107.209 132.363C101.843 132.353 97.4924 128.061 97.4924 122.798C97.4924 117.53 101.854 113.234 107.228 113.234C112.603 113.234 116.964 117.53 116.964 122.798C116.964 123.584 117.608 124.208 118.392 124.208C119.173 124.208 119.82 123.584 119.82 122.798L119.869 62.2582Z" fill="#F0EFE9" stroke="#F0EFE9" stroke-width="0.731829"/>
</svg>
