<svg width="293" height="180" viewBox="0 0 293 180" fill="none" xmlns="http://www.w3.org/2000/svg">
<path d="M105 47V132H190V47H105ZM187.563 49.4507V106.769H107.435V49.4507H187.563ZM107.435 129.551V109.22H187.563V129.551H107.435Z" fill="#F0EFE9"/>
<path d="M176.969 116.444H133.586C133.042 114.306 131.112 112.647 128.746 112.647C126.38 112.647 124.483 114.306 123.914 116.444H118.15C117.42 116.444 116.933 116.934 116.933 117.668C116.933 118.402 117.42 118.892 118.15 118.892H123.906C124.45 121.03 126.38 122.689 128.746 122.689C131.112 122.689 133.008 121.03 133.578 118.892H176.969C177.578 118.892 178.187 118.402 178.187 117.668C178.187 116.934 177.699 116.444 176.969 116.444ZM128.746 120.241C127.407 120.241 126.188 119.016 126.188 117.668C126.188 116.32 127.284 115.095 128.746 115.095C130.084 115.095 131.304 116.32 131.304 117.668C131.304 119.016 130.208 120.241 128.746 120.241Z" fill="#F0EFE9"/>
<path d="M133.251 97.9502C133.981 97.9502 134.713 97.7042 135.322 97.338L163.818 80.9254C165.156 80.0672 165.888 78.8428 165.888 77.2504C165.888 75.6579 165.158 74.3115 163.818 73.5754L135.322 57.1647C134.713 56.7986 133.983 56.5525 133.251 56.5525C130.938 56.5525 129.11 58.391 129.11 60.7177V93.785C129.11 96.1117 130.938 97.9502 133.251 97.9502ZM131.546 60.7157C131.546 59.6134 132.4 59.0012 133.251 59.0012C133.617 59.0012 133.86 59.1233 134.104 59.2473L162.479 75.6599C162.966 75.904 163.332 76.5181 163.332 77.1283C163.332 77.7385 162.966 78.2307 162.479 78.5968L134.104 95.1314C133.86 95.2535 133.496 95.3775 133.251 95.3775C132.398 95.3775 131.546 94.7653 131.546 93.663V60.7157Z" fill="#F0EFE9"/>
<path d="M105 47V132H190V47H105ZM187.563 49.4507V106.769H107.435V49.4507H187.563ZM107.435 129.551V109.22H187.563V129.551H107.435Z" stroke="#F0EFE9" stroke-width="0.664062"/>
<path d="M176.969 116.444H133.586C133.042 114.306 131.112 112.647 128.746 112.647C126.38 112.647 124.483 114.306 123.914 116.444H118.15C117.42 116.444 116.933 116.934 116.933 117.668C116.933 118.402 117.42 118.892 118.15 118.892H123.906C124.45 121.03 126.38 122.689 128.746 122.689C131.112 122.689 133.008 121.03 133.578 118.892H176.969C177.578 118.892 178.187 118.402 178.187 117.668C178.187 116.934 177.699 116.444 176.969 116.444ZM128.746 120.241C127.407 120.241 126.188 119.016 126.188 117.668C126.188 116.32 127.284 115.095 128.746 115.095C130.084 115.095 131.304 116.32 131.304 117.668C131.304 119.016 130.208 120.241 128.746 120.241Z" stroke="#F0EFE9" stroke-width="0.664062"/>
<path d="M133.251 97.9502C133.981 97.9502 134.713 97.7042 135.322 97.338L163.818 80.9254C165.156 80.0672 165.888 78.8428 165.888 77.2504C165.888 75.6579 165.158 74.3115 163.818 73.5754L135.322 57.1647C134.713 56.7986 133.983 56.5525 133.251 56.5525C130.938 56.5525 129.11 58.391 129.11 60.7177V93.785C129.11 96.1117 130.938 97.9502 133.251 97.9502ZM131.546 60.7157C131.546 59.6134 132.4 59.0012 133.251 59.0012C133.617 59.0012 133.86 59.1233 134.104 59.2473L162.479 75.6599C162.966 75.904 163.332 76.5181 163.332 77.1283C163.332 77.7385 162.966 78.2307 162.479 78.5968L134.104 95.1314C133.86 95.2535 133.496 95.3775 133.251 95.3775C132.398 95.3775 131.546 94.7653 131.546 93.663V60.7157Z" stroke="#F0EFE9" stroke-width="0.664062"/>
</svg>
