<svg width="210" height="271" viewBox="0 0 210 271" fill="none" xmlns="http://www.w3.org/2000/svg">
<path fill-rule="evenodd" clip-rule="evenodd" d="M105 0C35.7915 0 0 56.7544 0 105.313C0 118.582 6.92016 135.333 16.1739 152.149C25.5949 169.269 38.0811 187.572 50.4576 204.286C62.8526 221.026 75.2338 236.302 84.5086 247.385C89.1487 252.929 93.0176 257.432 95.7303 260.553C97.0867 262.114 98.1545 263.329 98.8854 264.157C99.2508 264.571 99.5321 264.888 99.7232 265.103L99.9415 265.349L100.018 265.434C100.018 265.434 100.02 265.436 105 261.093L100.018 265.434L105 271L109.98 265.436L105 261.093C109.98 265.436 109.98 265.436 109.98 265.436L109.986 265.429L110.059 265.349L110.277 265.103C110.468 264.888 110.749 264.571 111.115 264.157C111.846 263.329 112.913 262.114 114.27 260.553C116.982 257.432 120.851 252.929 125.491 247.385C134.766 236.302 147.147 221.026 159.542 204.286C171.919 187.572 184.405 169.269 193.826 152.149C203.08 135.333 210 118.582 210 105.313C210 56.7544 174.209 0 105 0Z" fill="#896337"/>
<path fill-rule="evenodd" clip-rule="evenodd" d="M152.978 102.175L105 51.1631L57.0222 102.175L105 135.596L152.978 102.175Z" fill="#E2DED2"/>
</svg>
