<svg width="475" height="189" viewBox="0 0 475 189" fill="none" xmlns="http://www.w3.org/2000/svg">
<g filter="url(#filter0_d_6_285)">
<path d="M149 100.5C149 51.6251 188.625 12 237.5 12C286.375 12 326 51.6251 326 100.5" fill="#E2B34A"/>
</g>
<path d="M56.1821 179V178.459C57.8881 178.459 59.0948 177.668 59.0948 174.797V150.58H56.8479C52.9365 150.58 50.2319 154.159 49.5245 158.611L48.942 158.528L50.2735 149.873H72.6597L73.8664 158.528L73.3255 158.611C72.5765 154.159 69.9967 150.58 66.0853 150.58H63.8384V174.797C63.8384 177.668 65.0451 178.459 66.7511 178.459V179H56.1821ZM88.9692 179.458C81.1881 179.499 74.0312 172.8 74.3225 164.062C74.5721 155.407 81.1465 149.54 88.3867 149.415C96.5422 149.207 103.45 156.073 103.241 164.769C103.075 173.383 96.5006 179.416 88.9692 179.458ZM79.4405 165.435C80.3559 172.842 84.8082 179.166 90.5504 178.542C95.7933 177.918 99.1221 171.677 98.1234 163.355C97.1664 155.49 92.8389 149.374 86.7223 150.331C81.7291 151.163 78.4419 157.529 79.4405 165.435ZM127.494 187.572C122.168 187.572 120.088 181.621 115.094 181.621C114.221 181.621 113.43 181.871 112.681 182.162L112.473 181.538L118.507 179.333C111.516 178.376 105.524 172.093 105.774 164.062C106.023 155.407 112.598 149.54 119.838 149.415C127.994 149.207 134.901 156.073 134.693 164.769C134.526 173.383 127.952 179.416 120.421 179.458H120.213L116.26 180.831C120.213 180.664 123.708 183.952 128.118 183.952C131.156 183.952 133.153 182.079 133.403 180.165H133.944C133.944 183.785 131.988 187.572 127.494 187.572ZM110.892 165.435C111.807 172.842 116.26 179.166 122.002 178.542C127.245 177.918 130.573 171.677 129.575 163.355C128.618 155.49 124.29 149.374 118.174 150.331C113.18 151.163 109.893 157.529 110.892 165.435ZM149.152 179.374C142.952 179.374 138.209 175.005 138.209 166.6V154.076C138.209 151.204 137.002 150.414 135.296 150.414V149.873H145.823V150.414C144.159 150.414 142.952 151.204 142.952 154.076V165.185C142.952 171.385 145.615 176.046 150.858 176.046C155.685 176.046 158.348 172.134 158.348 165.602L158.389 156.281C158.389 152.037 156.392 150.414 153.896 150.414V149.873H163.341V150.414C161.052 150.414 159.263 152.037 159.263 156.281V165.976C159.263 175.13 154.644 179.374 149.152 179.374ZM163.461 179V178.459C165.125 178.459 166.373 177.668 166.373 174.797V154.076C166.373 151.204 165.125 150.414 163.461 150.414V149.873H183.933L185.139 158.486L184.599 158.611C183.683 153.243 181.103 150.58 176.859 150.58H171.117V163.937H175.736C178.44 163.937 179.689 162.73 179.689 159.11H180.271V169.555H179.689C179.689 165.934 178.44 164.645 175.694 164.645H171.117V176.046C171.117 177.585 171.533 178.293 173.322 178.293H177.525C182.393 178.293 184.765 175.297 186.138 170.595L186.596 170.72L184.973 179H163.461ZM212.652 156.326C215.429 156.326 217.643 157.281 219.296 159.191C220.948 161.1 221.774 163.972 221.774 167.805C221.774 170.338 221.395 172.465 220.637 174.185C219.878 175.905 218.808 177.205 217.426 178.086C216.058 178.966 214.44 179.406 212.571 179.406C211.392 179.406 210.356 179.251 209.462 178.939C208.568 178.628 207.803 178.208 207.166 177.679C206.53 177.151 206.001 176.575 205.581 175.952H205.338C205.378 176.481 205.426 177.117 205.48 177.862C205.548 178.607 205.581 179.257 205.581 179.813V188.956H202.188V156.732H204.972L205.419 160.024H205.581C206.015 159.346 206.543 158.73 207.166 158.175C207.789 157.606 208.548 157.159 209.442 156.834C210.349 156.495 211.419 156.326 212.652 156.326ZM212.063 159.17C210.518 159.17 209.272 159.468 208.324 160.064C207.39 160.66 206.706 161.554 206.272 162.746C205.839 163.924 205.608 165.408 205.581 167.196V167.846C205.581 169.728 205.785 171.32 206.191 172.62C206.611 173.921 207.295 174.909 208.243 175.587C209.205 176.264 210.491 176.603 212.103 176.603C213.485 176.603 214.636 176.23 215.557 175.485C216.478 174.74 217.162 173.704 217.609 172.377C218.07 171.036 218.3 169.498 218.3 167.764C218.3 165.137 217.785 163.051 216.756 161.507C215.74 159.949 214.176 159.17 212.063 159.17ZM235.997 156.366C238.651 156.366 240.622 156.962 241.909 158.154C243.196 159.346 243.839 161.249 243.839 163.864V179H241.381L240.73 175.709H240.568C239.945 176.521 239.295 177.205 238.617 177.761C237.94 178.302 237.155 178.716 236.261 179C235.38 179.271 234.297 179.406 233.01 179.406C231.655 179.406 230.45 179.169 229.393 178.695C228.35 178.221 227.524 177.503 226.915 176.542C226.319 175.58 226.021 174.361 226.021 172.884C226.021 170.663 226.901 168.956 228.662 167.764C230.423 166.573 233.105 165.922 236.708 165.814L240.548 165.651V164.29C240.548 162.367 240.134 161.019 239.308 160.247C238.482 159.475 237.317 159.089 235.814 159.089C234.649 159.089 233.538 159.258 232.482 159.597C231.425 159.936 230.423 160.335 229.475 160.796L228.438 158.236C229.441 157.721 230.592 157.281 231.892 156.915C233.193 156.549 234.561 156.366 235.997 156.366ZM240.507 168.029L237.114 168.171C234.337 168.279 232.38 168.733 231.242 169.532C230.104 170.331 229.536 171.462 229.536 172.925C229.536 174.198 229.922 175.14 230.694 175.749C231.466 176.359 232.488 176.663 233.762 176.663C235.739 176.663 237.358 176.115 238.617 175.018C239.877 173.921 240.507 172.275 240.507 170.081V168.029ZM260.906 156.326C261.353 156.326 261.82 156.353 262.308 156.407C262.795 156.448 263.229 156.509 263.608 156.59L263.181 159.719C262.815 159.624 262.409 159.549 261.962 159.495C261.515 159.441 261.095 159.414 260.702 159.414C259.809 159.414 258.962 159.597 258.163 159.963C257.377 160.315 256.686 160.829 256.09 161.507C255.494 162.17 255.027 162.976 254.689 163.924C254.35 164.859 254.181 165.902 254.181 167.053V179H250.788V156.732H253.591L253.957 160.836H254.099C254.56 160.01 255.115 159.258 255.765 158.581C256.416 157.89 257.167 157.342 258.021 156.935C258.887 156.529 259.849 156.326 260.906 156.326ZM276.144 156.366C278.799 156.366 280.769 156.962 282.056 158.154C283.343 159.346 283.986 161.249 283.986 163.864V179H281.528L280.878 175.709H280.715C280.092 176.521 279.442 177.205 278.765 177.761C278.087 178.302 277.302 178.716 276.408 179C275.527 179.271 274.444 179.406 273.157 179.406C271.803 179.406 270.597 179.169 269.541 178.695C268.498 178.221 267.671 177.503 267.062 176.542C266.466 175.58 266.168 174.361 266.168 172.884C266.168 170.663 267.048 168.956 268.809 167.764C270.57 166.573 273.252 165.922 276.855 165.814L280.695 165.651V164.29C280.695 162.367 280.282 161.019 279.455 160.247C278.629 159.475 277.464 159.089 275.961 159.089C274.796 159.089 273.685 159.258 272.629 159.597C271.572 159.936 270.57 160.335 269.622 160.796L268.586 158.236C269.588 157.721 270.739 157.281 272.04 156.915C273.34 156.549 274.708 156.366 276.144 156.366ZM280.654 168.029L277.261 168.171C274.484 168.279 272.527 168.733 271.389 169.532C270.252 170.331 269.683 171.462 269.683 172.925C269.683 174.198 270.069 175.14 270.841 175.749C271.613 176.359 272.636 176.663 273.909 176.663C275.886 176.663 277.505 176.115 278.765 175.018C280.024 173.921 280.654 172.275 280.654 170.081V168.029ZM305.116 156.732V179H301.744V156.732H305.116ZM303.471 148.402C304.026 148.402 304.5 148.585 304.893 148.951C305.299 149.303 305.502 149.858 305.502 150.617C305.502 151.362 305.299 151.917 304.893 152.283C304.5 152.648 304.026 152.831 303.471 152.831C302.888 152.831 302.401 152.648 302.008 152.283C301.628 151.917 301.439 151.362 301.439 150.617C301.439 149.858 301.628 149.303 302.008 148.951C302.401 148.585 302.888 148.402 303.471 148.402ZM322.813 156.326C325.454 156.326 327.452 156.976 328.806 158.276C330.161 159.563 330.838 161.635 330.838 164.493V179H327.506V164.717C327.506 162.861 327.079 161.473 326.226 160.552C325.386 159.631 324.093 159.17 322.345 159.17C319.88 159.17 318.147 159.868 317.144 161.263C316.142 162.658 315.641 164.683 315.641 167.338V179H312.268V156.732H314.991L315.499 159.942H315.681C316.155 159.157 316.758 158.5 317.49 157.971C318.221 157.43 319.041 157.023 319.948 156.752C320.856 156.468 321.81 156.326 322.813 156.326ZM341.159 156.732V179H337.787V156.732H341.159ZM339.514 148.402C340.069 148.402 340.543 148.585 340.936 148.951C341.342 149.303 341.545 149.858 341.545 150.617C341.545 151.362 341.342 151.917 340.936 152.283C340.543 152.648 340.069 152.831 339.514 152.831C338.931 152.831 338.444 152.648 338.051 152.283C337.672 151.917 337.482 151.362 337.482 150.617C337.482 149.858 337.672 149.303 338.051 148.951C338.444 148.585 338.931 148.402 339.514 148.402ZM357.23 179.406C355.226 179.406 353.458 178.993 351.928 178.167C350.397 177.341 349.205 176.081 348.352 174.388C347.498 172.695 347.072 170.562 347.072 167.988C347.072 165.293 347.519 163.091 348.413 161.385C349.32 159.665 350.566 158.391 352.151 157.565C353.736 156.739 355.537 156.326 357.556 156.326C358.666 156.326 359.736 156.441 360.766 156.671C361.809 156.888 362.662 157.166 363.326 157.504L362.31 160.328C361.633 160.057 360.847 159.814 359.953 159.597C359.073 159.38 358.246 159.272 357.474 159.272C355.93 159.272 354.643 159.604 353.614 160.267C352.598 160.931 351.833 161.906 351.318 163.193C350.817 164.48 350.566 166.065 350.566 167.947C350.566 169.749 350.81 171.286 351.298 172.559C351.799 173.833 352.537 174.808 353.512 175.485C354.501 176.149 355.734 176.481 357.21 176.481C358.389 176.481 359.452 176.359 360.4 176.115C361.348 175.858 362.208 175.56 362.98 175.221V178.228C362.235 178.607 361.402 178.898 360.481 179.102C359.574 179.305 358.49 179.406 357.23 179.406ZM371.636 156.732V179H368.263V156.732H371.636ZM369.99 148.402C370.545 148.402 371.019 148.585 371.412 148.951C371.818 149.303 372.022 149.858 372.022 150.617C372.022 151.362 371.818 151.917 371.412 152.283C371.019 152.648 370.545 152.831 369.99 152.831C369.407 152.831 368.92 152.648 368.527 152.283C368.148 151.917 367.958 151.362 367.958 150.617C367.958 149.858 368.148 149.303 368.527 148.951C368.92 148.585 369.407 148.402 369.99 148.402ZM387.117 156.366C389.772 156.366 391.743 156.962 393.03 158.154C394.317 159.346 394.96 161.249 394.96 163.864V179H392.501L391.851 175.709H391.689C391.066 176.521 390.416 177.205 389.738 177.761C389.061 178.302 388.275 178.716 387.381 179C386.501 179.271 385.417 179.406 384.131 179.406C382.776 179.406 381.571 179.169 380.514 178.695C379.471 178.221 378.645 177.503 378.035 176.542C377.44 175.58 377.142 174.361 377.142 172.884C377.142 170.663 378.022 168.956 379.783 167.764C381.544 166.573 384.226 165.922 387.828 165.814L391.668 165.651V164.29C391.668 162.367 391.255 161.019 390.429 160.247C389.603 159.475 388.438 159.089 386.935 159.089C385.77 159.089 384.659 159.258 383.602 159.597C382.546 159.936 381.544 160.335 380.595 160.796L379.559 158.236C380.562 157.721 381.713 157.281 383.013 156.915C384.314 156.549 385.682 156.366 387.117 156.366ZM391.628 168.029L388.235 168.171C385.458 168.279 383.501 168.733 382.363 169.532C381.225 170.331 380.656 171.462 380.656 172.925C380.656 174.198 381.042 175.14 381.815 175.749C382.587 176.359 383.609 176.663 384.882 176.663C386.86 176.663 388.479 176.115 389.738 175.018C390.998 173.921 391.628 172.275 391.628 170.081V168.029ZM412.026 156.326C412.473 156.326 412.941 156.353 413.428 156.407C413.916 156.448 414.349 156.509 414.729 156.59L414.302 159.719C413.936 159.624 413.53 159.549 413.083 159.495C412.636 159.441 412.216 159.414 411.823 159.414C410.929 159.414 410.083 159.597 409.284 159.963C408.498 160.315 407.807 160.829 407.211 161.507C406.615 162.17 406.148 162.976 405.809 163.924C405.471 164.859 405.301 165.902 405.301 167.053V179H401.908V156.732H404.712L405.078 160.836H405.22C405.681 160.01 406.236 159.258 406.886 158.581C407.536 157.89 408.288 157.342 409.141 156.935C410.008 156.529 410.97 156.326 412.026 156.326ZM421.982 170.751H419.767L418.833 149.296H422.917L421.982 170.751ZM418.426 176.887C418.426 175.939 418.657 175.268 419.117 174.876C419.578 174.469 420.153 174.266 420.844 174.266C421.522 174.266 422.09 174.469 422.551 174.876C423.025 175.268 423.262 175.939 423.262 176.887C423.262 177.822 423.025 178.506 422.551 178.939C422.09 179.359 421.522 179.569 420.844 179.569C420.153 179.569 419.578 179.359 419.117 178.939C418.657 178.506 418.426 177.822 418.426 176.887Z" fill="white"/>
<defs>
<filter id="filter0_d_6_285" x="137.9" y="0.9" width="207.2" height="118.7" filterUnits="userSpaceOnUse" color-interpolation-filters="sRGB">
<feFlood flood-opacity="0" result="BackgroundImageFix"/>
<feColorMatrix in="SourceAlpha" type="matrix" values="0 0 0 0 0 0 0 0 0 0 0 0 0 0 0 0 0 0 127 0" result="hardAlpha"/>
<feOffset dx="4" dy="4"/>
<feGaussianBlur stdDeviation="7.55"/>
<feComposite in2="hardAlpha" operator="out"/>
<feColorMatrix type="matrix" values="0 0 0 0 0 0 0 0 0 0 0 0 0 0 0 0 0 0 0.25 0"/>
<feBlend mode="normal" in2="BackgroundImageFix" result="effect1_dropShadow_6_285"/>
<feBlend mode="normal" in="SourceGraphic" in2="effect1_dropShadow_6_285" result="shape"/>
</filter>
</defs>
</svg>
