<svg width="1322" height="401" viewBox="0 0 1322 401" fill="none" xmlns="http://www.w3.org/2000/svg">
<path d="M799.854 247.681C844.172 241.813 864.95 213.925 864.95 213.925C866.123 212.89 875.097 213.235 875.097 213.235C875.097 213.235 850.453 247.474 795.505 257.69C752.914 265.629 686.99 257.552 660.344 206.539C638.806 165.328 611.125 118.111 583.927 118.111H576.265V163.188C576.265 185.968 576.817 197.841 578.75 219.793H536.158C538.091 197.772 538.643 185.968 538.643 163.188V56.6049C538.643 33.8249 538.091 21.9516 536.158 0H596.077C647.159 0 691.96 10.4236 691.96 59.09C691.96 100.577 659.239 114.314 618.028 117.352C643.57 122.046 683.676 172.921 700.658 204.468C719.848 240.088 765.408 252.237 799.854 247.681ZM576.196 113.003H595.732C625.691 113.003 653.717 102.027 653.717 59.159C653.717 16.2912 625.691 5.31537 595.732 5.31537H576.196V113.003Z" fill="white"/>
<path d="M0 219.861C1.93285 197.91 2.48509 186.037 2.48509 163.257V56.6738C2.48509 33.8937 1.93285 22.0205 0 0.0688477H51.0134L172.507 208.333L173.059 208.61V56.6738C173.059 33.8937 172.231 22.0205 170.298 0.0688477H186.934C184.725 22.0895 184.173 33.8937 184.173 56.6738V163.257C184.173 186.037 184.725 197.91 186.934 219.861H135.645L14.4273 11.5969L13.8751 11.3208V163.257C13.8751 186.037 14.4273 197.91 16.3602 219.861H0Z" fill="white"/>
<path d="M207.091 188.799C207.091 156.355 242.296 147.588 269.771 142.894C293.379 138.752 307.116 133.851 307.116 116.524C307.116 98.0931 298.901 88.2218 282.955 88.2218C257.69 88.2218 250.235 104.72 242.573 114.039C232.701 126.948 214.546 124.187 211.509 107.412C229.94 94.7797 257.414 82.9755 287.097 82.9755C316.78 82.9755 339.56 93.6751 339.836 124.739V164.293C339.836 184.105 339.836 197.566 343.978 219.794H309.601C307.944 206.885 307.392 198.67 307.392 188.73C300.558 209.094 283.784 225.247 253.548 225.247C230.768 225.247 207.091 215.099 207.091 188.73M307.116 164.914V133.299C301.593 140.961 290.618 143.446 276.052 146.759C253.824 152.558 242.78 164.086 242.78 183.829C242.78 203.571 253.479 214.064 268.873 214.064C292.205 214.064 307.047 192.941 307.047 164.914" fill="white"/>
<path d="M362.616 182.518C370.003 168.228 390.367 170.99 393.404 188.592C394.508 204.538 404.104 220.208 428.609 220.208C447.593 220.208 456.083 208.956 456.083 194.943C456.083 180.102 446.212 174.096 415.425 158.702C390.159 146.07 369.795 136.405 369.795 115.006C369.795 91.6737 396.165 83.114 418.738 83.114C445.66 83.114 465.472 95.7465 476.447 116.939C468.785 128.191 453.115 126.258 448.973 111.693C445.108 97.6794 438.274 88.6364 419.29 88.6364C404.725 88.6364 394.854 94.435 394.854 105.963C394.854 118.872 406.934 126.051 432.751 138.131C460.777 151.316 482.177 160.704 482.177 186.245C482.177 209.854 461.054 225.524 427.229 225.524C393.404 225.524 369.519 210.958 362.685 182.656" fill="white"/>
<path d="M706.663 154.215C706.663 109.966 741.317 83.0443 788.809 83.0443C836.302 83.0443 870.956 109.966 870.956 154.215C870.956 198.463 836.095 225.385 788.809 225.385C741.524 225.385 706.663 198.463 706.663 154.215ZM834.991 154.215C834.991 112.727 819.321 88.2905 788.809 88.2905C758.298 88.2905 742.352 112.727 742.352 154.215C742.352 195.702 758.022 220.138 788.809 220.138C819.597 220.138 834.991 195.978 834.991 154.215Z" fill="white"/>
<path d="M889.456 154.215C889.456 108.585 921.348 83.0443 963.111 83.0443C997.488 83.0443 1016.95 102.304 1023.03 122.322C1014.81 134.403 997.764 131.089 995.003 115.488C993.07 104.513 987.893 88.2905 964.768 88.2905C937.017 88.2905 925.213 110.518 925.213 150.694C925.213 185.347 938.674 215.582 973.327 215.582C999.973 215.582 1017.02 196.323 1025.24 168.297H1029.66C1020.61 198.532 1002.73 225.454 961.799 225.454C920.864 225.454 889.525 200.189 889.525 154.284" fill="white"/>
<path d="M1046.91 188.799C1046.91 156.355 1082.12 147.588 1109.59 142.894C1133.2 138.752 1146.94 133.851 1146.94 116.524C1146.94 98.0931 1138.72 88.2218 1122.78 88.2218C1097.51 88.2218 1090.06 104.72 1082.4 114.039C1072.52 126.948 1054.37 124.187 1051.33 107.412C1069.76 94.7797 1097.24 82.9755 1126.92 82.9755C1156.6 82.9755 1179.38 93.6751 1179.66 124.739V164.293C1179.66 184.105 1179.66 197.566 1183.8 219.794H1149.42C1147.77 206.885 1147.22 198.67 1147.22 188.73C1140.31 209.094 1123.61 225.247 1093.37 225.247C1070.59 225.247 1046.91 215.099 1046.91 188.73M1146.94 164.914V133.299C1141.42 140.961 1130.44 143.446 1115.88 146.759C1093.65 152.558 1082.6 164.086 1082.6 183.829C1082.6 203.571 1093.3 214.064 1108.7 214.064C1132.03 214.064 1146.87 192.941 1146.87 164.914" fill="white"/>
<path d="M1202.44 182.518C1209.83 168.228 1230.19 170.99 1233.23 188.592C1234.33 204.538 1243.93 220.208 1268.43 220.208C1287.42 220.208 1295.91 208.956 1295.91 194.943C1295.91 180.102 1286.04 174.096 1255.25 158.702C1229.98 146.07 1209.62 136.405 1209.62 115.006C1209.62 91.6737 1235.99 83.114 1258.56 83.114C1285.48 83.114 1305.29 95.7465 1316.27 116.939C1308.61 128.191 1292.94 126.258 1288.8 111.693C1284.93 97.6794 1278.1 88.6364 1259.11 88.6364C1244.55 88.6364 1234.68 94.435 1234.68 105.963C1234.68 118.872 1246.76 126.051 1272.57 138.131C1300.6 151.316 1322 160.704 1322 186.245C1322 209.854 1300.88 225.524 1267.05 225.524C1233.23 225.524 1209.34 210.958 1202.51 182.656" fill="white"/>
<path d="M296.071 385.121V332.796H302.905V385.121H296.071Z" fill="white"/>
<path d="M330.034 385.121V332.796H336.868V379.184H364.135V385.121H330.034Z" fill="white"/>
<path d="M387.675 385.121V332.796H394.509V385.121H387.675ZM391.126 360.27V354.333H425.711V360.27H391.126ZM422.259 385.121V332.796H429.093V385.121H422.259Z" fill="white"/>
<path d="M452.218 385.121L472.513 332.796H480.245L500.47 385.121H492.877L480.314 350.122C479.692 348.396 479.14 346.809 478.588 345.221C478.036 343.702 477.552 342.184 477.069 340.665C476.586 339.146 476.103 337.628 475.62 335.971H477.138C476.724 337.49 476.241 339.008 475.758 340.458C475.274 341.908 474.722 343.495 474.17 345.152C473.618 346.809 472.996 348.465 472.375 350.122L459.535 385.121H452.287H452.218ZM462.021 369.727L464.23 363.79H488.942L491.013 369.727H462.021Z" fill="white"/>
<path d="M558.111 385.121V332.796H582.409C585.723 332.796 588.553 333.348 590.969 334.521C593.385 335.695 595.249 337.282 596.492 339.353C597.803 341.424 598.424 343.84 598.424 346.671C598.424 349.294 597.872 351.572 596.837 353.574C595.801 355.576 594.283 357.163 592.419 358.337C590.555 359.51 588.484 360.132 586.137 360.27V359.51C588.208 359.51 590.003 359.855 591.59 360.546C593.178 361.236 594.421 362.271 595.387 363.652C596.354 365.033 596.906 366.62 597.113 368.553L598.217 378.218C598.286 379.115 598.424 379.943 598.493 380.703C598.562 381.462 598.701 382.29 598.77 382.981C598.839 383.74 598.977 384.499 599.046 385.259H592.143C592.074 384.43 591.936 383.533 591.867 382.635C591.728 381.669 591.659 380.703 591.521 379.736C591.521 379.529 591.521 379.322 591.452 379.184C591.452 378.977 591.452 378.839 591.452 378.632L590.624 371.383C590.417 369.313 589.934 367.656 589.243 366.413C588.553 365.171 587.518 364.273 586.275 363.652C584.964 363.1 583.307 362.755 581.236 362.755H561.769V356.818H580.131C582.478 356.818 584.549 356.473 586.275 355.714C588.001 354.954 589.312 353.919 590.21 352.538C591.107 351.158 591.59 349.432 591.59 347.499C591.59 345.635 591.176 344.116 590.417 342.805C589.658 341.562 588.484 340.596 586.965 339.906C585.447 339.284 583.583 338.939 581.374 338.939H561.838L565.152 336.247V385.397H558.318L558.111 385.121Z" fill="white"/>
<path d="M621.343 385.121L641.637 332.796H649.369L669.595 385.121H662.001L649.438 350.122C648.817 348.396 648.264 346.809 647.712 345.221C647.16 343.702 646.677 342.184 646.193 340.665C645.71 339.146 645.227 337.628 644.744 335.971H646.262C645.848 337.49 645.365 339.008 644.882 340.458C644.399 341.908 643.846 343.495 643.294 345.152C642.742 346.809 642.121 348.465 641.499 350.122L628.66 385.121H621.412H621.343ZM631.145 369.727L633.354 363.79H658.067L660.138 369.727H631.145Z" fill="white"/>
<path d="M711.289 386.225C706.94 386.225 703.212 385.535 700.106 384.223C697 382.912 694.653 380.91 692.927 378.218C691.201 375.525 690.235 372.212 689.958 368.208H696.516C696.793 371.107 697.483 373.454 698.725 375.249C699.968 377.113 701.625 378.425 703.765 379.322C705.905 380.219 708.528 380.634 711.565 380.634C714.602 380.634 716.949 380.219 718.951 379.46C720.953 378.701 722.472 377.596 723.438 376.147C724.405 374.697 724.957 373.04 724.957 371.038C724.957 369.382 724.612 367.932 723.852 366.759C723.162 365.585 721.989 364.619 720.332 363.79C718.675 362.962 716.535 362.272 713.843 361.719L706.526 360.201C703.488 359.579 700.865 358.682 698.725 357.647C696.585 356.611 694.86 355.092 693.686 353.298C692.444 351.503 691.822 349.294 691.822 346.602C691.822 343.633 692.513 341.01 693.962 338.801C695.412 336.592 697.552 334.867 700.313 333.624C703.074 332.381 706.457 331.76 710.392 331.76C714.326 331.76 717.571 332.381 720.401 333.555C723.231 334.798 725.44 336.592 727.097 338.939C728.754 341.286 729.651 344.117 729.927 347.499H723.369C723.162 345.29 722.541 343.426 721.436 341.977C720.332 340.458 718.882 339.354 716.949 338.525C715.017 337.766 712.739 337.352 710.115 337.352C707.63 337.352 705.49 337.697 703.696 338.387C701.901 339.077 700.52 340.044 699.623 341.355C698.725 342.667 698.173 344.186 698.173 346.049C698.173 347.499 698.518 348.673 699.14 349.708C699.761 350.744 700.865 351.572 702.384 352.331C703.903 353.091 706.043 353.712 708.735 354.333L716.466 355.921C719.78 356.611 722.472 357.578 724.75 358.889C727.028 360.201 728.616 361.788 729.789 363.79C730.963 365.723 731.515 368.07 731.515 370.762C731.515 373.662 730.824 376.285 729.444 378.632C728.063 380.979 725.854 382.843 722.817 384.223C719.78 385.604 715.983 386.294 711.358 386.294L711.289 386.225Z" fill="white"/>
<path d="M752.155 385.121L772.45 332.796H780.181L800.407 385.121H792.814L780.25 350.122C779.629 348.396 779.077 346.809 778.525 345.221C777.972 343.702 777.489 342.184 777.006 340.665C776.523 339.146 776.04 337.628 775.556 335.971H777.075C776.661 337.49 776.178 339.008 775.694 340.458C775.211 341.908 774.659 343.495 774.107 345.152C773.554 346.809 772.933 348.465 772.312 350.122L759.472 385.121H752.224H752.155ZM761.888 369.727L764.097 363.79H788.81L790.881 369.727H761.888Z" fill="white"/>
<path d="M858.048 400.1V330.172H864.813V400.1H858.048Z" fill="white"/>
<path d="M926.457 385.121V332.796H950.755C954.069 332.796 956.899 333.348 959.315 334.521C961.731 335.695 963.595 337.282 964.838 339.353C966.149 341.424 966.77 343.84 966.77 346.671C966.77 349.294 966.218 351.572 965.183 353.574C964.147 355.576 962.629 357.163 960.765 358.337C958.901 359.51 956.83 360.132 954.483 360.27V359.51C956.554 359.51 958.349 359.855 959.936 360.546C961.524 361.236 962.767 362.271 963.733 363.652C964.7 365.033 965.252 366.62 965.459 368.553L966.563 378.218C966.632 379.115 966.77 379.943 966.839 380.703C966.909 381.462 967.047 382.29 967.116 382.981C967.185 383.74 967.323 384.499 967.392 385.259H960.489C960.42 384.43 960.282 383.533 960.213 382.635C960.075 381.669 960.006 380.703 959.867 379.736C959.867 379.529 959.867 379.322 959.798 379.184C959.798 378.977 959.798 378.839 959.798 378.632L958.97 371.383C958.763 369.313 958.28 367.656 957.589 366.413C956.899 365.171 955.864 364.273 954.621 363.652C953.309 363.1 951.653 362.755 949.582 362.755H930.115V356.818H948.477C950.824 356.818 952.895 356.473 954.621 355.714C956.347 354.954 957.658 353.919 958.556 352.538C959.453 351.158 959.936 349.432 959.936 347.499C959.936 345.635 959.522 344.116 958.763 342.805C958.004 341.562 956.83 340.596 955.311 339.906C953.793 339.284 951.929 338.939 949.72 338.939H930.184L933.498 336.247V385.397H926.664L926.457 385.121Z" fill="white"/>
<path d="M1006.6 386.018C1003.15 386.018 1000.11 385.466 997.558 384.224C995.004 383.05 993.071 381.324 991.759 379.115C990.448 376.906 989.757 374.214 989.757 371.108V367.173H996.591V370.694C996.591 372.696 996.936 374.421 997.765 375.802C998.524 377.183 999.629 378.218 1001.15 378.908C1002.67 379.599 1004.46 379.944 1006.67 379.944C1008.74 379.944 1010.47 379.599 1011.85 378.908C1013.23 378.218 1014.33 377.183 1015.02 375.802C1015.71 374.421 1016.13 372.696 1016.13 370.694V332.658H1022.96V370.901C1022.96 374.145 1022.34 376.906 1021.03 379.115C1019.79 381.324 1017.92 383.05 1015.44 384.155C1013.02 385.259 1009.98 385.88 1006.53 385.88L1006.6 386.018Z" fill="white"/>
</svg>
