<svg width="143" height="143" viewBox="0 0 143 143" fill="none" xmlns="http://www.w3.org/2000/svg">
<rect x="2.0698" y="2.0698" width="138.86" height="138.86" rx="18.6282" fill="#893837" stroke="#E2DED2" stroke-width="4.13959"/>
<path opacity="0.1" fill-rule="evenodd" clip-rule="evenodd" d="M0 20.698C0 9.26679 9.26678 0 20.698 0H122.118C133.549 0 142.816 9.26679 142.816 20.698V122.118C142.816 133.549 133.549 142.816 122.118 142.816H19.5361C18.837 142.816 18.1465 142.779 17.4663 142.708C7.64986 141.674 0 133.37 0 123.28V20.698ZM38.0468 43.4847C28.7902 44.5669 21.6059 52.438 21.6059 61.986V138.676H74.7275V89.5472C60.6554 78.5698 47.7857 63.7506 38.0468 43.4847ZM138.676 122.118C138.676 131.263 131.263 138.676 122.118 138.676H78.8671V92.6436C98.6638 106.839 120.343 113.912 138.676 118.265V122.118ZM42.5921 43.3578C51.3341 60.9538 62.5126 74.1763 74.7275 84.2418V61.986C74.7275 51.698 66.3873 43.3578 56.0993 43.3578H42.5921ZM78.8671 61.986C78.8671 49.4117 68.6736 39.2182 56.0993 39.2182H40.6182C35.9475 29.006 32.0648 17.3853 29.2238 4.13959H81.7862C83.3556 19.4679 88.8673 32.7242 98.3699 42.6044C107.969 52.5846 121.483 58.9568 138.676 60.6468V114.008C120.037 109.513 98.3397 102.191 78.8671 87.5055V61.986ZM17.4663 61.986C17.4663 50.7761 25.5669 41.4592 36.2347 39.5685C31.606 29.174 27.7829 17.4283 24.9921 4.13959H20.698C11.553 4.13959 4.13959 11.553 4.13959 20.698V123.28C4.13959 131.081 9.94185 137.527 17.4663 138.538V61.986ZM138.676 20.698C138.676 11.553 131.263 4.13959 122.118 4.13959H85.9483C87.4981 18.5468 92.6957 30.7329 101.354 39.7348C110.089 48.8177 122.501 54.819 138.676 56.4865V20.698Z" fill="#E2DED2"/>
<rect x="2.0698" y="2.0698" width="138.86" height="138.86" rx="18.6282" stroke="#E2DED2" stroke-width="4.13959"/>
<g clip-path="url(#clip0_405_8858)">
<path d="M64.8835 22.3878C65.7512 20.8839 66.9068 19.5657 68.2841 18.5085C69.6614 17.4512 71.2334 16.6757 72.9105 16.2261C74.5876 15.7766 76.3368 15.6618 78.0583 15.8885C79.7797 16.1151 81.4396 16.6786 82.9433 17.5468L110.926 33.7031C113.962 35.4556 116.177 38.342 117.085 41.7276C117.993 45.1132 117.519 48.7208 115.767 51.757L87.467 100.772C86.8822 101.783 85.9201 102.52 84.7921 102.822C83.6641 103.124 82.4624 102.965 81.451 102.382L80.1761 101.647L73.5785 113.074C73.2894 113.576 72.9043 114.016 72.4451 114.369C71.9859 114.721 71.4617 114.98 70.9024 115.13C70.3432 115.28 69.7598 115.319 69.1857 115.243C68.6116 115.168 68.058 114.98 67.5566 114.69L34.4862 95.5903C33.985 95.3008 33.5458 94.9153 33.1936 94.4559C32.8414 93.9965 32.5831 93.4722 32.4337 92.9129C32.2842 92.3537 32.2463 91.7705 32.3223 91.1966C32.3983 90.6228 32.5866 90.0695 32.8765 89.5685L39.4741 78.1416L38.1992 77.4072C37.1885 76.8224 36.4513 75.8603 36.1495 74.7323C35.8476 73.6043 36.0059 72.4026 36.5895 71.3912L64.8835 22.3878ZM72.5445 97.2412L47.1057 82.5537L42.7112 90.1677L68.15 104.855L72.5445 97.2412ZM82.0385 92.5471L108.135 47.3507C108.718 46.3386 108.876 45.1364 108.573 44.0083C108.27 42.8802 107.531 41.9185 106.52 41.3347L78.537 25.1785C78.0359 24.8886 77.4827 24.7003 76.9088 24.6243C76.335 24.5483 75.7518 24.5861 75.1925 24.7356C74.6333 24.8851 74.109 25.1433 73.6496 25.4955C73.1902 25.8477 72.8047 26.287 72.5151 26.7882L46.4242 71.9846L47.5346 72.625L47.6991 72.7131L80.7695 91.8068L80.9281 91.9067L82.0385 92.5471ZM30.8438 124.437C29.6751 124.437 28.5544 124.901 27.7281 125.727C26.9017 126.553 26.4375 127.674 26.4375 128.843C26.4375 130.011 26.9017 131.132 27.7281 131.959C28.5544 132.785 29.6751 133.249 30.8438 133.249H110.156C111.325 133.249 112.446 132.785 113.272 131.959C114.098 131.132 114.562 130.011 114.562 128.843C114.562 127.674 114.098 126.553 113.272 125.727C112.446 124.901 111.325 124.437 110.156 124.437H30.8438Z" fill="#E2DED2"/>
</g>
<defs>
<clipPath id="clip0_405_8858">
<rect width="139" height="139" fill="white" transform="translate(2 4)"/>
</clipPath>
</defs>
</svg>
