<svg width="661" height="203" viewBox="0 0 661 203" fill="none" xmlns="http://www.w3.org/2000/svg">
<path d="M1.78684 155.965V150.021H33.0318V155.965H20.9336V189.209H13.9114V155.965H1.78684ZM60.4422 189.735C57.0231 189.735 53.946 188.937 51.2107 187.342C48.493 185.746 46.3451 183.449 44.7671 180.451C43.2066 177.453 42.4263 173.85 42.4263 169.641C42.4263 165.416 43.2066 161.804 44.7671 158.806C46.3451 155.79 48.493 153.484 51.2107 151.889C53.946 150.293 57.0231 149.495 60.4422 149.495C63.8788 149.495 66.9472 150.293 69.6473 151.889C72.3475 153.484 74.4866 155.79 76.0647 158.806C77.6427 161.804 78.4317 165.416 78.4317 169.641C78.4317 173.85 77.6427 177.453 76.0647 180.451C74.4866 183.449 72.3475 185.746 69.6473 187.342C66.9472 188.937 63.8788 189.735 60.4422 189.735ZM60.4422 183.37C62.5637 183.37 64.4398 182.844 66.0705 181.792C67.7011 180.74 68.9811 179.197 69.9104 177.163C70.8396 175.112 71.3043 172.605 71.3043 169.641C71.3043 166.661 70.8396 164.145 69.9104 162.093C68.9811 160.042 67.7011 158.49 66.0705 157.438C64.4398 156.386 62.5637 155.86 60.4422 155.86C58.3206 155.86 56.4357 156.386 54.7876 157.438C53.1569 158.49 51.877 160.042 50.9477 162.093C50.0184 164.145 49.5538 166.661 49.5538 169.641C49.5538 172.605 50.0184 175.112 50.9477 177.163C51.877 179.197 53.1569 180.74 54.7876 181.792C56.4357 182.844 58.3206 183.37 60.4422 183.37ZM105.816 176.059H112.233L116.047 180.977L118.729 184.186L125.278 192.575H118.387L113.969 186.973L112.049 184.264L105.816 176.059ZM108.235 189.735C104.816 189.735 101.739 188.937 99.0039 187.342C96.2862 185.746 94.1384 183.449 92.5603 180.451C90.9998 177.453 90.2196 173.85 90.2196 169.641C90.2196 165.416 90.9998 161.804 92.5603 158.806C94.1384 155.79 96.2862 153.484 99.0039 151.889C101.739 150.293 104.816 149.495 108.235 149.495C111.672 149.495 114.74 150.293 117.441 151.889C120.141 153.484 122.28 155.79 123.858 158.806C125.436 161.804 126.225 165.416 126.225 169.641C126.225 173.85 125.436 177.453 123.858 180.451C122.28 183.449 120.141 185.746 117.441 187.342C114.74 188.937 111.672 189.735 108.235 189.735ZM108.235 183.37C110.357 183.37 112.233 182.844 113.864 181.792C115.494 180.74 116.774 179.197 117.704 177.163C118.633 175.112 119.098 172.605 119.098 169.641C119.098 166.661 118.633 164.145 117.704 162.093C116.774 160.042 115.494 158.49 113.864 157.438C112.233 156.386 110.357 155.86 108.235 155.86C106.114 155.86 104.229 156.386 102.581 157.438C100.95 158.49 99.6702 160.042 98.7409 162.093C97.8117 164.145 97.347 166.661 97.347 169.641C97.347 172.605 97.8117 175.112 98.7409 177.163C99.6702 179.197 100.95 180.74 102.581 181.792C104.229 182.844 106.114 183.37 108.235 183.37ZM163.761 150.021H170.836V175.612C170.836 178.417 170.178 180.889 168.863 183.028C167.548 185.15 165.698 186.816 163.314 188.025C160.929 189.218 158.141 189.814 154.95 189.814C151.759 189.814 148.971 189.218 146.587 188.025C144.202 186.816 142.344 185.15 141.011 183.028C139.696 180.889 139.039 178.417 139.039 175.612V150.021H146.14V175.033C146.14 176.681 146.499 178.136 147.218 179.399C147.937 180.661 148.954 181.661 150.269 182.397C151.601 183.116 153.162 183.475 154.95 183.475C156.739 183.475 158.29 183.116 159.606 182.397C160.921 181.661 161.937 180.661 162.656 179.399C163.393 178.136 163.761 176.681 163.761 175.033V150.021ZM184.623 189.209V150.021H210.134V155.965H191.724V166.485H208.766V172.35H191.724V183.265H210.239V189.209H184.623ZM242.862 189.209V150.021H257.564C260.58 150.021 263.105 150.582 265.139 151.704C267.19 152.827 268.742 154.37 269.794 156.333C270.846 158.297 271.372 160.524 271.372 163.014C271.372 165.521 270.837 167.757 269.768 169.72C268.716 171.667 267.155 173.201 265.086 174.323C263.017 175.428 260.475 175.98 257.459 175.98H247.728V170.141H256.486C258.257 170.141 259.703 169.843 260.826 169.247C261.965 168.633 262.798 167.792 263.324 166.722C263.868 165.635 264.139 164.399 264.139 163.014C264.139 161.611 263.868 160.384 263.324 159.332C262.798 158.262 261.965 157.438 260.826 156.859C259.703 156.263 258.248 155.965 256.46 155.965H249.963V189.209H242.862ZM284.291 189.209H276.69L290.524 150.021H299.256L313.064 189.209H305.489L295.021 158.069H294.706L284.291 189.209ZM284.554 173.85H305.2V179.53H284.554V173.85ZM324.299 189.209V150.021H339.001C342.017 150.021 344.542 150.547 346.576 151.599C348.627 152.651 350.179 154.124 351.231 156.018C352.283 157.894 352.809 160.077 352.809 162.567C352.809 165.074 352.274 167.248 351.205 169.089C350.153 170.93 348.592 172.35 346.523 173.35C344.454 174.349 341.912 174.849 338.896 174.849H328.455V168.984H337.923C339.694 168.984 341.14 168.738 342.262 168.247C343.402 167.757 344.235 167.038 344.761 166.091C345.304 165.127 345.576 163.952 345.576 162.567C345.576 161.181 345.304 159.998 344.761 159.016C344.217 158.017 343.385 157.263 342.262 156.754C341.14 156.228 339.685 155.965 337.897 155.965H331.4V189.209H324.299ZM346.313 189.209L336.818 171.43H344.551L354.255 189.209H346.313ZM370.462 189.209H362.861L376.695 150.021H385.427L399.234 189.209H391.66L381.192 158.069H380.877L370.462 189.209ZM370.725 173.85H391.371V179.53H370.725V173.85ZM437.013 150.021V189.209H429.911V150.021H437.013ZM483.017 150.021V189.209H476.653L458.216 162.514H457.874V189.209H450.773V150.021H457.138L475.574 176.716H475.916V150.021H483.017ZM503.879 150.021V189.209H496.778V150.021H503.879ZM534.603 189.735C531.166 189.735 528.089 188.937 525.372 187.342C522.671 185.746 520.541 183.449 518.981 180.451C517.438 177.453 516.666 173.85 516.666 169.641C516.666 165.416 517.446 161.804 519.007 158.806C520.585 155.79 522.724 153.484 525.424 151.889C528.142 150.293 531.202 149.495 534.603 149.495C536.76 149.495 538.776 149.802 540.652 150.416C542.546 151.029 544.229 151.932 545.702 153.125C547.175 154.299 548.376 155.746 549.305 157.464C550.252 159.165 550.874 161.103 551.172 163.277H544.019C543.826 162.084 543.449 161.032 542.888 160.121C542.344 159.209 541.66 158.437 540.836 157.806C540.03 157.157 539.109 156.675 538.075 156.36C537.04 156.027 535.927 155.86 534.735 155.86C532.595 155.86 530.702 156.395 529.054 157.464C527.406 158.516 526.117 160.077 525.188 162.146C524.258 164.197 523.794 166.696 523.794 169.641C523.794 172.622 524.258 175.138 525.188 177.19C526.134 179.224 527.423 180.767 529.054 181.819C530.702 182.853 532.587 183.37 534.708 183.37C535.883 183.37 536.979 183.221 537.996 182.923C539.013 182.608 539.933 182.143 540.757 181.529C541.599 180.898 542.292 180.144 542.835 179.267C543.396 178.373 543.791 177.347 544.019 176.19H551.172C550.909 178.066 550.331 179.828 549.437 181.477C548.56 183.107 547.403 184.545 545.965 185.79C544.545 187.017 542.879 187.982 540.968 188.683C539.057 189.384 536.935 189.735 534.603 189.735ZM570.903 150.021V189.209H563.802V150.021H570.903ZM589.713 189.209H582.112L595.946 150.021H604.678L618.486 189.209H610.911L600.444 158.069H600.128L589.713 189.209ZM589.976 173.85H610.622V179.53H589.976V173.85ZM629.721 189.209V150.021H644.423C647.439 150.021 649.964 150.547 651.998 151.599C654.049 152.651 655.601 154.124 656.653 156.018C657.705 157.894 658.231 160.077 658.231 162.567C658.231 165.074 657.696 167.248 656.627 169.089C655.575 170.93 654.014 172.35 651.945 173.35C649.876 174.349 647.334 174.849 644.318 174.849H633.877V168.984H643.345C645.116 168.984 646.563 168.738 647.685 168.247C648.824 167.757 649.657 167.038 650.183 166.091C650.727 165.127 650.999 163.952 650.999 162.567C650.999 161.181 650.727 159.998 650.183 159.016C649.64 158.017 648.807 157.263 647.685 156.754C646.563 156.228 645.107 155.965 643.319 155.965H636.823V189.209H629.721ZM651.735 189.209L642.24 171.43H649.973L659.678 189.209H651.735Z" fill="#896337"/>
<g opacity="0.5">
<circle cx="329.275" cy="54.6871" r="28.7828" fill="#896337"/>
<circle cx="329.274" cy="54.6863" r="38.7662" stroke="#896337" stroke-width="10.7348"/>
<circle cx="329.277" cy="54.6873" r="52.8982" stroke="#896337" stroke-width="3.57827"/>
</g>
</svg>
