<svg width="673" height="322" viewBox="0 0 673 322" fill="none" xmlns="http://www.w3.org/2000/svg">
<path d="M460.571 117.745C459.837 118.521 459.823 119.989 459.753 121.015C461.319 146.788 457.744 174.861 459.753 200.371C460.71 212.578 467.929 217.442 479.568 218.315C503.152 220.089 519.018 212.08 525.793 188.967C528.052 181.277 528.856 168.529 531.669 162.127C532.888 159.356 536.2 158.885 538.486 160.644C540.135 162.737 538.555 171.632 538.431 174.556C537.862 188.302 537.752 202.394 536.532 216.084C536.227 219.534 535.687 224.149 531.96 225.368L418.891 225.52C416.009 223.539 416.383 220.518 419.667 219.423C426.692 217.109 438.802 218.952 438.414 207.936L438.331 22.2873C437.472 12.172 423.643 15.4699 418.42 12.0473C415.939 10.4261 416.812 7.2807 419.473 6.46317L524.297 6.15833C527.442 6.00591 530.99 8.43079 531.475 11.5624C532.902 20.8878 532.348 32.7074 532.777 42.3653C532.957 46.5361 533.221 50.7485 533.373 54.9886C533.484 57.9262 535.313 65.9491 533.124 67.9028C530.934 69.8566 527.512 68.9698 526.431 66.3509C524.463 61.5981 524.172 51.4275 522.662 45.58C516.316 21.1233 499.591 11.3407 474.649 13.821C466.363 14.6524 460.807 17.9918 459.864 26.7214L460.072 105.038C460.613 106.285 461.222 107.241 462.636 107.519C465.85 108.142 477.822 107.865 481.522 107.56C488.284 106.978 492.649 103.375 495.032 97.1677C497.111 91.7637 497.693 79.5284 500.145 75.8426C502.903 71.7134 508.293 74.8449 507.628 79.5007C506.2 101.519 509.457 125.768 507.628 147.522C507.323 151.166 505.411 154.52 501.309 152.538C497.208 150.557 497.79 125.463 489.309 119.213C484.515 115.68 470.465 115.666 464.479 116.317C463.509 116.428 461.167 117.107 460.571 117.758V117.745Z" fill="#E2DED2"/>
<path d="M643.99 15.7762C643.006 15.0695 641.856 15.0695 640.706 14.9725C631.754 14.2104 608.67 14.0857 600.591 16.4413C578.449 22.8984 574.957 48.6577 568.68 67.4332C561.751 71.4793 561.488 66.3801 561.724 60.6297C562.333 45.3875 564.426 22.8569 566.823 7.83645C569.04 -6.02004 574.458 2.23843 581.885 4.58017C584.144 5.30071 587.386 5.97968 589.728 6.17367C613.686 8.12744 640.872 3.94278 664.622 6.15982C668.502 6.52009 670.968 7.71174 670.539 12.0904L580.86 214.215C581.22 216.28 582.813 216.82 584.67 217.042C595.478 218.33 623.953 217.79 634.207 214.963C650.197 210.571 656.003 197.171 659.564 182.414C661.116 175.985 661.865 165.232 663.957 159.745C664.996 157.002 667.851 155.588 670.58 156.918C672.368 157.791 671.938 161.976 671.855 163.874C671.107 183.052 668.834 202.298 667.781 221.476C666.409 224.219 663.985 225.924 660.853 225.868L558.218 225.259C554.754 223.915 555.059 220.797 555.724 217.638L644.502 20.044L644.004 15.7762H643.99Z" fill="#E2DED2"/>
<path d="M400.143 67.7249C399.326 66.8935 396.762 48.312 395.764 44.737C391.995 31.1715 382.836 18.3404 368.536 14.6961C363.091 13.3105 351.77 11.6061 351.521 19.6983L351.604 209.116C351.368 220.091 376.823 216.447 378.915 220.811C379.649 222.336 379.594 224.719 377.82 225.384L302.884 225.273C300.82 222.28 301.513 220.188 304.949 219.218C313.582 216.779 329.503 219.523 330.071 207.218L330.14 21.0008C329.918 11.0519 316.713 13.0195 310.214 15.5275C295.402 21.2502 288.044 34.3308 284.649 49.1156C283.596 53.6744 283.111 63.4155 281.545 66.7827C280.215 69.6509 275.088 69.4985 274.271 66.8242C273.259 63.4709 274.673 57.2771 274.811 53.7576C275.379 39.2498 275.268 23.3703 276.682 9.05653C277.86 -2.8739 285.702 2.94582 293.005 5.30142C321.494 5.4677 353.1 8.18357 381.465 6.24366C384.264 6.04967 387.852 5.41228 390.568 4.65017C396.568 2.97354 402.831 -2.41664 404.411 7.79559C405.783 16.6083 405.215 27.6519 405.672 36.7418C406.074 44.9587 406.808 53.0093 406.891 61.3232C406.905 63.4294 408.166 65.3 406.822 67.4893C405.852 69.3738 401.349 68.9858 400.143 67.7526V67.7249Z" fill="#E2DED2"/>
<path d="M90.5755 225.064C89.5086 224.011 89.5779 221.087 90.8526 220.131C95.3699 216.792 110.252 221.877 108.062 209.767L94.8572 155.629C92.9311 152.29 90.8526 150.655 86.9867 150.281C75.4581 149.2 62.2251 151.098 50.5026 150.35C47.6204 151.015 45.1539 153.038 43.9207 155.726C40.7753 170.553 34.5815 186.446 32.1704 201.259C31.0065 208.436 31.2975 215.545 39.4312 217.983C42.2718 218.829 50.8628 218.732 51.4171 221.766C52.0268 225.133 50.1423 225.632 47.3433 225.882C36.5491 226.824 15.2655 226.852 4.49902 225.882C2.90552 225.743 0.702345 225.632 0.411359 223.637C-0.350748 218.468 7.3396 218.898 10.8591 217.706C17.6627 215.392 19.7134 210.64 22.0136 204.307L72.4512 4.2749C75.1394 1.62831 78.9222 3.74835 79.9199 6.93534L130.039 207.3C132.187 212.995 134.21 215.974 140.251 217.859C143.008 218.718 148.149 218.621 149.867 220.824C151.821 223.332 150.2 225.48 147.401 225.882C130.066 224.718 110.972 227.323 93.8595 225.882C92.8757 225.799 91.2822 225.771 90.5755 225.078V225.064ZM70.8716 54.0612H68.4328L48.4241 135.066C47.9807 138.614 47.8144 140.65 51.8743 141.371C57.8881 142.438 78.5619 142.175 85.0745 141.523C86.9451 141.343 90.1044 140.72 90.2984 138.544L70.8716 54.0751V54.0612Z" fill="#E2DED2"/>
<path d="M167.34 225.064C166.328 224.053 166.37 221.379 167.354 220.339C174.531 216.695 187.501 219.73 187.944 208.534L187.972 24.7273C188.332 13.2957 177.774 15.1248 170.194 12.9216C165.123 11.4528 164.943 6.64462 170.61 6.15964C189.011 4.59386 209.755 7.26816 228.391 6.32592C232.507 7.61457 232.535 11.7022 228.364 12.9632C220.646 15.2911 210.475 12.0902 209.339 23.508L209.491 202.09C212.055 221.198 237.412 221.67 250.562 213.286C260.539 206.926 265.25 195.924 268.049 184.839C269.85 177.717 270.626 165.08 273.19 159.135C274.866 155.242 280.52 155.74 281.032 160.119L277 220.228C276.086 223.79 274.367 225.439 270.668 225.854L170.596 225.882C169.612 225.799 168.019 225.771 167.312 225.078L167.34 225.064Z" fill="#E2DED2"/>
<path d="M15.1625 321.863C12.1547 321.863 9.51145 321.157 7.23279 319.744C4.96932 318.331 3.19956 316.326 1.92351 313.728C0.662656 311.116 0.0322266 308.024 0.0322266 304.454C0.0322266 300.869 0.662656 297.77 1.92351 295.157C3.19956 292.545 4.95413 290.532 7.18722 289.119C9.42031 287.706 11.9876 287 14.8891 287C16.6816 287 18.3527 287.266 19.9021 287.797C21.4516 288.329 22.834 289.089 24.0493 290.076C25.2646 291.063 26.2748 292.233 27.0799 293.585C27.9002 294.937 28.4699 296.433 28.7889 298.074H24.5506C24.186 296.95 23.7075 295.947 23.1151 295.066C22.5378 294.17 21.839 293.41 21.0187 292.788C20.1984 292.15 19.2793 291.663 18.2615 291.329C17.2437 290.995 16.1196 290.828 14.8891 290.828C12.8839 290.828 11.0533 291.352 9.39752 292.4C7.75688 293.433 6.44286 294.967 5.45544 297.003C4.48321 299.024 3.99709 301.507 3.99709 304.454C3.99709 307.386 4.4908 309.862 5.47822 311.883C6.46564 313.903 7.80246 315.437 9.48867 316.486C11.1749 317.519 13.0662 318.035 15.1625 318.035C17.107 318.035 18.816 317.617 20.2895 316.782C21.763 315.946 22.9176 314.769 23.7531 313.25C24.5886 311.716 25.0063 309.908 25.0063 307.827L26.2824 308.1H16.074V304.454H29.0168V308.1C29.0168 310.895 28.4243 313.326 27.2394 315.392C26.0545 317.443 24.4139 319.038 22.3175 320.177C20.2363 321.301 17.8513 321.863 15.1625 321.863Z" fill="#E2DED2"/>
<path d="M57.0789 321.408H52.7495L65.2365 287.456H69.4749L81.9163 321.408H77.6325L67.4696 292.833H67.1962L57.0789 321.408ZM58.674 308.146H76.0374V311.792H58.674V308.146Z" fill="#E2DED2"/>
<path d="M107.882 287.456H112.804L124.334 315.62H124.744L136.274 287.456H141.356V321.408H137.322V295.613H137.003L126.316 321.408H122.625L112.075 295.613H111.756V321.408H107.882V287.456Z" fill="#E2DED2"/>
<path d="M171.674 321.408H167.344L179.831 287.456H184.07L196.511 321.408H192.227L182.064 292.833H181.791L171.674 321.408ZM173.269 308.146H190.632V311.792H173.269V308.146Z" fill="#E2DED2"/>
<path d="M256.281 321.408V287.456H267.766C270.424 287.456 272.596 287.911 274.283 288.823C275.984 289.719 277.245 290.957 278.065 292.537C278.886 294.102 279.296 295.887 279.296 297.892C279.296 299.882 278.886 301.652 278.065 303.201C277.26 304.751 276.007 305.966 274.305 306.847C272.619 307.713 270.454 308.146 267.811 308.146H258.56V304.454H267.675C269.497 304.454 270.963 304.188 272.072 303.657C273.181 303.125 273.986 302.373 274.488 301.401C274.989 300.413 275.24 299.244 275.24 297.892C275.24 296.525 274.981 295.332 274.465 294.314C273.964 293.297 273.159 292.507 272.05 291.944C270.941 291.382 269.467 291.101 267.629 291.101H260.383V321.408H256.281ZM275.832 321.408L267.629 306.141H272.277L280.617 321.408H275.832Z" fill="#E2DED2"/>
<path d="M306.811 321.408V287.456H327.319V291.101H310.913V302.449H326.225V306.095H310.913V317.762H327.547V321.408H306.811Z" fill="#E2DED2"/>
<path d="M366.136 322C363.706 322 361.602 321.613 359.824 320.838C358.047 320.048 356.65 318.954 355.632 317.557C354.629 316.144 354.059 314.511 353.923 312.658H358.161C358.283 313.934 358.715 314.989 359.46 315.825C360.219 316.66 361.184 317.283 362.354 317.693C363.523 318.103 364.784 318.309 366.136 318.309C367.701 318.309 369.106 318.05 370.352 317.534C371.613 317.017 372.608 316.296 373.337 315.369C374.066 314.442 374.431 313.356 374.431 312.111C374.431 310.986 374.112 310.075 373.474 309.376C372.836 308.677 372 308.108 370.967 307.667C369.949 307.227 368.84 306.839 367.64 306.505L363.493 305.32C360.835 304.561 358.731 303.475 357.181 302.062C355.647 300.634 354.88 298.773 354.88 296.479C354.88 294.58 355.389 292.924 356.406 291.512C357.439 290.084 358.829 288.975 360.576 288.185C362.339 287.395 364.298 287 366.455 287C368.643 287 370.587 287.395 372.289 288.185C373.99 288.959 375.342 290.023 376.345 291.375C377.347 292.712 377.879 294.231 377.94 295.932H373.929C373.732 294.261 372.927 292.962 371.514 292.036C370.116 291.109 368.385 290.646 366.319 290.646C364.83 290.646 363.523 290.889 362.399 291.375C361.275 291.861 360.402 292.529 359.779 293.38C359.156 294.231 358.845 295.203 358.845 296.297C358.845 297.497 359.217 298.469 359.961 299.213C360.706 299.943 361.587 300.512 362.604 300.922C363.637 301.333 364.572 301.659 365.407 301.902L368.825 302.859C369.706 303.102 370.686 303.429 371.765 303.839C372.858 304.249 373.907 304.804 374.909 305.503C375.927 306.201 376.762 307.098 377.416 308.191C378.069 309.27 378.396 310.607 378.396 312.202C378.396 314.025 377.917 315.681 376.96 317.169C376.003 318.643 374.613 319.82 372.79 320.701C370.967 321.567 368.749 322 366.136 322Z" fill="#E2DED2"/>
<path d="M409.921 287.456V321.408H405.82V287.456H409.921Z" fill="#E2DED2"/>
<path d="M449.286 321.408H441.128V317.762H449.012C451.822 317.762 454.147 317.222 455.985 316.144C457.838 315.065 459.22 313.523 460.132 311.518C461.043 309.513 461.499 307.128 461.499 304.363C461.499 301.629 461.051 299.274 460.155 297.299C459.258 295.309 457.914 293.783 456.122 292.719C454.344 291.641 452.126 291.101 449.468 291.101H440.946V287.456H449.741C453.038 287.456 455.856 288.132 458.195 289.484C460.55 290.836 462.35 292.78 463.596 295.317C464.841 297.839 465.464 300.854 465.464 304.363C465.464 307.903 464.834 310.949 463.573 313.501C462.312 316.038 460.474 317.99 458.058 319.357C455.658 320.724 452.734 321.408 449.286 321.408ZM442.905 287.456V321.408H438.804V287.456H442.905Z" fill="#E2DED2"/>
<path d="M493.025 321.408V287.456H513.533V291.101H497.126V302.449H512.439V306.095H497.126V317.762H513.761V321.408H493.025Z" fill="#E2DED2"/>
<path d="M568.574 287.456V321.408H564.518L546.061 294.747H545.697V321.408H541.595V287.456H545.56L564.154 314.161H564.473V287.456H568.574Z" fill="#E2DED2"/>
<path d="M611.129 321.863C608.242 321.863 605.668 321.157 603.404 319.744C601.141 318.331 599.363 316.326 598.072 313.728C596.781 311.116 596.135 308.024 596.135 304.454C596.135 300.869 596.781 297.77 598.072 295.157C599.363 292.545 601.141 290.532 603.404 289.119C605.668 287.706 608.242 287 611.129 287C612.83 287 614.433 287.25 615.937 287.752C617.456 288.253 618.823 288.982 620.038 289.939C621.254 290.881 622.264 292.043 623.069 293.426C623.889 294.793 624.451 296.342 624.755 298.074H620.654C620.41 296.889 619.985 295.849 619.378 294.952C618.785 294.056 618.056 293.304 617.19 292.696C616.339 292.074 615.397 291.61 614.364 291.306C613.331 290.987 612.253 290.828 611.129 290.828C609.078 290.828 607.217 291.352 605.546 292.4C603.875 293.433 602.546 294.967 601.558 297.003C600.586 299.024 600.1 301.507 600.1 304.454C600.1 307.386 600.586 309.862 601.558 311.883C602.546 313.903 603.875 315.437 605.546 316.486C607.217 317.519 609.078 318.035 611.129 318.035C612.253 318.035 613.331 317.883 614.364 317.579C615.397 317.26 616.339 316.797 617.19 316.189C618.056 315.567 618.785 314.807 619.378 313.911C619.985 313.014 620.41 311.974 620.654 310.789H624.755C624.451 312.536 623.889 314.093 623.069 315.46C622.264 316.827 621.254 317.99 620.038 318.947C618.823 319.888 617.456 320.61 615.937 321.111C614.433 321.613 612.83 321.863 611.129 321.863Z" fill="#E2DED2"/>
<path d="M652.088 321.408V287.456H672.596V291.101H656.19V302.449H671.502V306.095H656.19V317.762H672.824V321.408H652.088Z" fill="#E2DED2"/>
</svg>
