<svg width="638" height="540" viewBox="0 0 638 540" fill="none" xmlns="http://www.w3.org/2000/svg">
<g filter="url(#filter0_i_6_19)">
<path d="M270 180H365V236.969C365 259.612 346.644 277.969 324 277.969H270V180Z" fill="#234C43"/>
</g>
<path d="M346.449 229.592L334.002 217.872C334.002 217.852 334.007 217.828 334.007 217.809V207.167C334.007 206.256 333.256 205.518 332.328 205.518C331.401 205.518 330.65 206.256 330.65 207.167V214.716L318.734 203.489C318.042 202.837 316.954 202.837 316.266 203.489L288.551 229.592C287.838 230.264 287.814 231.372 288.497 232.072C289.18 232.772 290.307 232.796 291.02 232.125L317.5 207.187L343.98 232.129C344.327 232.455 344.771 232.618 345.215 232.618C345.683 232.618 346.152 232.436 346.503 232.077C347.186 231.376 347.162 230.264 346.449 229.592Z" fill="#E2B34A"/>
<path d="M336.021 230.422C335.036 230.422 334.236 231.208 334.236 232.177V252.142H324.082V246.982C324.082 246.013 323.281 245.226 322.296 245.226H312.698C311.712 245.226 310.912 246.013 310.912 246.982V252.137H300.758V232.177C300.758 231.208 299.958 230.422 298.972 230.422C297.987 230.422 297.186 231.208 297.186 232.177V253.897C297.186 254.866 297.987 255.652 298.972 255.652H312.698C313.684 255.652 314.484 254.866 314.484 253.897V248.737H320.51V253.892C320.51 254.861 321.31 255.647 322.296 255.647H336.021C337.007 255.647 337.807 254.861 337.807 253.892V232.177C337.807 231.208 337.007 230.422 336.021 230.422Z" fill="#E2B34A"/>
<defs>
<filter id="filter0_i_6_19" x="270" y="180" width="99" height="101.969" filterUnits="userSpaceOnUse" color-interpolation-filters="sRGB">
<feFlood flood-opacity="0" result="BackgroundImageFix"/>
<feBlend mode="normal" in="SourceGraphic" in2="BackgroundImageFix" result="shape"/>
<feColorMatrix in="SourceAlpha" type="matrix" values="0 0 0 0 0 0 0 0 0 0 0 0 0 0 0 0 0 0 127 0" result="hardAlpha"/>
<feOffset dx="4" dy="4"/>
<feGaussianBlur stdDeviation="7.3"/>
<feComposite in2="hardAlpha" operator="arithmetic" k2="-1" k3="1"/>
<feColorMatrix type="matrix" values="0 0 0 0 0 0 0 0 0 0 0 0 0 0 0 0 0 0 0.5 0"/>
<feBlend mode="normal" in2="shape" result="effect1_innerShadow_6_19"/>
</filter>
</defs>
</svg>
