<svg width="626" height="525" viewBox="0 0 626 525" fill="none" xmlns="http://www.w3.org/2000/svg">
<g clip-path="url(#clip0_51_134)">
<path d="M366.854 198.44C380.531 196.629 386.944 188.022 386.944 188.022C387.306 187.703 390.075 187.809 390.075 187.809C390.075 187.809 382.47 198.376 365.512 201.529C352.367 203.979 332.021 201.487 323.798 185.743C317.151 173.024 308.608 158.452 300.214 158.452H297.849V172.364C297.849 179.394 298.019 183.058 298.616 189.833H285.471C286.068 183.037 286.238 179.394 286.238 172.364V139.47C286.238 132.439 286.068 128.775 285.471 122H303.963C319.728 122 333.555 125.217 333.555 140.237C333.555 153.04 323.457 157.28 310.738 158.217C318.621 159.666 330.998 175.367 336.239 185.104C342.162 196.097 356.223 199.846 366.854 198.44ZM297.828 156.875H303.857C313.103 156.875 321.752 153.488 321.752 140.258C321.752 127.028 313.103 123.64 303.857 123.64H297.828V156.875Z" fill="white"/>
<path d="M120 189.855C120.597 183.08 120.767 179.415 120.767 172.385V139.491C120.767 132.461 120.597 128.796 120 122.021H135.744L173.24 186.297L173.41 186.382V139.491C173.41 132.461 173.154 128.796 172.558 122.021H177.692C177.01 128.818 176.84 132.461 176.84 139.491V172.385C176.84 179.415 177.01 183.08 177.692 189.855H161.863L124.453 125.579L124.282 125.494V172.385C124.282 179.415 124.453 183.08 125.049 189.855H120Z" fill="white"/>
<path d="M183.913 180.268C183.913 170.254 194.778 167.549 203.258 166.1C210.544 164.822 214.783 163.309 214.783 157.962C214.783 152.274 212.248 149.227 207.327 149.227C199.529 149.227 197.228 154.319 194.864 157.195C191.817 161.179 186.214 160.327 185.277 155.15C190.965 151.251 199.444 147.608 208.605 147.608C217.766 147.608 224.796 150.91 224.881 160.497V172.704C224.881 178.819 224.881 182.973 226.16 189.833H215.55C215.039 185.849 214.868 183.314 214.868 180.246C212.759 186.531 207.582 191.516 198.251 191.516C191.221 191.516 183.913 188.384 183.913 180.246M214.783 172.896V163.139C213.079 165.504 209.691 166.271 205.196 167.293C198.336 169.083 194.928 172.641 194.928 178.734C194.928 184.827 198.23 188.065 202.981 188.065C210.181 188.065 214.762 181.546 214.762 172.896" fill="white"/>
<path d="M231.912 178.329C234.191 173.919 240.476 174.771 241.414 180.204C241.755 185.125 244.716 189.961 252.279 189.961C258.138 189.961 260.758 186.489 260.758 182.164C260.758 177.584 257.712 175.73 248.21 170.979C240.412 167.08 234.128 164.098 234.128 157.494C234.128 150.293 242.266 147.651 249.232 147.651C257.541 147.651 263.655 151.55 267.043 158.09C264.678 161.563 259.842 160.966 258.564 156.471C257.371 152.146 255.262 149.355 249.403 149.355C244.908 149.355 241.861 151.145 241.861 154.703C241.861 158.687 245.589 160.902 253.557 164.63C262.207 168.7 268.811 171.597 268.811 179.48C268.811 186.766 262.292 191.602 251.853 191.602C241.414 191.602 234.042 187.107 231.933 178.372" fill="white"/>
<path d="M338.093 169.594C338.093 155.938 348.788 147.629 363.445 147.629C378.102 147.629 388.797 155.938 388.797 169.594C388.797 183.25 378.039 191.559 363.445 191.559C348.852 191.559 338.093 183.25 338.093 169.594ZM377.698 169.594C377.698 156.79 372.862 149.249 363.445 149.249C354.028 149.249 349.107 156.79 349.107 169.594C349.107 182.398 353.943 189.94 363.445 189.94C372.947 189.94 377.698 182.483 377.698 169.594Z" fill="white"/>
<path d="M394.507 169.594C394.507 155.512 404.349 147.629 417.238 147.629C427.848 147.629 433.856 153.573 435.731 159.752C433.195 163.48 427.933 162.457 427.081 157.642C426.485 154.255 424.887 149.249 417.75 149.249C409.185 149.249 405.542 156.109 405.542 168.508C405.542 179.202 409.697 188.534 420.392 188.534C428.615 188.534 433.877 182.59 436.412 173.94H437.776C434.985 183.272 429.467 191.58 416.834 191.58C404.2 191.58 394.528 183.783 394.528 169.616" fill="white"/>
<path d="M443.102 180.268C443.102 170.254 453.967 167.549 462.447 166.1C469.733 164.822 473.972 163.309 473.972 157.962C473.972 152.274 471.437 149.227 466.516 149.227C458.718 149.227 456.417 154.319 454.053 157.195C451.006 161.179 445.403 160.327 444.466 155.15C450.154 151.251 458.633 147.608 467.794 147.608C476.955 147.608 483.985 150.91 484.07 160.497V172.704C484.07 178.819 484.07 182.973 485.349 189.833H474.739C474.228 185.849 474.057 183.314 474.057 180.246C471.927 186.531 466.771 191.516 457.44 191.516C450.41 191.516 443.102 188.384 443.102 180.246M473.972 172.896V163.139C472.268 165.504 468.88 166.271 464.385 167.293C457.525 169.083 454.117 172.641 454.117 178.734C454.117 184.827 457.419 188.065 462.17 188.065C469.37 188.065 473.951 181.546 473.951 172.896" fill="white"/>
<path d="M491.101 178.329C493.38 173.919 499.665 174.771 500.603 180.204C500.943 185.125 503.905 189.961 511.468 189.961C517.327 189.961 519.947 186.489 519.947 182.164C519.947 177.584 516.9 175.73 507.399 170.979C499.601 167.08 493.316 164.098 493.316 157.494C493.316 150.293 501.455 147.651 508.421 147.651C516.73 147.651 522.844 151.55 526.232 158.09C523.867 161.563 519.031 160.966 517.753 156.471C516.56 152.146 514.45 149.355 508.592 149.355C504.096 149.355 501.05 151.145 501.05 154.703C501.05 158.687 504.778 160.902 512.746 164.63C521.396 168.7 528 171.597 528 179.48C528 186.766 521.481 191.602 511.042 191.602C500.603 191.602 493.231 187.107 491.122 178.372" fill="white"/>
<path d="M211.374 240.857V224.708H213.484V240.857H211.374Z" fill="white"/>
<path d="M221.856 240.857V224.708H223.965V239.025H232.381V240.857H221.856Z" fill="white"/>
<path d="M239.645 240.857V224.708H241.755V240.857H239.645ZM240.711 233.188V231.355H251.384V233.188H240.711ZM250.319 240.857V224.708H252.428V240.857H250.319Z" fill="white"/>
<path d="M259.565 240.857L265.828 224.708H268.215L274.457 240.857H272.113L268.236 230.056C268.044 229.523 267.874 229.033 267.703 228.543C267.533 228.075 267.384 227.606 267.235 227.137C267.085 226.668 266.936 226.2 266.787 225.688H267.256C267.128 226.157 266.979 226.626 266.83 227.073C266.681 227.521 266.51 228.011 266.34 228.522C266.169 229.033 265.978 229.545 265.786 230.056L261.823 240.857H259.586H259.565ZM262.59 236.106L263.272 234.274H270.899L271.538 236.106H262.59Z" fill="white"/>
<path d="M292.246 240.857V224.708H299.745C300.768 224.708 301.641 224.879 302.387 225.241C303.133 225.603 303.708 226.093 304.091 226.732C304.496 227.372 304.688 228.117 304.688 228.991C304.688 229.8 304.517 230.503 304.198 231.121C303.878 231.739 303.409 232.229 302.834 232.591C302.259 232.953 301.62 233.145 300.896 233.188V232.953C301.535 232.953 302.089 233.06 302.579 233.273C303.069 233.486 303.452 233.805 303.75 234.232C304.049 234.658 304.219 235.148 304.283 235.744L304.624 238.727C304.645 239.004 304.688 239.259 304.709 239.494C304.73 239.728 304.773 239.984 304.794 240.197C304.816 240.431 304.858 240.665 304.879 240.9H302.749C302.728 240.644 302.685 240.367 302.664 240.09C302.621 239.792 302.6 239.494 302.557 239.195C302.557 239.132 302.557 239.068 302.536 239.025C302.536 238.961 302.536 238.919 302.536 238.855L302.28 236.618C302.216 235.979 302.067 235.467 301.854 235.084C301.641 234.7 301.322 234.423 300.938 234.232C300.533 234.061 300.022 233.955 299.383 233.955H293.375V232.122H299.042C299.766 232.122 300.406 232.016 300.938 231.782C301.471 231.547 301.876 231.228 302.153 230.802C302.429 230.375 302.579 229.843 302.579 229.246C302.579 228.671 302.451 228.202 302.216 227.798C301.982 227.414 301.62 227.116 301.151 226.903C300.683 226.711 300.107 226.605 299.426 226.605H293.396L294.419 225.774V240.942H292.31L292.246 240.857Z" fill="white"/>
<path d="M311.761 240.857L318.024 224.708H320.41L326.652 240.857H324.309L320.432 230.056C320.24 229.523 320.069 229.033 319.899 228.543C319.729 228.075 319.579 227.606 319.43 227.137C319.281 226.668 319.132 226.2 318.983 225.688H319.452C319.324 226.157 319.175 226.626 319.025 227.073C318.876 227.521 318.706 228.011 318.535 228.522C318.365 229.033 318.173 229.545 317.982 230.056L314.019 240.857H311.782H311.761ZM314.786 236.106L315.468 234.274H323.095L323.734 236.106H314.786Z" fill="white"/>
<path d="M339.52 241.198C338.178 241.198 337.028 240.985 336.069 240.58C335.11 240.175 334.386 239.557 333.853 238.727C333.321 237.896 333.022 236.873 332.937 235.637H334.961C335.046 236.532 335.259 237.257 335.643 237.81C336.026 238.386 336.538 238.79 337.198 239.067C337.859 239.344 338.668 239.472 339.605 239.472C340.543 239.472 341.267 239.344 341.885 239.11C342.503 238.876 342.972 238.535 343.27 238.087C343.568 237.64 343.739 237.129 343.739 236.511C343.739 236 343.632 235.552 343.398 235.19C343.185 234.828 342.822 234.53 342.311 234.274C341.8 234.018 341.139 233.805 340.309 233.635L338.05 233.166C337.113 232.974 336.303 232.697 335.643 232.378C334.982 232.058 334.45 231.59 334.088 231.036C333.704 230.482 333.512 229.8 333.512 228.969C333.512 228.053 333.725 227.243 334.173 226.562C334.62 225.88 335.281 225.347 336.133 224.964C336.985 224.58 338.029 224.389 339.243 224.389C340.458 224.389 341.459 224.58 342.332 224.943C343.206 225.326 343.888 225.88 344.399 226.604C344.91 227.329 345.187 228.202 345.272 229.246H343.249C343.185 228.564 342.993 227.989 342.652 227.542C342.311 227.073 341.864 226.732 341.267 226.477C340.671 226.242 339.968 226.114 339.158 226.114C338.391 226.114 337.731 226.221 337.177 226.434C336.623 226.647 336.197 226.945 335.92 227.35C335.643 227.755 335.472 228.223 335.472 228.799C335.472 229.246 335.579 229.608 335.771 229.928C335.962 230.247 336.303 230.503 336.772 230.737C337.241 230.972 337.901 231.163 338.732 231.355L341.118 231.845C342.141 232.058 342.972 232.357 343.675 232.761C344.378 233.166 344.868 233.656 345.23 234.274C345.592 234.87 345.762 235.595 345.762 236.426C345.762 237.32 345.549 238.13 345.123 238.854C344.697 239.579 344.015 240.154 343.078 240.58C342.141 241.006 340.969 241.219 339.542 241.219L339.52 241.198Z" fill="white"/>
<path d="M352.132 240.857L358.396 224.708H360.782L367.024 240.857H364.681L360.803 230.056C360.612 229.523 360.441 229.033 360.271 228.543C360.1 228.075 359.951 227.606 359.802 227.137C359.653 226.668 359.504 226.2 359.355 225.688H359.823C359.695 226.157 359.546 226.626 359.397 227.073C359.248 227.521 359.078 228.011 358.907 228.522C358.737 229.033 358.545 229.545 358.353 230.056L354.391 240.857H352.154H352.132ZM355.136 236.106L355.818 234.274H363.445L364.084 236.106H355.136Z" fill="white"/>
<path d="M384.813 245.48V223.899H386.901V245.48H384.813Z" fill="white"/>
<path d="M405.926 240.857V224.708H413.425C414.448 224.708 415.321 224.879 416.067 225.241C416.813 225.603 417.388 226.093 417.771 226.732C418.176 227.372 418.368 228.117 418.368 228.991C418.368 229.8 418.197 230.503 417.878 231.121C417.558 231.739 417.089 232.229 416.514 232.591C415.939 232.953 415.3 233.145 414.576 233.188V232.953C415.215 232.953 415.769 233.06 416.259 233.273C416.749 233.486 417.132 233.805 417.43 234.232C417.729 234.658 417.899 235.148 417.963 235.744L418.304 238.727C418.325 239.004 418.368 239.259 418.389 239.494C418.41 239.728 418.453 239.984 418.474 240.197C418.496 240.431 418.538 240.665 418.56 240.9H416.429C416.408 240.644 416.365 240.367 416.344 240.09C416.301 239.792 416.28 239.494 416.237 239.195C416.237 239.132 416.237 239.068 416.216 239.025C416.216 238.961 416.216 238.919 416.216 238.855L415.96 236.618C415.896 235.979 415.747 235.467 415.534 235.084C415.321 234.7 415.002 234.423 414.618 234.232C414.213 234.061 413.702 233.955 413.063 233.955H407.055V232.122H412.722C413.446 232.122 414.086 232.016 414.618 231.782C415.151 231.547 415.556 231.228 415.833 230.802C416.11 230.375 416.259 229.843 416.259 229.246C416.259 228.671 416.131 228.202 415.896 227.798C415.662 227.414 415.3 227.116 414.831 226.903C414.363 226.711 413.787 226.605 413.106 226.605H407.076L408.099 225.774V240.942H405.99L405.926 240.857Z" fill="white"/>
<path d="M430.66 241.134C429.595 241.134 428.658 240.964 427.87 240.58C427.081 240.218 426.485 239.686 426.08 239.004C425.675 238.322 425.462 237.491 425.462 236.533V235.318H427.571V236.405C427.571 237.023 427.678 237.555 427.933 237.981C428.168 238.407 428.509 238.727 428.977 238.94C429.446 239.153 430 239.26 430.682 239.26C431.321 239.26 431.853 239.153 432.28 238.94C432.706 238.727 433.046 238.407 433.26 237.981C433.473 237.555 433.6 237.023 433.6 236.405V224.666H435.71V236.469C435.71 237.47 435.518 238.322 435.113 239.004C434.73 239.686 434.154 240.218 433.387 240.559C432.642 240.9 431.704 241.092 430.639 241.092L430.66 241.134Z" fill="white"/>
<path d="M222.869 427.984V400.843H226.025V427.984H222.869ZM248.847 427.984L239.731 403.962H239.583C239.632 404.469 239.676 405.088 239.713 405.818C239.75 406.548 239.781 407.347 239.806 408.213C239.83 409.067 239.843 409.939 239.843 410.831V427.984H236.91V400.843H241.588L250.183 423.417H250.313L259.039 400.843H263.68V427.984H260.561V410.608C260.561 409.803 260.574 408.999 260.598 408.194C260.623 407.377 260.654 406.61 260.691 405.892C260.728 405.162 260.765 404.531 260.803 403.999H260.654L251.427 427.984H248.847ZM291.552 427.984L288.21 419.37H277.331L274.008 427.984H270.815L281.434 400.731H284.274L294.819 427.984H291.552ZM287.263 416.567L284.089 408.009C284.014 407.786 283.891 407.421 283.717 406.913C283.556 406.406 283.389 405.88 283.216 405.335C283.043 404.791 282.901 404.351 282.789 404.017C282.665 404.525 282.529 405.032 282.381 405.54C282.245 406.035 282.108 406.499 281.972 406.932C281.836 407.353 281.719 407.712 281.62 408.009L278.389 416.567H287.263ZM313.613 413.764H323.099V426.926C321.676 427.409 320.209 427.768 318.699 428.003C317.202 428.238 315.525 428.356 313.668 428.356C310.846 428.356 308.464 427.793 306.521 426.666C304.59 425.54 303.124 423.937 302.121 421.858C301.119 419.766 300.617 417.285 300.617 414.414C300.617 411.604 301.168 409.153 302.27 407.062C303.383 404.97 304.986 403.349 307.078 402.198C309.182 401.034 311.707 400.453 314.652 400.453C316.162 400.453 317.592 400.595 318.941 400.88C320.302 401.152 321.565 401.542 322.728 402.049L321.521 404.797C320.519 404.364 319.411 403.992 318.198 403.683C316.998 403.374 315.754 403.219 314.467 403.219C312.251 403.219 310.351 403.677 308.767 404.593C307.195 405.509 305.989 406.802 305.147 408.473C304.318 410.144 303.903 412.124 303.903 414.414C303.903 416.678 304.268 418.652 304.999 420.336C305.729 422.007 306.867 423.306 308.414 424.234C309.962 425.163 311.954 425.627 314.392 425.627C315.618 425.627 316.67 425.559 317.548 425.422C318.427 425.274 319.225 425.101 319.943 424.903V416.586H313.613V413.764ZM348.205 427.984H333.093V400.843H348.205V403.627H336.249V412.409H347.518V415.156H336.249V425.2H348.205V427.984ZM378.861 427.984H375.222L360.426 405.187H360.278C360.315 405.793 360.358 406.486 360.408 407.266C360.457 408.033 360.494 408.856 360.519 409.735C360.556 410.602 360.575 411.486 360.575 412.39V427.984H357.642V400.843H361.262L376.002 423.566H376.132C376.107 423.133 376.076 422.52 376.039 421.728C376.002 420.924 375.965 420.063 375.928 419.148C375.903 418.219 375.891 417.359 375.891 416.567V400.843H378.861V427.984ZM405.006 420.763C405.006 422.372 404.604 423.745 403.8 424.884C403.008 426.01 401.894 426.87 400.458 427.465C399.022 428.059 397.333 428.356 395.39 428.356C394.363 428.356 393.391 428.306 392.475 428.207C391.559 428.108 390.718 427.966 389.95 427.78C389.183 427.595 388.508 427.366 387.927 427.093V424.067C388.855 424.451 389.987 424.81 391.324 425.144C392.661 425.466 394.059 425.627 395.52 425.627C396.881 425.627 398.032 425.447 398.973 425.088C399.913 424.717 400.625 424.191 401.108 423.51C401.603 422.817 401.85 421.988 401.85 421.023C401.85 420.094 401.646 419.321 401.238 418.702C400.829 418.071 400.149 417.501 399.196 416.994C398.255 416.474 396.968 415.923 395.334 415.342C394.183 414.933 393.168 414.488 392.289 414.005C391.411 413.51 390.674 412.953 390.08 412.334C389.486 411.715 389.034 410.998 388.725 410.181C388.428 409.364 388.279 408.429 388.279 407.377C388.279 405.929 388.645 404.692 389.375 403.665C390.117 402.625 391.138 401.833 392.438 401.288C393.75 400.731 395.254 400.453 396.949 400.453C398.397 400.453 399.734 400.589 400.959 400.861C402.197 401.134 403.329 401.499 404.357 401.957L403.373 404.667C402.395 404.259 401.355 403.918 400.254 403.646C399.165 403.374 398.038 403.238 396.875 403.238C395.712 403.238 394.728 403.411 393.923 403.757C393.131 404.091 392.525 404.568 392.104 405.187C391.683 405.806 391.473 406.542 391.473 407.396C391.473 408.349 391.671 409.141 392.067 409.772C392.475 410.404 393.119 410.967 393.997 411.462C394.889 411.944 396.064 412.452 397.525 412.984C399.121 413.566 400.477 414.185 401.59 414.841C402.704 415.484 403.552 416.276 404.134 417.217C404.715 418.145 405.006 419.327 405.006 420.763Z" fill="white"/>
</g>
<defs>
<clipPath id="clip0_51_134">
<rect width="626" height="525" fill="white"/>
</clipPath>
</defs>
</svg>
