<svg width="626" height="525" viewBox="0 0 626 525" fill="none" xmlns="http://www.w3.org/2000/svg">
<g clip-path="url(#clip0_51_136)">
<path d="M366.854 198.44C380.531 196.629 386.944 188.022 386.944 188.022C387.306 187.703 390.075 187.809 390.075 187.809C390.075 187.809 382.47 198.376 365.512 201.529C352.367 203.979 332.021 201.487 323.798 185.743C317.151 173.024 308.608 158.452 300.214 158.452H297.849V172.364C297.849 179.394 298.019 183.058 298.616 189.833H285.471C286.068 183.037 286.238 179.394 286.238 172.364V139.47C286.238 132.439 286.068 128.775 285.471 122H303.963C319.728 122 333.555 125.217 333.555 140.237C333.555 153.04 323.457 157.28 310.738 158.217C318.621 159.666 330.998 175.367 336.239 185.104C342.162 196.097 356.223 199.846 366.854 198.44ZM297.828 156.875H303.857C313.103 156.875 321.752 153.488 321.752 140.258C321.752 127.028 313.103 123.64 303.857 123.64H297.828V156.875Z" fill="white"/>
<path d="M120 189.855C120.597 183.08 120.767 179.415 120.767 172.385V139.491C120.767 132.461 120.597 128.796 120 122.021H135.744L173.24 186.297L173.41 186.382V139.491C173.41 132.461 173.154 128.796 172.558 122.021H177.692C177.01 128.818 176.84 132.461 176.84 139.491V172.385C176.84 179.415 177.01 183.08 177.692 189.855H161.863L124.453 125.579L124.282 125.494V172.385C124.282 179.415 124.453 183.08 125.049 189.855H120Z" fill="white"/>
<path d="M183.913 180.268C183.913 170.255 194.778 167.549 203.258 166.101C210.544 164.822 214.783 163.31 214.783 157.962C214.783 152.274 212.248 149.228 207.327 149.228C199.529 149.228 197.228 154.319 194.864 157.195C191.817 161.179 186.214 160.327 185.277 155.15C190.965 151.251 199.444 147.608 208.605 147.608C217.766 147.608 224.796 150.911 224.881 160.498V172.705C224.881 178.819 224.881 182.974 226.16 189.834H215.55C215.039 185.85 214.868 183.315 214.868 180.247C212.759 186.531 207.582 191.517 198.251 191.517C191.221 191.517 183.913 188.385 183.913 180.247M214.783 172.897V163.139C213.079 165.504 209.691 166.271 205.196 167.294C198.336 169.083 194.928 172.641 194.928 178.734C194.928 184.827 198.23 188.065 202.981 188.065C210.181 188.065 214.762 181.546 214.762 172.897" fill="white"/>
<path d="M231.912 178.329C234.191 173.919 240.476 174.771 241.414 180.203C241.755 185.125 244.716 189.961 252.279 189.961C258.138 189.961 260.758 186.488 260.758 182.163C260.758 177.583 257.712 175.73 248.21 170.979C240.412 167.08 234.128 164.097 234.128 157.493C234.128 150.292 242.266 147.65 249.232 147.65C257.541 147.65 263.655 151.549 267.043 158.09C264.678 161.562 259.842 160.966 258.564 156.47C257.371 152.146 255.262 149.355 249.403 149.355C244.908 149.355 241.861 151.144 241.861 154.702C241.861 158.686 245.589 160.902 253.557 164.63C262.207 168.699 268.811 171.597 268.811 179.479C268.811 186.765 262.292 191.601 251.853 191.601C241.414 191.601 234.042 187.106 231.933 178.371" fill="white"/>
<path d="M338.093 169.595C338.093 155.939 348.788 147.63 363.445 147.63C378.102 147.63 388.797 155.939 388.797 169.595C388.797 183.251 378.039 191.56 363.445 191.56C348.852 191.56 338.093 183.251 338.093 169.595ZM377.698 169.595C377.698 156.791 372.862 149.249 363.445 149.249C354.028 149.249 349.107 156.791 349.107 169.595C349.107 182.399 353.943 189.94 363.445 189.94C372.947 189.94 377.698 182.484 377.698 169.595Z" fill="white"/>
<path d="M394.507 169.595C394.507 155.512 404.349 147.63 417.238 147.63C427.848 147.63 433.856 153.574 435.731 159.752C433.195 163.48 427.933 162.458 427.081 157.643C426.485 154.256 424.887 149.249 417.75 149.249C409.185 149.249 405.542 156.109 405.542 168.508C405.542 179.203 409.697 188.534 420.392 188.534C428.615 188.534 433.877 182.59 436.412 173.941H437.776C434.985 183.272 429.467 191.581 416.834 191.581C404.2 191.581 394.528 183.783 394.528 169.616" fill="white"/>
<path d="M443.102 180.268C443.102 170.255 453.967 167.549 462.447 166.101C469.733 164.822 473.972 163.31 473.972 157.962C473.972 152.274 471.437 149.228 466.516 149.228C458.718 149.228 456.417 154.319 454.053 157.195C451.006 161.179 445.403 160.327 444.466 155.15C450.154 151.251 458.633 147.608 467.794 147.608C476.955 147.608 483.985 150.911 484.07 160.498V172.705C484.07 178.819 484.07 182.974 485.349 189.834H474.739C474.228 185.85 474.057 183.315 474.057 180.247C471.927 186.531 466.771 191.517 457.44 191.517C450.41 191.517 443.102 188.385 443.102 180.247M473.972 172.897V163.139C472.268 165.504 468.88 166.271 464.385 167.294C457.525 169.083 454.117 172.641 454.117 178.734C454.117 184.827 457.419 188.065 462.17 188.065C469.37 188.065 473.951 181.546 473.951 172.897" fill="white"/>
<path d="M491.101 178.329C493.38 173.919 499.665 174.771 500.603 180.203C500.943 185.125 503.905 189.961 511.468 189.961C517.327 189.961 519.947 186.488 519.947 182.163C519.947 177.583 516.9 175.73 507.399 170.979C499.601 167.08 493.316 164.097 493.316 157.493C493.316 150.292 501.455 147.65 508.421 147.65C516.73 147.65 522.844 151.549 526.232 158.09C523.867 161.562 519.031 160.966 517.753 156.47C516.56 152.146 514.45 149.355 508.592 149.355C504.096 149.355 501.05 151.144 501.05 154.702C501.05 158.686 504.778 160.902 512.746 164.63C521.396 168.699 528 171.597 528 179.479C528 186.765 521.481 191.601 511.042 191.601C500.603 191.601 493.231 187.106 491.122 178.371" fill="white"/>
<path d="M211.374 240.857V224.708H213.484V240.857H211.374Z" fill="white"/>
<path d="M221.856 240.857V224.708H223.965V239.025H232.381V240.857H221.856Z" fill="white"/>
<path d="M239.645 240.857V224.708H241.755V240.857H239.645ZM240.711 233.187V231.355H251.384V233.187H240.711ZM250.319 240.857V224.708H252.428V240.857H250.319Z" fill="white"/>
<path d="M259.565 240.857L265.828 224.708H268.215L274.457 240.857H272.113L268.236 230.055C268.044 229.523 267.874 229.033 267.703 228.543C267.533 228.074 267.384 227.605 267.235 227.137C267.085 226.668 266.936 226.199 266.787 225.688H267.256C267.128 226.157 266.979 226.625 266.83 227.073C266.681 227.52 266.51 228.01 266.34 228.521C266.169 229.033 265.978 229.544 265.786 230.055L261.823 240.857H259.586H259.565ZM262.59 236.106L263.272 234.274H270.899L271.538 236.106H262.59Z" fill="white"/>
<path d="M292.246 240.857V224.708H299.745C300.768 224.708 301.641 224.878 302.387 225.241C303.133 225.603 303.708 226.093 304.091 226.732C304.496 227.371 304.688 228.117 304.688 228.99C304.688 229.8 304.517 230.503 304.198 231.121C303.878 231.738 303.409 232.228 302.834 232.591C302.259 232.953 301.62 233.145 300.896 233.187V232.953C301.535 232.953 302.089 233.059 302.579 233.272C303.069 233.485 303.452 233.805 303.75 234.231C304.049 234.657 304.219 235.147 304.283 235.744L304.624 238.726C304.645 239.003 304.688 239.259 304.709 239.493C304.73 239.728 304.773 239.983 304.794 240.196C304.816 240.431 304.858 240.665 304.879 240.899H302.749C302.728 240.644 302.685 240.367 302.664 240.09C302.621 239.792 302.6 239.493 302.557 239.195C302.557 239.131 302.557 239.067 302.536 239.025C302.536 238.961 302.536 238.918 302.536 238.854L302.28 236.617C302.216 235.978 302.067 235.467 301.854 235.083C301.641 234.7 301.322 234.423 300.938 234.231C300.533 234.061 300.022 233.954 299.383 233.954H293.375V232.122H299.042C299.766 232.122 300.406 232.015 300.938 231.781C301.471 231.547 301.876 231.227 302.153 230.801C302.429 230.375 302.579 229.842 302.579 229.246C302.579 228.671 302.451 228.202 302.216 227.797C301.982 227.414 301.62 227.115 301.151 226.902C300.683 226.711 300.107 226.604 299.426 226.604H293.396L294.419 225.773V240.942H292.31L292.246 240.857Z" fill="white"/>
<path d="M311.761 240.857L318.024 224.708H320.41L326.652 240.857H324.309L320.432 230.055C320.24 229.523 320.069 229.033 319.899 228.543C319.729 228.074 319.579 227.605 319.43 227.137C319.281 226.668 319.132 226.199 318.983 225.688H319.452C319.324 226.157 319.175 226.625 319.025 227.073C318.876 227.52 318.706 228.01 318.535 228.521C318.365 229.033 318.173 229.544 317.982 230.055L314.019 240.857H311.782H311.761ZM314.786 236.106L315.468 234.274H323.095L323.734 236.106H314.786Z" fill="white"/>
<path d="M339.52 241.198C338.178 241.198 337.028 240.985 336.069 240.58C335.11 240.175 334.386 239.557 333.853 238.727C333.321 237.896 333.022 236.873 332.937 235.637H334.961C335.046 236.532 335.259 237.257 335.643 237.81C336.026 238.386 336.538 238.79 337.198 239.067C337.859 239.344 338.668 239.472 339.605 239.472C340.543 239.472 341.267 239.344 341.885 239.11C342.503 238.876 342.972 238.535 343.27 238.087C343.568 237.64 343.739 237.129 343.739 236.511C343.739 236 343.632 235.552 343.398 235.19C343.185 234.828 342.822 234.53 342.311 234.274C341.8 234.018 341.139 233.805 340.309 233.635L338.05 233.166C337.113 232.974 336.303 232.697 335.643 232.378C334.982 232.058 334.45 231.59 334.088 231.036C333.704 230.482 333.512 229.8 333.512 228.969C333.512 228.053 333.725 227.243 334.173 226.562C334.62 225.88 335.281 225.347 336.133 224.964C336.985 224.58 338.029 224.389 339.243 224.389C340.458 224.389 341.459 224.58 342.332 224.943C343.206 225.326 343.888 225.88 344.399 226.604C344.91 227.329 345.187 228.202 345.272 229.246H343.249C343.185 228.564 342.993 227.989 342.652 227.542C342.311 227.073 341.864 226.732 341.267 226.477C340.671 226.242 339.968 226.114 339.158 226.114C338.391 226.114 337.731 226.221 337.177 226.434C336.623 226.647 336.197 226.945 335.92 227.35C335.643 227.755 335.472 228.223 335.472 228.799C335.472 229.246 335.579 229.608 335.771 229.928C335.962 230.247 336.303 230.503 336.772 230.737C337.241 230.972 337.901 231.163 338.732 231.355L341.118 231.845C342.141 232.058 342.972 232.357 343.675 232.761C344.378 233.166 344.868 233.656 345.23 234.274C345.592 234.87 345.762 235.595 345.762 236.426C345.762 237.32 345.549 238.13 345.123 238.854C344.697 239.579 344.015 240.154 343.078 240.58C342.141 241.006 340.969 241.219 339.542 241.219L339.52 241.198Z" fill="white"/>
<path d="M352.132 240.857L358.396 224.708H360.782L367.024 240.857H364.681L360.803 230.055C360.612 229.523 360.441 229.033 360.271 228.543C360.1 228.074 359.951 227.605 359.802 227.137C359.653 226.668 359.504 226.199 359.355 225.688H359.823C359.695 226.157 359.546 226.625 359.397 227.073C359.248 227.52 359.078 228.01 358.907 228.521C358.737 229.033 358.545 229.544 358.353 230.055L354.391 240.857H352.154H352.132ZM355.136 236.106L355.818 234.274H363.445L364.084 236.106H355.136Z" fill="white"/>
<path d="M384.813 245.48V223.898H386.901V245.48H384.813Z" fill="white"/>
<path d="M405.926 240.857V224.708H413.425C414.448 224.708 415.321 224.878 416.067 225.241C416.813 225.603 417.388 226.093 417.771 226.732C418.176 227.371 418.368 228.117 418.368 228.99C418.368 229.8 418.197 230.503 417.878 231.121C417.558 231.738 417.089 232.228 416.514 232.591C415.939 232.953 415.3 233.145 414.576 233.187V232.953C415.215 232.953 415.769 233.059 416.259 233.272C416.749 233.485 417.132 233.805 417.43 234.231C417.729 234.657 417.899 235.147 417.963 235.744L418.304 238.726C418.325 239.003 418.368 239.259 418.389 239.493C418.41 239.728 418.453 239.983 418.474 240.196C418.496 240.431 418.538 240.665 418.56 240.899H416.429C416.408 240.644 416.365 240.367 416.344 240.09C416.301 239.792 416.28 239.493 416.237 239.195C416.237 239.131 416.237 239.067 416.216 239.025C416.216 238.961 416.216 238.918 416.216 238.854L415.96 236.617C415.896 235.978 415.747 235.467 415.534 235.083C415.321 234.7 415.002 234.423 414.618 234.231C414.213 234.061 413.702 233.954 413.063 233.954H407.055V232.122H412.722C413.446 232.122 414.086 232.015 414.618 231.781C415.151 231.547 415.556 231.227 415.833 230.801C416.11 230.375 416.259 229.842 416.259 229.246C416.259 228.671 416.131 228.202 415.896 227.797C415.662 227.414 415.3 227.115 414.831 226.902C414.363 226.711 413.787 226.604 413.106 226.604H407.076L408.099 225.773V240.942H405.99L405.926 240.857Z" fill="white"/>
<path d="M430.66 241.133C429.595 241.133 428.658 240.963 427.87 240.579C427.081 240.217 426.485 239.685 426.08 239.003C425.675 238.321 425.462 237.49 425.462 236.532V235.317H427.571V236.404C427.571 237.022 427.678 237.554 427.933 237.98C428.168 238.406 428.509 238.726 428.977 238.939C429.446 239.152 430 239.259 430.682 239.259C431.321 239.259 431.853 239.152 432.28 238.939C432.706 238.726 433.046 238.406 433.26 237.98C433.473 237.554 433.6 237.022 433.6 236.404V224.665H435.71V236.468C435.71 237.469 435.518 238.321 435.113 239.003C434.73 239.685 434.154 240.217 433.387 240.558C432.642 240.899 431.704 241.091 430.639 241.091L430.66 241.133Z" fill="white"/>
<path d="M198.293 414.154C198.293 417.211 197.736 419.766 196.622 421.821C195.508 423.863 193.893 425.404 191.776 426.443C189.672 427.471 187.117 427.984 184.109 427.984H176.739V400.843H184.926C187.686 400.843 190.062 401.35 192.055 402.365C194.047 403.367 195.582 404.859 196.659 406.839C197.748 408.807 198.293 411.245 198.293 414.154ZM194.97 414.265C194.97 411.827 194.561 409.816 193.744 408.231C192.94 406.647 191.752 405.471 190.18 404.704C188.62 403.924 186.708 403.535 184.443 403.535H179.895V425.274H183.738C187.476 425.274 190.279 424.352 192.148 422.508C194.029 420.664 194.97 417.916 194.97 414.265ZM207.748 427.984V400.843H210.904V427.984H207.748ZM224.945 427.984H221.789V400.843H236.901V403.627H224.945V413.578H236.177V416.344H224.945V427.984ZM259.964 427.984H244.852V400.843H259.964V403.627H248.008V412.409H259.277V415.156H248.008V425.2H259.964V427.984ZM276.734 400.843C278.962 400.843 280.8 401.121 282.248 401.678C283.708 402.223 284.797 403.058 285.515 404.184C286.233 405.311 286.592 406.746 286.592 408.491C286.592 409.927 286.332 411.128 285.812 412.093C285.292 413.046 284.612 413.819 283.77 414.414C282.929 415.008 282.031 415.466 281.078 415.787L288.523 427.984H284.847L278.201 416.66H272.557V427.984H269.401V400.843H276.734ZM276.548 403.572H272.557V413.987H276.864C279.079 413.987 280.707 413.535 281.747 412.631C282.799 411.728 283.325 410.397 283.325 408.64C283.325 406.796 282.768 405.49 281.654 404.723C280.552 403.955 278.85 403.572 276.548 403.572ZM311.4 427.984H296.289V400.843H311.4V403.627H299.445V412.409H310.714V415.156H299.445V425.2H311.4V427.984ZM342.057 427.984H338.418L323.622 405.187H323.474C323.511 405.793 323.554 406.486 323.603 407.266C323.653 408.033 323.69 408.856 323.715 409.735C323.752 410.602 323.771 411.486 323.771 412.39V427.984H320.837V400.843H324.457L339.198 423.566H339.328C339.303 423.133 339.272 422.52 339.235 421.728C339.198 420.924 339.161 420.063 339.124 419.148C339.099 418.219 339.086 417.359 339.086 416.567V400.843H342.057V427.984ZM364.489 403.238C362.991 403.238 361.642 403.497 360.442 404.017C359.254 404.525 358.239 405.267 357.397 406.245C356.568 407.21 355.931 408.38 355.485 409.754C355.04 411.128 354.817 412.675 354.817 414.395C354.817 416.672 355.17 418.652 355.875 420.336C356.593 422.007 357.657 423.3 359.068 424.216C360.491 425.132 362.267 425.59 364.396 425.59C365.609 425.59 366.748 425.491 367.812 425.292C368.889 425.082 369.935 424.822 370.95 424.513V427.26C369.959 427.632 368.92 427.904 367.831 428.077C366.742 428.263 365.448 428.356 363.951 428.356C361.191 428.356 358.882 427.786 357.026 426.648C355.182 425.497 353.796 423.875 352.868 421.784C351.952 419.692 351.494 417.223 351.494 414.376C351.494 412.322 351.778 410.447 352.348 408.751C352.929 407.043 353.771 405.57 354.872 404.333C355.986 403.095 357.348 402.142 358.957 401.474C360.578 400.793 362.435 400.453 364.526 400.453C365.9 400.453 367.224 400.589 368.499 400.861C369.774 401.134 370.925 401.523 371.952 402.031L370.69 404.704C369.823 404.308 368.87 403.968 367.831 403.683C366.803 403.386 365.69 403.238 364.489 403.238ZM380.257 427.984V400.843H383.413V427.984H380.257ZM411.321 427.984L407.98 419.37H397.101L393.778 427.984H390.584L401.204 400.731H404.044L414.589 427.984H411.321ZM407.033 416.567L403.858 408.009C403.784 407.786 403.66 407.421 403.487 406.913C403.326 406.406 403.159 405.88 402.986 405.335C402.812 404.791 402.67 404.351 402.559 404.017C402.435 404.525 402.299 405.032 402.15 405.54C402.014 406.035 401.878 406.499 401.742 406.932C401.606 407.353 401.488 407.712 401.389 408.009L398.159 416.567H407.033ZM421.779 427.984V400.843H424.935V427.984H421.779ZM451.136 420.763C451.136 422.372 450.734 423.745 449.929 424.884C449.137 426.01 448.023 426.87 446.588 427.465C445.152 428.059 443.463 428.356 441.52 428.356C440.492 428.356 439.521 428.306 438.605 428.207C437.689 428.108 436.847 427.966 436.08 427.78C435.313 427.595 434.638 427.366 434.057 427.093V424.067C434.985 424.451 436.117 424.81 437.454 425.144C438.791 425.466 440.189 425.627 441.65 425.627C443.011 425.627 444.162 425.447 445.103 425.088C446.043 424.717 446.755 424.191 447.238 423.51C447.733 422.817 447.98 421.988 447.98 421.023C447.98 420.094 447.776 419.321 447.367 418.702C446.959 418.071 446.278 417.501 445.325 416.994C444.385 416.474 443.098 415.923 441.464 415.342C440.313 414.933 439.298 414.488 438.419 414.005C437.541 413.51 436.804 412.953 436.21 412.334C435.616 411.715 435.164 410.998 434.855 410.181C434.558 409.364 434.409 408.429 434.409 407.377C434.409 405.929 434.774 404.692 435.505 403.665C436.247 402.625 437.268 401.833 438.568 401.288C439.88 400.731 441.383 400.453 443.079 400.453C444.527 400.453 445.864 400.589 447.089 400.861C448.327 401.134 449.459 401.499 450.486 401.957L449.502 404.667C448.525 404.259 447.485 403.918 446.384 403.646C445.294 403.374 444.168 403.238 443.005 403.238C441.841 403.238 440.857 403.411 440.053 403.757C439.261 404.091 438.654 404.568 438.234 405.187C437.813 405.806 437.602 406.542 437.602 407.396C437.602 408.349 437.8 409.141 438.196 409.772C438.605 410.404 439.248 410.967 440.127 411.462C441.018 411.944 442.194 412.452 443.655 412.984C445.251 413.566 446.606 414.185 447.72 414.841C448.834 415.484 449.682 416.276 450.264 417.217C450.845 418.145 451.136 419.327 451.136 420.763Z" fill="white"/>
</g>
<defs>
<clipPath id="clip0_51_136">
<rect width="626" height="525" fill="white"/>
</clipPath>
</defs>
</svg>
