<svg width="624" height="526" viewBox="0 0 624 526" fill="none" xmlns="http://www.w3.org/2000/svg">
<g clip-path="url(#clip0_51_135)">
<path d="M366.854 199.44C380.531 197.629 386.944 189.022 386.944 189.022C387.306 188.703 390.075 188.809 390.075 188.809C390.075 188.809 382.47 199.376 365.512 202.529C352.367 204.979 332.021 202.487 323.798 186.743C317.151 174.024 308.608 159.452 300.214 159.452H297.849V173.364C297.849 180.394 298.019 184.058 298.616 190.833H285.471C286.068 184.037 286.238 180.394 286.238 173.364V140.47C286.238 133.439 286.068 129.775 285.471 123H303.963C319.728 123 333.555 126.217 333.555 141.237C333.555 154.04 323.457 158.28 310.738 159.217C318.621 160.666 330.998 176.367 336.239 186.104C342.162 197.097 356.223 200.846 366.854 199.44ZM297.828 157.875H303.857C313.103 157.875 321.752 154.488 321.752 141.258C321.752 128.028 313.103 124.64 303.857 124.64H297.828V157.875Z" fill="white"/>
<path d="M120 190.855C120.597 184.08 120.767 180.415 120.767 173.385V140.491C120.767 133.461 120.597 129.796 120 123.021H135.744L173.24 187.297L173.41 187.382V140.491C173.41 133.461 173.154 129.796 172.558 123.021H177.692C177.01 129.818 176.84 133.461 176.84 140.491V173.385C176.84 180.415 177.01 184.08 177.692 190.855H161.863L124.453 126.579L124.282 126.494V173.385C124.282 180.415 124.453 184.08 125.049 190.855H120Z" fill="white"/>
<path d="M183.913 181.268C183.913 171.254 194.778 168.549 203.258 167.1C210.544 165.822 214.783 164.309 214.783 158.962C214.783 153.274 212.248 150.227 207.327 150.227C199.529 150.227 197.228 155.319 194.864 158.195C191.817 162.179 186.214 161.327 185.277 156.15C190.965 152.251 199.444 148.608 208.605 148.608C217.766 148.608 224.796 151.91 224.881 161.497V173.704C224.881 179.819 224.881 183.973 226.16 190.833H215.55C215.039 186.849 214.868 184.314 214.868 181.246C212.759 187.531 207.582 192.516 198.251 192.516C191.221 192.516 183.913 189.384 183.913 181.246M214.783 173.896V164.139C213.079 166.504 209.691 167.271 205.196 168.293C198.336 170.083 194.928 173.641 194.928 179.734C194.928 185.827 198.23 189.065 202.981 189.065C210.181 189.065 214.762 182.546 214.762 173.896" fill="white"/>
<path d="M231.912 179.329C234.191 174.919 240.476 175.771 241.414 181.204C241.755 186.125 244.716 190.961 252.279 190.961C258.138 190.961 260.758 187.489 260.758 183.164C260.758 178.584 257.712 176.73 248.21 171.979C240.412 168.08 234.128 165.098 234.128 158.494C234.128 151.293 242.266 148.651 249.232 148.651C257.541 148.651 263.655 152.55 267.043 159.09C264.678 162.563 259.842 161.966 258.564 157.471C257.371 153.146 255.262 150.355 249.403 150.355C244.908 150.355 241.861 152.145 241.861 155.703C241.861 159.687 245.589 161.902 253.557 165.63C262.207 169.7 268.811 172.597 268.811 180.48C268.811 187.766 262.292 192.602 251.853 192.602C241.414 192.602 234.042 188.107 231.933 179.372" fill="white"/>
<path d="M338.093 170.594C338.093 156.938 348.788 148.629 363.445 148.629C378.102 148.629 388.797 156.938 388.797 170.594C388.797 184.25 378.039 192.559 363.445 192.559C348.852 192.559 338.093 184.25 338.093 170.594ZM377.698 170.594C377.698 157.79 372.862 150.249 363.445 150.249C354.028 150.249 349.107 157.79 349.107 170.594C349.107 183.398 353.943 190.94 363.445 190.94C372.947 190.94 377.698 183.483 377.698 170.594Z" fill="white"/>
<path d="M394.507 170.594C394.507 156.512 404.349 148.629 417.238 148.629C427.848 148.629 433.856 154.573 435.731 160.752C433.195 164.48 427.933 163.457 427.081 158.642C426.485 155.255 424.887 150.249 417.75 150.249C409.185 150.249 405.542 157.109 405.542 169.508C405.542 180.202 409.697 189.534 420.392 189.534C428.615 189.534 433.877 183.59 436.412 174.94H437.776C434.985 184.272 429.467 192.58 416.834 192.58C404.2 192.58 394.528 184.783 394.528 170.616" fill="white"/>
<path d="M443.102 181.268C443.102 171.254 453.967 168.549 462.447 167.1C469.733 165.822 473.972 164.309 473.972 158.962C473.972 153.274 471.437 150.227 466.516 150.227C458.718 150.227 456.417 155.319 454.053 158.195C451.006 162.179 445.403 161.327 444.466 156.15C450.154 152.251 458.633 148.608 467.794 148.608C476.955 148.608 483.985 151.91 484.07 161.497V173.704C484.07 179.819 484.07 183.973 485.349 190.833H474.739C474.228 186.849 474.057 184.314 474.057 181.246C471.927 187.531 466.771 192.516 457.44 192.516C450.41 192.516 443.102 189.384 443.102 181.246M473.972 173.896V164.139C472.268 166.504 468.88 167.271 464.385 168.293C457.525 170.083 454.117 173.641 454.117 179.734C454.117 185.827 457.419 189.065 462.17 189.065C469.37 189.065 473.951 182.546 473.951 173.896" fill="white"/>
<path d="M491.101 179.329C493.38 174.919 499.665 175.771 500.603 181.204C500.943 186.125 503.905 190.961 511.468 190.961C517.327 190.961 519.947 187.489 519.947 183.164C519.947 178.584 516.9 176.73 507.399 171.979C499.601 168.08 493.316 165.098 493.316 158.494C493.316 151.293 501.455 148.651 508.421 148.651C516.73 148.651 522.844 152.55 526.232 159.09C523.867 162.563 519.031 161.966 517.753 157.471C516.56 153.146 514.45 150.355 508.592 150.355C504.096 150.355 501.05 152.145 501.05 155.703C501.05 159.687 504.778 161.902 512.746 165.63C521.396 169.7 528 172.597 528 180.48C528 187.766 521.481 192.602 511.042 192.602C500.603 192.602 493.231 188.107 491.122 179.372" fill="white"/>
<path d="M211.374 241.857V225.708H213.484V241.857H211.374Z" fill="white"/>
<path d="M221.856 241.857V225.708H223.965V240.025H232.381V241.857H221.856Z" fill="white"/>
<path d="M239.645 241.857V225.708H241.755V241.857H239.645ZM240.711 234.188V232.355H251.384V234.188H240.711ZM250.319 241.857V225.708H252.428V241.857H250.319Z" fill="white"/>
<path d="M259.565 241.857L265.828 225.708H268.215L274.457 241.857H272.113L268.236 231.056C268.044 230.523 267.874 230.033 267.703 229.543C267.533 229.075 267.384 228.606 267.235 228.137C267.085 227.668 266.936 227.2 266.787 226.688H267.256C267.128 227.157 266.979 227.626 266.83 228.073C266.681 228.521 266.51 229.011 266.34 229.522C266.169 230.033 265.978 230.545 265.786 231.056L261.823 241.857H259.586H259.565ZM262.59 237.106L263.272 235.274H270.899L271.538 237.106H262.59Z" fill="white"/>
<path d="M292.246 241.857V225.708H299.745C300.768 225.708 301.641 225.879 302.387 226.241C303.133 226.603 303.708 227.093 304.091 227.732C304.496 228.372 304.688 229.117 304.688 229.991C304.688 230.8 304.517 231.503 304.198 232.121C303.878 232.739 303.409 233.229 302.834 233.591C302.259 233.953 301.62 234.145 300.896 234.188V233.953C301.535 233.953 302.089 234.06 302.579 234.273C303.069 234.486 303.452 234.805 303.75 235.232C304.049 235.658 304.219 236.148 304.283 236.744L304.624 239.727C304.645 240.004 304.688 240.259 304.709 240.494C304.73 240.728 304.773 240.984 304.794 241.197C304.816 241.431 304.858 241.665 304.879 241.9H302.749C302.728 241.644 302.685 241.367 302.664 241.09C302.621 240.792 302.6 240.494 302.557 240.195C302.557 240.132 302.557 240.068 302.536 240.025C302.536 239.961 302.536 239.919 302.536 239.855L302.28 237.618C302.216 236.979 302.067 236.467 301.854 236.084C301.641 235.7 301.322 235.423 300.938 235.232C300.533 235.061 300.022 234.955 299.383 234.955H293.375V233.122H299.042C299.766 233.122 300.406 233.016 300.938 232.782C301.471 232.547 301.876 232.228 302.153 231.802C302.429 231.375 302.579 230.843 302.579 230.246C302.579 229.671 302.451 229.202 302.216 228.798C301.982 228.414 301.62 228.116 301.151 227.903C300.683 227.711 300.107 227.605 299.426 227.605H293.396L294.419 226.774V241.942H292.31L292.246 241.857Z" fill="white"/>
<path d="M311.761 241.857L318.024 225.708H320.41L326.652 241.857H324.309L320.432 231.056C320.24 230.523 320.069 230.033 319.899 229.543C319.729 229.075 319.579 228.606 319.43 228.137C319.281 227.668 319.132 227.2 318.983 226.688H319.452C319.324 227.157 319.175 227.626 319.025 228.073C318.876 228.521 318.706 229.011 318.535 229.522C318.365 230.033 318.173 230.545 317.982 231.056L314.019 241.857H311.782H311.761ZM314.786 237.106L315.468 235.274H323.095L323.734 237.106H314.786Z" fill="white"/>
<path d="M339.52 242.198C338.178 242.198 337.028 241.985 336.069 241.58C335.11 241.175 334.386 240.557 333.853 239.727C333.321 238.896 333.022 237.873 332.937 236.637H334.961C335.046 237.532 335.259 238.257 335.643 238.81C336.026 239.386 336.538 239.79 337.198 240.067C337.859 240.344 338.668 240.472 339.605 240.472C340.543 240.472 341.267 240.344 341.885 240.11C342.503 239.876 342.972 239.535 343.27 239.087C343.568 238.64 343.739 238.129 343.739 237.511C343.739 237 343.632 236.552 343.398 236.19C343.185 235.828 342.822 235.53 342.311 235.274C341.8 235.018 341.139 234.805 340.309 234.635L338.05 234.166C337.113 233.974 336.303 233.697 335.643 233.378C334.982 233.058 334.45 232.59 334.088 232.036C333.704 231.482 333.512 230.8 333.512 229.969C333.512 229.053 333.725 228.243 334.173 227.562C334.62 226.88 335.281 226.347 336.133 225.964C336.985 225.58 338.029 225.389 339.243 225.389C340.458 225.389 341.459 225.58 342.332 225.943C343.206 226.326 343.888 226.88 344.399 227.604C344.91 228.329 345.187 229.202 345.272 230.246H343.249C343.185 229.564 342.993 228.989 342.652 228.542C342.311 228.073 341.864 227.732 341.267 227.477C340.671 227.242 339.968 227.114 339.158 227.114C338.391 227.114 337.731 227.221 337.177 227.434C336.623 227.647 336.197 227.945 335.92 228.35C335.643 228.755 335.472 229.223 335.472 229.799C335.472 230.246 335.579 230.608 335.771 230.928C335.962 231.247 336.303 231.503 336.772 231.737C337.241 231.972 337.901 232.163 338.732 232.355L341.118 232.845C342.141 233.058 342.972 233.357 343.675 233.761C344.378 234.166 344.868 234.656 345.23 235.274C345.592 235.87 345.762 236.595 345.762 237.426C345.762 238.32 345.549 239.13 345.123 239.854C344.697 240.579 344.015 241.154 343.078 241.58C342.141 242.006 340.969 242.219 339.542 242.219L339.52 242.198Z" fill="white"/>
<path d="M352.132 241.857L358.396 225.708H360.782L367.024 241.857H364.681L360.803 231.056C360.612 230.523 360.441 230.033 360.271 229.543C360.1 229.075 359.951 228.606 359.802 228.137C359.653 227.668 359.504 227.2 359.355 226.688H359.823C359.695 227.157 359.546 227.626 359.397 228.073C359.248 228.521 359.078 229.011 358.907 229.522C358.737 230.033 358.545 230.545 358.353 231.056L354.391 241.857H352.154H352.132ZM355.136 237.106L355.818 235.274H363.445L364.084 237.106H355.136Z" fill="white"/>
<path d="M384.813 246.48V224.899H386.901V246.48H384.813Z" fill="white"/>
<path d="M405.926 241.857V225.708H413.425C414.448 225.708 415.321 225.879 416.067 226.241C416.813 226.603 417.388 227.093 417.771 227.732C418.176 228.372 418.368 229.117 418.368 229.991C418.368 230.8 418.197 231.503 417.878 232.121C417.558 232.739 417.089 233.229 416.514 233.591C415.939 233.953 415.3 234.145 414.576 234.188V233.953C415.215 233.953 415.769 234.06 416.259 234.273C416.749 234.486 417.132 234.805 417.43 235.232C417.729 235.658 417.899 236.148 417.963 236.744L418.304 239.727C418.325 240.004 418.368 240.259 418.389 240.494C418.41 240.728 418.453 240.984 418.474 241.197C418.496 241.431 418.538 241.665 418.56 241.9H416.429C416.408 241.644 416.365 241.367 416.344 241.09C416.301 240.792 416.28 240.494 416.237 240.195C416.237 240.132 416.237 240.068 416.216 240.025C416.216 239.961 416.216 239.919 416.216 239.855L415.96 237.618C415.896 236.979 415.747 236.467 415.534 236.084C415.321 235.7 415.002 235.423 414.618 235.232C414.213 235.061 413.702 234.955 413.063 234.955H407.055V233.122H412.722C413.446 233.122 414.086 233.016 414.618 232.782C415.151 232.547 415.556 232.228 415.833 231.802C416.11 231.375 416.259 230.843 416.259 230.246C416.259 229.671 416.131 229.202 415.896 228.798C415.662 228.414 415.3 228.116 414.831 227.903C414.363 227.711 413.787 227.605 413.106 227.605H407.076L408.099 226.774V241.942H405.99L405.926 241.857Z" fill="white"/>
<path d="M430.66 242.134C429.595 242.134 428.658 241.964 427.87 241.58C427.081 241.218 426.485 240.686 426.08 240.004C425.675 239.322 425.462 238.491 425.462 237.533V236.318H427.571V237.405C427.571 238.023 427.678 238.555 427.933 238.981C428.168 239.407 428.509 239.727 428.977 239.94C429.446 240.153 430 240.26 430.682 240.26C431.321 240.26 431.853 240.153 432.28 239.94C432.706 239.727 433.046 239.407 433.26 238.981C433.473 238.555 433.6 238.023 433.6 237.405V225.666H435.71V237.469C435.71 238.47 435.518 239.322 435.113 240.004C434.73 240.686 434.154 241.218 433.387 241.559C432.642 241.9 431.704 242.092 430.639 242.092L430.66 242.134Z" fill="white"/>
<path d="M234.639 401.843C238.141 401.843 240.697 402.53 242.306 403.903C243.927 405.265 244.738 407.22 244.738 409.77C244.738 410.921 244.546 412.016 244.163 413.056C243.791 414.083 243.185 414.993 242.343 415.785C241.502 416.565 240.394 417.183 239.02 417.641C237.659 418.087 235.988 418.31 234.008 418.31H230.703V428.984H227.547V401.843H234.639ZM234.342 404.535H230.703V415.599H233.655C235.388 415.599 236.829 415.414 237.98 415.042C239.144 414.671 240.016 414.071 240.598 413.241C241.18 412.4 241.471 411.286 241.471 409.9C241.471 408.093 240.895 406.75 239.744 405.871C238.593 404.98 236.792 404.535 234.342 404.535ZM261.174 401.843C263.402 401.843 265.239 402.121 266.688 402.678C268.148 403.223 269.237 404.058 269.955 405.184C270.673 406.311 271.032 407.746 271.032 409.491C271.032 410.927 270.772 412.128 270.252 413.093C269.732 414.046 269.051 414.819 268.21 415.414C267.368 416.008 266.471 416.466 265.518 416.787L272.962 428.984H269.287L262.64 417.66H256.997V428.984H253.841V401.843H261.174ZM260.988 404.572H256.997V414.987H261.304C263.519 414.987 265.147 414.535 266.186 413.631C267.238 412.728 267.764 411.397 267.764 409.64C267.764 407.796 267.207 406.49 266.093 405.723C264.992 404.955 263.29 404.572 260.988 404.572ZM304.269 415.376C304.269 417.468 304.003 419.374 303.47 421.094C302.938 422.802 302.146 424.275 301.094 425.513C300.054 426.738 298.761 427.685 297.214 428.353C295.667 429.022 293.872 429.356 291.83 429.356C289.726 429.356 287.888 429.022 286.316 428.353C284.757 427.685 283.457 426.732 282.418 425.494C281.391 424.257 280.617 422.778 280.097 421.057C279.59 419.337 279.336 417.431 279.336 415.339C279.336 412.567 279.794 410.135 280.71 408.043C281.626 405.952 283.012 404.324 284.868 403.161C286.737 401.997 289.076 401.416 291.886 401.416C294.572 401.416 296.83 401.991 298.662 403.142C300.506 404.293 301.899 405.915 302.839 408.006C303.792 410.085 304.269 412.542 304.269 415.376ZM282.659 415.376C282.659 417.678 282.987 419.671 283.643 421.354C284.299 423.037 285.302 424.337 286.651 425.253C288.012 426.169 289.739 426.627 291.83 426.627C293.934 426.627 295.655 426.169 296.991 425.253C298.34 424.337 299.337 423.037 299.98 421.354C300.624 419.671 300.946 417.678 300.946 415.376C300.946 411.874 300.209 409.139 298.736 407.171C297.276 405.191 294.992 404.2 291.886 404.2C289.782 404.2 288.049 404.652 286.688 405.556C285.326 406.459 284.311 407.746 283.643 409.417C282.987 411.076 282.659 413.062 282.659 415.376ZM309.825 436.132C309.207 436.132 308.662 436.088 308.192 436.002C307.721 435.915 307.319 435.798 306.985 435.649V432.957C307.381 433.081 307.808 433.174 308.266 433.236C308.724 433.31 309.219 433.347 309.751 433.347C310.444 433.347 311.082 433.211 311.663 432.939C312.245 432.666 312.709 432.202 313.056 431.546C313.402 430.89 313.576 429.987 313.576 428.836V401.843H316.75V428.595C316.75 430.29 316.465 431.695 315.896 432.809C315.339 433.923 314.541 434.752 313.501 435.296C312.474 435.853 311.249 436.132 309.825 436.132ZM342.487 428.984H327.375V401.843H342.487V404.627H330.531V413.409H341.8V416.156H330.531V426.2H342.487V428.984ZM360.259 428.984H357.085V404.627H348.545V401.843H368.762V404.627H360.259V428.984ZM399.827 415.376C399.827 417.468 399.561 419.374 399.028 421.094C398.496 422.802 397.704 424.275 396.652 425.513C395.613 426.738 394.319 427.685 392.772 428.353C391.225 429.022 389.43 429.356 387.388 429.356C385.284 429.356 383.446 429.022 381.875 428.353C380.315 427.685 379.016 426.732 377.976 425.494C376.949 424.257 376.175 422.778 375.655 421.057C375.148 419.337 374.894 417.431 374.894 415.339C374.894 412.567 375.352 410.135 376.268 408.043C377.184 405.952 378.57 404.324 380.427 403.161C382.295 401.997 384.635 401.416 387.444 401.416C390.13 401.416 392.388 401.991 394.22 403.142C396.064 404.293 397.457 405.915 398.397 408.006C399.35 410.085 399.827 412.542 399.827 415.376ZM378.217 415.376C378.217 417.678 378.545 419.671 379.201 421.354C379.857 423.037 380.86 424.337 382.209 425.253C383.57 426.169 385.297 426.627 387.388 426.627C389.492 426.627 391.213 426.169 392.549 425.253C393.898 424.337 394.895 423.037 395.538 421.354C396.182 419.671 396.504 417.678 396.504 415.376C396.504 411.874 395.767 409.139 394.294 407.171C392.834 405.191 390.551 404.2 387.444 404.2C385.34 404.2 383.607 404.652 382.246 405.556C380.884 406.459 379.87 407.746 379.201 409.417C378.545 411.076 378.217 413.062 378.217 415.376Z" fill="white"/>
</g>
<defs>
<clipPath id="clip0_51_135">
<rect width="624" height="526" fill="white"/>
</clipPath>
</defs>
</svg>
