<svg width="626" height="525" viewBox="0 0 626 525" fill="none" xmlns="http://www.w3.org/2000/svg">
<g clip-path="url(#clip0_51_137)">
<path d="M366.854 198.44C380.531 196.629 386.944 188.022 386.944 188.022C387.306 187.703 390.075 187.809 390.075 187.809C390.075 187.809 382.47 198.376 365.512 201.529C352.367 203.979 332.021 201.487 323.798 185.743C317.151 173.024 308.608 158.452 300.214 158.452H297.849V172.364C297.849 179.394 298.019 183.058 298.616 189.833H285.471C286.068 183.037 286.238 179.394 286.238 172.364V139.47C286.238 132.439 286.068 128.775 285.471 122H303.963C319.728 122 333.555 125.217 333.555 140.237C333.555 153.04 323.457 157.28 310.738 158.217C318.621 159.666 330.998 175.367 336.239 185.104C342.162 196.097 356.223 199.846 366.854 198.44ZM297.828 156.875H303.857C313.103 156.875 321.752 153.488 321.752 140.258C321.752 127.028 313.103 123.64 303.857 123.64H297.828V156.875Z" fill="white"/>
<path d="M120 189.855C120.597 183.08 120.767 179.415 120.767 172.385V139.491C120.767 132.461 120.597 128.796 120 122.021H135.744L173.24 186.297L173.41 186.382V139.491C173.41 132.461 173.154 128.796 172.558 122.021H177.692C177.01 128.818 176.84 132.461 176.84 139.491V172.385C176.84 179.415 177.01 183.08 177.692 189.855H161.863L124.453 125.579L124.282 125.494V172.385C124.282 179.415 124.453 183.08 125.049 189.855H120Z" fill="white"/>
<path d="M183.913 180.268C183.913 170.255 194.778 167.549 203.258 166.101C210.544 164.822 214.783 163.31 214.783 157.962C214.783 152.274 212.248 149.228 207.327 149.228C199.529 149.228 197.228 154.319 194.864 157.195C191.817 161.179 186.214 160.327 185.277 155.15C190.965 151.251 199.444 147.608 208.605 147.608C217.766 147.608 224.796 150.911 224.881 160.498V172.705C224.881 178.819 224.881 182.974 226.16 189.834H215.55C215.039 185.85 214.868 183.315 214.868 180.247C212.759 186.531 207.582 191.517 198.251 191.517C191.221 191.517 183.913 188.385 183.913 180.247M214.783 172.897V163.139C213.079 165.504 209.691 166.271 205.196 167.294C198.336 169.083 194.928 172.641 194.928 178.734C194.928 184.827 198.23 188.065 202.981 188.065C210.181 188.065 214.762 181.546 214.762 172.897" fill="white"/>
<path d="M231.912 178.329C234.191 173.919 240.476 174.771 241.414 180.203C241.755 185.125 244.716 189.961 252.279 189.961C258.138 189.961 260.758 186.488 260.758 182.163C260.758 177.583 257.712 175.73 248.21 170.979C240.412 167.08 234.128 164.097 234.128 157.493C234.128 150.292 242.266 147.65 249.232 147.65C257.541 147.65 263.655 151.549 267.043 158.09C264.678 161.562 259.842 160.966 258.564 156.47C257.371 152.146 255.262 149.355 249.403 149.355C244.908 149.355 241.861 151.144 241.861 154.702C241.861 158.686 245.589 160.902 253.557 164.63C262.207 168.699 268.811 171.597 268.811 179.479C268.811 186.765 262.292 191.601 251.853 191.601C241.414 191.601 234.042 187.106 231.933 178.371" fill="white"/>
<path d="M338.093 169.595C338.093 155.939 348.788 147.63 363.445 147.63C378.102 147.63 388.797 155.939 388.797 169.595C388.797 183.251 378.039 191.56 363.445 191.56C348.852 191.56 338.093 183.251 338.093 169.595ZM377.698 169.595C377.698 156.791 372.862 149.249 363.445 149.249C354.028 149.249 349.107 156.791 349.107 169.595C349.107 182.399 353.943 189.94 363.445 189.94C372.947 189.94 377.698 182.484 377.698 169.595Z" fill="white"/>
<path d="M394.507 169.595C394.507 155.512 404.349 147.63 417.238 147.63C427.848 147.63 433.856 153.574 435.731 159.752C433.195 163.48 427.933 162.458 427.081 157.643C426.485 154.256 424.887 149.249 417.75 149.249C409.185 149.249 405.542 156.109 405.542 168.508C405.542 179.203 409.697 188.534 420.392 188.534C428.615 188.534 433.877 182.59 436.412 173.941H437.776C434.985 183.272 429.467 191.581 416.834 191.581C404.2 191.581 394.528 183.783 394.528 169.616" fill="white"/>
<path d="M443.102 180.268C443.102 170.255 453.967 167.549 462.447 166.101C469.733 164.822 473.972 163.31 473.972 157.962C473.972 152.274 471.437 149.228 466.516 149.228C458.718 149.228 456.417 154.319 454.053 157.195C451.006 161.179 445.403 160.327 444.466 155.15C450.154 151.251 458.633 147.608 467.794 147.608C476.955 147.608 483.985 150.911 484.07 160.498V172.705C484.07 178.819 484.07 182.974 485.349 189.834H474.739C474.228 185.85 474.057 183.315 474.057 180.247C471.927 186.531 466.771 191.517 457.44 191.517C450.41 191.517 443.102 188.385 443.102 180.247M473.972 172.897V163.139C472.268 165.504 468.88 166.271 464.385 167.294C457.525 169.083 454.117 172.641 454.117 178.734C454.117 184.827 457.419 188.065 462.17 188.065C469.37 188.065 473.951 181.546 473.951 172.897" fill="white"/>
<path d="M491.101 178.329C493.38 173.919 499.665 174.771 500.603 180.203C500.943 185.125 503.905 189.961 511.468 189.961C517.327 189.961 519.947 186.488 519.947 182.163C519.947 177.583 516.9 175.73 507.399 170.979C499.601 167.08 493.316 164.097 493.316 157.493C493.316 150.292 501.455 147.65 508.421 147.65C516.73 147.65 522.844 151.549 526.232 158.09C523.867 161.562 519.031 160.966 517.753 156.47C516.56 152.146 514.45 149.355 508.592 149.355C504.096 149.355 501.05 151.144 501.05 154.702C501.05 158.686 504.778 160.902 512.746 164.63C521.396 168.699 528 171.597 528 179.479C528 186.765 521.481 191.601 511.042 191.601C500.603 191.601 493.231 187.106 491.122 178.371" fill="white"/>
<path d="M211.374 240.857V224.708H213.484V240.857H211.374Z" fill="white"/>
<path d="M221.856 240.857V224.708H223.965V239.025H232.381V240.857H221.856Z" fill="white"/>
<path d="M239.645 240.857V224.708H241.755V240.857H239.645ZM240.711 233.187V231.355H251.384V233.187H240.711ZM250.319 240.857V224.708H252.428V240.857H250.319Z" fill="white"/>
<path d="M259.565 240.857L265.828 224.708H268.215L274.457 240.857H272.113L268.236 230.055C268.044 229.523 267.874 229.033 267.703 228.543C267.533 228.074 267.384 227.605 267.235 227.137C267.085 226.668 266.936 226.199 266.787 225.688H267.256C267.128 226.157 266.979 226.625 266.83 227.073C266.681 227.52 266.51 228.01 266.34 228.521C266.169 229.033 265.978 229.544 265.786 230.055L261.823 240.857H259.586H259.565ZM262.59 236.106L263.272 234.274H270.899L271.538 236.106H262.59Z" fill="white"/>
<path d="M292.246 240.857V224.708H299.745C300.768 224.708 301.641 224.878 302.387 225.241C303.133 225.603 303.708 226.093 304.091 226.732C304.496 227.371 304.688 228.117 304.688 228.99C304.688 229.8 304.517 230.503 304.198 231.121C303.878 231.738 303.409 232.228 302.834 232.591C302.259 232.953 301.62 233.145 300.896 233.187V232.953C301.535 232.953 302.089 233.059 302.579 233.272C303.069 233.485 303.452 233.805 303.75 234.231C304.049 234.657 304.219 235.147 304.283 235.744L304.624 238.726C304.645 239.003 304.688 239.259 304.709 239.493C304.73 239.728 304.773 239.983 304.794 240.196C304.816 240.431 304.858 240.665 304.879 240.899H302.749C302.728 240.644 302.685 240.367 302.664 240.09C302.621 239.792 302.6 239.493 302.557 239.195C302.557 239.131 302.557 239.067 302.536 239.025C302.536 238.961 302.536 238.918 302.536 238.854L302.28 236.617C302.216 235.978 302.067 235.467 301.854 235.083C301.641 234.7 301.322 234.423 300.938 234.231C300.533 234.061 300.022 233.954 299.383 233.954H293.375V232.122H299.042C299.766 232.122 300.406 232.015 300.938 231.781C301.471 231.547 301.876 231.227 302.153 230.801C302.429 230.375 302.579 229.842 302.579 229.246C302.579 228.671 302.451 228.202 302.216 227.797C301.982 227.414 301.62 227.115 301.151 226.902C300.683 226.711 300.107 226.604 299.426 226.604H293.396L294.419 225.773V240.942H292.31L292.246 240.857Z" fill="white"/>
<path d="M311.761 240.857L318.024 224.708H320.41L326.652 240.857H324.309L320.432 230.055C320.24 229.523 320.069 229.033 319.899 228.543C319.729 228.074 319.579 227.605 319.43 227.137C319.281 226.668 319.132 226.199 318.983 225.688H319.452C319.324 226.157 319.175 226.625 319.025 227.073C318.876 227.52 318.706 228.01 318.535 228.521C318.365 229.033 318.173 229.544 317.982 230.055L314.019 240.857H311.782H311.761ZM314.786 236.106L315.468 234.274H323.095L323.734 236.106H314.786Z" fill="white"/>
<path d="M339.52 241.198C338.178 241.198 337.028 240.985 336.069 240.58C335.11 240.175 334.386 239.557 333.853 238.727C333.321 237.896 333.022 236.873 332.937 235.637H334.961C335.046 236.532 335.259 237.257 335.643 237.81C336.026 238.386 336.538 238.79 337.198 239.067C337.859 239.344 338.668 239.472 339.605 239.472C340.543 239.472 341.267 239.344 341.885 239.11C342.503 238.876 342.972 238.535 343.27 238.087C343.568 237.64 343.739 237.129 343.739 236.511C343.739 236 343.632 235.552 343.398 235.19C343.185 234.828 342.822 234.53 342.311 234.274C341.8 234.018 341.139 233.805 340.309 233.635L338.05 233.166C337.113 232.974 336.303 232.697 335.643 232.378C334.982 232.058 334.45 231.59 334.088 231.036C333.704 230.482 333.512 229.8 333.512 228.969C333.512 228.053 333.725 227.243 334.173 226.562C334.62 225.88 335.281 225.347 336.133 224.964C336.985 224.58 338.029 224.389 339.243 224.389C340.458 224.389 341.459 224.58 342.332 224.943C343.206 225.326 343.888 225.88 344.399 226.604C344.91 227.329 345.187 228.202 345.272 229.246H343.249C343.185 228.564 342.993 227.989 342.652 227.542C342.311 227.073 341.864 226.732 341.267 226.477C340.671 226.242 339.968 226.114 339.158 226.114C338.391 226.114 337.731 226.221 337.177 226.434C336.623 226.647 336.197 226.945 335.92 227.35C335.643 227.755 335.472 228.223 335.472 228.799C335.472 229.246 335.579 229.608 335.771 229.928C335.962 230.247 336.303 230.503 336.772 230.737C337.241 230.972 337.901 231.163 338.732 231.355L341.118 231.845C342.141 232.058 342.972 232.357 343.675 232.761C344.378 233.166 344.868 233.656 345.23 234.274C345.592 234.87 345.762 235.595 345.762 236.426C345.762 237.32 345.549 238.13 345.123 238.854C344.697 239.579 344.015 240.154 343.078 240.58C342.141 241.006 340.969 241.219 339.542 241.219L339.52 241.198Z" fill="white"/>
<path d="M352.132 240.857L358.396 224.708H360.782L367.024 240.857H364.681L360.803 230.055C360.612 229.523 360.441 229.033 360.271 228.543C360.1 228.074 359.951 227.605 359.802 227.137C359.653 226.668 359.504 226.199 359.355 225.688H359.823C359.695 226.157 359.546 226.625 359.397 227.073C359.248 227.52 359.078 228.01 358.907 228.521C358.737 229.033 358.545 229.544 358.353 230.055L354.391 240.857H352.154H352.132ZM355.136 236.106L355.818 234.274H363.445L364.084 236.106H355.136Z" fill="white"/>
<path d="M384.813 245.48V223.898H386.901V245.48H384.813Z" fill="white"/>
<path d="M405.926 240.857V224.708H413.425C414.448 224.708 415.321 224.878 416.067 225.241C416.813 225.603 417.388 226.093 417.771 226.732C418.176 227.371 418.368 228.117 418.368 228.99C418.368 229.8 418.197 230.503 417.878 231.121C417.558 231.738 417.089 232.228 416.514 232.591C415.939 232.953 415.3 233.145 414.576 233.187V232.953C415.215 232.953 415.769 233.059 416.259 233.272C416.749 233.485 417.132 233.805 417.43 234.231C417.729 234.657 417.899 235.147 417.963 235.744L418.304 238.726C418.325 239.003 418.368 239.259 418.389 239.493C418.41 239.728 418.453 239.983 418.474 240.196C418.496 240.431 418.538 240.665 418.56 240.899H416.429C416.408 240.644 416.365 240.367 416.344 240.09C416.301 239.792 416.28 239.493 416.237 239.195C416.237 239.131 416.237 239.067 416.216 239.025C416.216 238.961 416.216 238.918 416.216 238.854L415.96 236.617C415.896 235.978 415.747 235.467 415.534 235.083C415.321 234.7 415.002 234.423 414.618 234.231C414.213 234.061 413.702 233.954 413.063 233.954H407.055V232.122H412.722C413.446 232.122 414.086 232.015 414.618 231.781C415.151 231.547 415.556 231.227 415.833 230.801C416.11 230.375 416.259 229.842 416.259 229.246C416.259 228.671 416.131 228.202 415.896 227.797C415.662 227.414 415.3 227.115 414.831 226.902C414.363 226.711 413.787 226.604 413.106 226.604H407.076L408.099 225.773V240.942H405.99L405.926 240.857Z" fill="white"/>
<path d="M430.66 241.133C429.595 241.133 428.658 240.963 427.87 240.579C427.081 240.217 426.485 239.685 426.08 239.003C425.675 238.321 425.462 237.49 425.462 236.532V235.317H427.571V236.404C427.571 237.022 427.678 237.554 427.933 237.98C428.168 238.406 428.509 238.726 428.977 238.939C429.446 239.152 430 239.259 430.682 239.259C431.321 239.259 431.853 239.152 432.28 238.939C432.706 238.726 433.046 238.406 433.26 237.98C433.473 237.554 433.6 237.022 433.6 236.404V224.665H435.71V236.468C435.71 237.469 435.518 238.321 435.113 239.003C434.73 239.685 434.154 240.217 433.387 240.558C432.642 240.899 431.704 241.091 430.639 241.091L430.66 241.133Z" fill="white"/>
<path d="M260.874 400.843L251.127 427.984H247.953L238.206 400.843H241.511L247.86 418.721C248.12 419.438 248.349 420.125 248.547 420.781C248.757 421.437 248.943 422.068 249.104 422.675C249.265 423.281 249.407 423.869 249.531 424.439C249.654 423.869 249.797 423.281 249.958 422.675C250.119 422.056 250.304 421.419 250.515 420.763C250.725 420.094 250.96 419.395 251.22 418.665L257.532 400.843H260.874ZM268.027 427.984V400.843H271.183V427.984H268.027ZM275.175 392.043V392.414C274.927 392.773 274.587 393.206 274.154 393.714C273.733 394.209 273.262 394.735 272.743 395.292C272.223 395.836 271.697 396.356 271.165 396.851C270.645 397.346 270.162 397.773 269.717 398.132H267.656V397.687C268.052 397.216 268.485 396.653 268.955 395.997C269.426 395.329 269.884 394.648 270.329 393.955C270.775 393.25 271.146 392.612 271.443 392.043H275.175ZM303.622 414.154C303.622 417.211 303.065 419.766 301.951 421.821C300.837 423.863 299.222 425.404 297.106 426.443C295.002 427.471 292.446 427.984 289.438 427.984H282.068V400.843H290.255C293.015 400.843 295.391 401.35 297.384 402.365C299.377 403.367 300.911 404.859 301.988 406.839C303.077 408.807 303.622 411.245 303.622 414.154ZM300.299 414.265C300.299 411.827 299.89 409.816 299.073 408.231C298.269 406.647 297.081 405.471 295.509 404.704C293.95 403.924 292.037 403.535 289.772 403.535H285.224V425.274H289.067C292.805 425.274 295.608 424.352 297.477 422.508C299.358 420.664 300.299 417.916 300.299 414.265ZM328.189 427.984H313.077V400.843H328.189V403.627H316.233V412.409H327.502V415.156H316.233V425.2H328.189V427.984ZM361.166 414.376C361.166 416.468 360.9 418.374 360.368 420.094C359.835 421.802 359.043 423.275 357.991 424.513C356.952 425.738 355.658 426.685 354.111 427.353C352.564 428.022 350.77 428.356 348.728 428.356C346.624 428.356 344.786 428.022 343.214 427.353C341.654 426.685 340.355 425.732 339.315 424.494C338.288 423.257 337.514 421.778 336.995 420.057C336.487 418.337 336.233 416.431 336.233 414.339C336.233 411.567 336.691 409.135 337.607 407.043C338.523 404.952 339.909 403.324 341.766 402.161C343.635 400.997 345.974 400.416 348.783 400.416C351.469 400.416 353.728 400.991 355.559 402.142C357.403 403.293 358.796 404.915 359.736 407.006C360.689 409.085 361.166 411.542 361.166 414.376ZM339.557 414.376C339.557 416.678 339.885 418.671 340.54 420.354C341.196 422.037 342.199 423.337 343.548 424.253C344.909 425.169 346.636 425.627 348.728 425.627C350.832 425.627 352.552 425.169 353.889 424.253C355.238 423.337 356.234 422.037 356.877 420.354C357.521 418.671 357.843 416.678 357.843 414.376C357.843 410.874 357.106 408.139 355.634 406.171C354.173 404.191 351.89 403.2 348.783 403.2C346.679 403.2 344.947 403.652 343.585 404.556C342.224 405.459 341.209 406.746 340.54 408.417C339.885 410.076 339.557 412.062 339.557 414.376ZM385.956 420.763C385.956 422.372 385.554 423.745 384.749 424.884C383.957 426.01 382.843 426.87 381.408 427.465C379.972 428.059 378.282 428.356 376.339 428.356C375.312 428.356 374.341 428.306 373.425 428.207C372.509 428.108 371.667 427.966 370.9 427.78C370.133 427.595 369.458 427.366 368.876 427.093V424.067C369.805 424.451 370.937 424.81 372.274 425.144C373.61 425.466 375.009 425.627 376.469 425.627C377.831 425.627 378.982 425.447 379.922 425.088C380.863 424.717 381.575 424.191 382.057 423.51C382.552 422.817 382.8 421.988 382.8 421.023C382.8 420.094 382.596 419.321 382.187 418.702C381.779 418.071 381.098 417.501 380.145 416.994C379.204 416.474 377.917 415.923 376.284 415.342C375.133 414.933 374.118 414.488 373.239 414.005C372.36 413.51 371.624 412.953 371.03 412.334C370.436 411.715 369.984 410.998 369.675 410.181C369.378 409.364 369.229 408.429 369.229 407.377C369.229 405.929 369.594 404.692 370.324 403.665C371.067 402.625 372.088 401.833 373.388 401.288C374.699 400.731 376.203 400.453 377.899 400.453C379.347 400.453 380.683 400.589 381.909 400.861C383.146 401.134 384.279 401.499 385.306 401.957L384.322 404.667C383.344 404.259 382.305 403.918 381.203 403.646C380.114 403.374 378.988 403.238 377.825 403.238C376.661 403.238 375.677 403.411 374.873 403.757C374.081 404.091 373.474 404.568 373.053 405.187C372.633 405.806 372.422 406.542 372.422 407.396C372.422 408.349 372.62 409.141 373.016 409.772C373.425 410.404 374.068 410.967 374.947 411.462C375.838 411.944 377.014 412.452 378.474 412.984C380.071 413.566 381.426 414.185 382.54 414.841C383.654 415.484 384.502 416.276 385.083 417.217C385.665 418.145 385.956 419.327 385.956 420.763Z" fill="white"/>
</g>
<defs>
<clipPath id="clip0_51_137">
<rect width="626" height="525" fill="white"/>
</clipPath>
</defs>
</svg>
