<svg width="638" height="540" viewBox="0 0 638 540" fill="none" xmlns="http://www.w3.org/2000/svg">
<path d="M364.854 213.44C378.531 211.629 384.944 203.022 384.944 203.022C385.306 202.703 388.075 202.809 388.075 202.809C388.075 202.809 380.47 213.376 363.512 216.529C350.367 218.979 330.021 216.487 321.798 200.743C315.151 188.024 306.608 173.452 298.214 173.452H295.849V187.364C295.849 194.394 296.019 198.058 296.616 204.833H283.471C284.068 198.037 284.238 194.394 284.238 187.364V154.47C284.238 147.439 284.068 143.775 283.471 137H301.963C317.728 137 331.555 140.217 331.555 155.237C331.555 168.04 321.457 172.28 308.738 173.217C316.621 174.666 328.998 190.367 334.239 200.104C340.162 211.097 354.223 214.846 364.854 213.44ZM295.828 171.875H301.857C311.103 171.875 319.752 168.488 319.752 155.258C319.752 142.028 311.103 138.64 301.857 138.64H295.828V171.875Z" fill="white"/>
<path d="M118 204.854C118.597 198.08 118.767 194.415 118.767 187.385V154.491C118.767 147.46 118.597 143.796 118 137.021H133.744L171.24 201.297L171.41 201.382V154.491C171.41 147.46 171.154 143.796 170.558 137.021H175.692C175.01 143.817 174.84 147.46 174.84 154.491V187.385C174.84 194.415 175.01 198.08 175.692 204.854H159.863L122.453 140.579L122.282 140.494V187.385C122.282 194.415 122.453 198.08 123.049 204.854H118Z" fill="white"/>
<path d="M181.913 195.268C181.913 185.255 192.778 182.549 201.258 181.1C208.544 179.822 212.783 178.309 212.783 172.962C212.783 167.274 210.248 164.227 205.327 164.227C197.529 164.227 195.228 169.319 192.864 172.195C189.817 176.179 184.214 175.327 183.277 170.15C188.965 166.251 197.444 162.608 206.605 162.608C215.766 162.608 222.796 165.91 222.881 175.497V187.705C222.881 193.819 222.881 197.973 224.16 204.833H213.55C213.039 200.849 212.868 198.314 212.868 195.246C210.759 201.531 205.582 206.516 196.251 206.516C189.221 206.516 181.913 203.385 181.913 195.246M212.783 187.896V178.139C211.079 180.504 207.691 181.271 203.196 182.293C196.336 184.083 192.928 187.641 192.928 193.734C192.928 199.827 196.23 203.065 200.981 203.065C208.181 203.065 212.762 196.546 212.762 187.896" fill="white"/>
<path d="M229.912 193.329C232.191 188.919 238.476 189.771 239.414 195.204C239.755 200.125 242.716 204.961 250.279 204.961C256.138 204.961 258.758 201.489 258.758 197.164C258.758 192.584 255.712 190.73 246.21 185.979C238.412 182.08 232.128 179.098 232.128 172.494C232.128 165.293 240.266 162.651 247.232 162.651C255.541 162.651 261.655 166.55 265.043 173.09C262.678 176.563 257.842 175.966 256.564 171.471C255.371 167.146 253.262 164.355 247.403 164.355C242.908 164.355 239.861 166.145 239.861 169.703C239.861 173.687 243.589 175.902 251.557 179.63C260.207 183.7 266.811 186.597 266.811 194.48C266.811 201.766 260.292 206.602 249.853 206.602C239.414 206.602 232.042 202.107 229.933 193.372" fill="white"/>
<path d="M336.093 184.594C336.093 170.938 346.788 162.629 361.445 162.629C376.102 162.629 386.797 170.938 386.797 184.594C386.797 198.25 376.039 206.559 361.445 206.559C346.852 206.559 336.093 198.25 336.093 184.594ZM375.698 184.594C375.698 171.79 370.862 164.249 361.445 164.249C352.028 164.249 347.107 171.79 347.107 184.594C347.107 197.398 351.943 204.94 361.445 204.94C370.947 204.94 375.698 197.483 375.698 184.594Z" fill="white"/>
<path d="M392.507 184.594C392.507 170.512 402.349 162.629 415.238 162.629C425.848 162.629 431.856 168.573 433.731 174.752C431.195 178.48 425.933 177.457 425.081 172.642C424.485 169.255 422.887 164.249 415.75 164.249C407.185 164.249 403.542 171.109 403.542 183.508C403.542 194.202 407.697 203.534 418.392 203.534C426.615 203.534 431.877 197.59 434.412 188.94H435.776C432.985 198.272 427.467 206.58 414.834 206.58C402.2 206.58 392.528 198.783 392.528 184.616" fill="white"/>
<path d="M441.102 195.268C441.102 185.255 451.967 182.549 460.447 181.1C467.733 179.822 471.972 178.309 471.972 172.962C471.972 167.274 469.437 164.227 464.516 164.227C456.718 164.227 454.417 169.319 452.053 172.195C449.006 176.179 443.403 175.327 442.466 170.15C448.154 166.251 456.633 162.608 465.794 162.608C474.955 162.608 481.985 165.91 482.07 175.497V187.705C482.07 193.819 482.07 197.973 483.349 204.833H472.739C472.228 200.849 472.057 198.314 472.057 195.246C469.927 201.531 464.771 206.516 455.44 206.516C448.41 206.516 441.102 203.385 441.102 195.246M471.972 187.896V178.139C470.268 180.504 466.88 181.271 462.385 182.293C455.525 184.083 452.117 187.641 452.117 193.734C452.117 199.827 455.419 203.065 460.17 203.065C467.37 203.065 471.951 196.546 471.951 187.896" fill="white"/>
<path d="M489.101 193.329C491.38 188.919 497.665 189.771 498.603 195.204C498.943 200.125 501.905 204.961 509.468 204.961C515.327 204.961 517.947 201.489 517.947 197.164C517.947 192.584 514.9 190.73 505.399 185.979C497.601 182.08 491.316 179.098 491.316 172.494C491.316 165.293 499.455 162.651 506.421 162.651C514.73 162.651 520.844 166.55 524.232 173.09C521.867 176.563 517.031 175.966 515.753 171.471C514.56 167.146 512.45 164.355 506.592 164.355C502.096 164.355 499.05 166.145 499.05 169.703C499.05 173.687 502.778 175.902 510.746 179.63C519.396 183.7 526 186.597 526 194.48C526 201.766 519.481 206.602 509.042 206.602C498.603 206.602 491.231 202.107 489.122 193.372" fill="white"/>
<path d="M209.374 255.857V239.708H211.484V255.857H209.374Z" fill="white"/>
<path d="M219.856 255.857V239.708H221.965V254.025H230.381V255.857H219.856Z" fill="white"/>
<path d="M237.645 255.857V239.708H239.755V255.857H237.645ZM238.711 248.188V246.355H249.384V248.188H238.711ZM248.319 255.857V239.708H250.428V255.857H248.319Z" fill="white"/>
<path d="M257.565 255.857L263.828 239.708H266.215L272.457 255.857H270.113L266.236 245.056C266.044 244.523 265.874 244.033 265.703 243.543C265.533 243.075 265.384 242.606 265.235 242.137C265.085 241.668 264.936 241.2 264.787 240.688H265.256C265.128 241.157 264.979 241.626 264.83 242.073C264.681 242.521 264.51 243.011 264.34 243.522C264.169 244.033 263.978 244.545 263.786 245.056L259.823 255.857H257.586H257.565ZM260.59 251.106L261.272 249.274H268.899L269.538 251.106H260.59Z" fill="white"/>
<path d="M290.246 255.857V239.708H297.745C298.768 239.708 299.641 239.879 300.387 240.241C301.133 240.603 301.708 241.093 302.091 241.732C302.496 242.372 302.688 243.117 302.688 243.991C302.688 244.8 302.517 245.503 302.198 246.121C301.878 246.739 301.409 247.229 300.834 247.591C300.259 247.953 299.62 248.145 298.896 248.188V247.953C299.535 247.953 300.089 248.06 300.579 248.273C301.069 248.486 301.452 248.805 301.75 249.232C302.049 249.658 302.219 250.148 302.283 250.744L302.624 253.727C302.645 254.004 302.688 254.259 302.709 254.494C302.73 254.728 302.773 254.984 302.794 255.197C302.816 255.431 302.858 255.665 302.879 255.9H300.749C300.728 255.644 300.685 255.367 300.664 255.09C300.621 254.792 300.6 254.494 300.557 254.195C300.557 254.132 300.557 254.068 300.536 254.025C300.536 253.961 300.536 253.919 300.536 253.855L300.28 251.618C300.216 250.979 300.067 250.467 299.854 250.084C299.641 249.7 299.322 249.423 298.938 249.232C298.533 249.061 298.022 248.955 297.383 248.955H291.375V247.122H297.042C297.766 247.122 298.406 247.016 298.938 246.782C299.471 246.547 299.876 246.228 300.153 245.802C300.429 245.375 300.579 244.843 300.579 244.246C300.579 243.671 300.451 243.202 300.216 242.798C299.982 242.414 299.62 242.116 299.151 241.903C298.683 241.711 298.107 241.605 297.426 241.605H291.396L292.419 240.774V255.942H290.31L290.246 255.857Z" fill="white"/>
<path d="M309.761 255.857L316.024 239.708H318.41L324.652 255.857H322.309L318.432 245.056C318.24 244.523 318.069 244.033 317.899 243.543C317.729 243.075 317.579 242.606 317.43 242.137C317.281 241.668 317.132 241.2 316.983 240.688H317.452C317.324 241.157 317.175 241.626 317.025 242.073C316.876 242.521 316.706 243.011 316.535 243.522C316.365 244.033 316.173 244.545 315.982 245.056L312.019 255.857H309.782H309.761ZM312.786 251.106L313.468 249.274H321.095L321.734 251.106H312.786Z" fill="white"/>
<path d="M337.52 256.198C336.178 256.198 335.028 255.985 334.069 255.58C333.11 255.175 332.386 254.558 331.853 253.727C331.321 252.896 331.022 251.873 330.937 250.638H332.961C333.046 251.532 333.259 252.257 333.643 252.811C334.026 253.386 334.538 253.791 335.198 254.068C335.859 254.345 336.668 254.472 337.605 254.472C338.543 254.472 339.267 254.345 339.885 254.11C340.503 253.876 340.972 253.535 341.27 253.088C341.568 252.64 341.739 252.129 341.739 251.511C341.739 251 341.632 250.552 341.398 250.19C341.185 249.828 340.822 249.53 340.311 249.274C339.8 249.018 339.139 248.805 338.309 248.635L336.05 248.166C335.113 247.975 334.303 247.698 333.643 247.378C332.982 247.058 332.45 246.59 332.088 246.036C331.704 245.482 331.512 244.8 331.512 243.969C331.512 243.053 331.725 242.244 332.173 241.562C332.62 240.88 333.281 240.348 334.133 239.964C334.985 239.581 336.029 239.389 337.243 239.389C338.458 239.389 339.459 239.581 340.332 239.943C341.206 240.326 341.888 240.88 342.399 241.605C342.91 242.329 343.187 243.202 343.272 244.246H341.249C341.185 243.565 340.993 242.989 340.652 242.542C340.311 242.073 339.864 241.732 339.267 241.477C338.671 241.242 337.968 241.115 337.158 241.115C336.391 241.115 335.731 241.221 335.177 241.434C334.623 241.647 334.197 241.945 333.92 242.35C333.643 242.755 333.472 243.224 333.472 243.799C333.472 244.246 333.579 244.609 333.771 244.928C333.962 245.248 334.303 245.503 334.772 245.738C335.241 245.972 335.901 246.164 336.732 246.355L339.118 246.845C340.141 247.058 340.972 247.357 341.675 247.762C342.378 248.166 342.868 248.656 343.23 249.274C343.592 249.871 343.762 250.595 343.762 251.426C343.762 252.321 343.549 253.13 343.123 253.855C342.697 254.579 342.015 255.154 341.078 255.58C340.141 256.006 338.969 256.219 337.542 256.219L337.52 256.198Z" fill="white"/>
<path d="M350.132 255.857L356.396 239.708H358.782L365.024 255.857H362.681L358.803 245.056C358.612 244.523 358.441 244.033 358.271 243.543C358.1 243.075 357.951 242.606 357.802 242.137C357.653 241.668 357.504 241.2 357.355 240.688H357.823C357.695 241.157 357.546 241.626 357.397 242.073C357.248 242.521 357.078 243.011 356.907 243.522C356.737 244.033 356.545 244.545 356.353 245.056L352.391 255.857H350.154H350.132ZM353.136 251.106L353.818 249.274H361.445L362.084 251.106H353.136Z" fill="white"/>
<path d="M382.813 260.48V238.899H384.901V260.48H382.813Z" fill="white"/>
<path d="M403.926 255.857V239.708H411.425C412.448 239.708 413.321 239.879 414.067 240.241C414.813 240.603 415.388 241.093 415.771 241.732C416.176 242.372 416.368 243.117 416.368 243.991C416.368 244.8 416.197 245.503 415.878 246.121C415.558 246.739 415.089 247.229 414.514 247.591C413.939 247.953 413.3 248.145 412.576 248.188V247.953C413.215 247.953 413.769 248.06 414.259 248.273C414.749 248.486 415.132 248.805 415.43 249.232C415.729 249.658 415.899 250.148 415.963 250.744L416.304 253.727C416.325 254.004 416.368 254.259 416.389 254.494C416.41 254.728 416.453 254.984 416.474 255.197C416.496 255.431 416.538 255.665 416.56 255.9H414.429C414.408 255.644 414.365 255.367 414.344 255.09C414.301 254.792 414.28 254.494 414.237 254.195C414.237 254.132 414.237 254.068 414.216 254.025C414.216 253.961 414.216 253.919 414.216 253.855L413.96 251.618C413.896 250.979 413.747 250.467 413.534 250.084C413.321 249.7 413.002 249.423 412.618 249.232C412.213 249.061 411.702 248.955 411.063 248.955H405.055V247.122H410.722C411.446 247.122 412.086 247.016 412.618 246.782C413.151 246.547 413.556 246.228 413.833 245.802C414.11 245.375 414.259 244.843 414.259 244.246C414.259 243.671 414.131 243.202 413.896 242.798C413.662 242.414 413.3 242.116 412.831 241.903C412.363 241.711 411.787 241.605 411.106 241.605H405.076L406.099 240.774V255.942H403.99L403.926 255.857Z" fill="white"/>
<path d="M428.66 256.134C427.595 256.134 426.658 255.964 425.87 255.58C425.081 255.218 424.485 254.686 424.08 254.004C423.675 253.322 423.462 252.491 423.462 251.533V250.318H425.571V251.405C425.571 252.023 425.678 252.555 425.933 252.981C426.168 253.407 426.509 253.727 426.977 253.94C427.446 254.153 428 254.26 428.682 254.26C429.321 254.26 429.853 254.153 430.28 253.94C430.706 253.727 431.046 253.407 431.26 252.981C431.473 252.555 431.6 252.023 431.6 251.405V239.666H433.71V251.469C433.71 252.47 433.518 253.322 433.113 254.004C432.73 254.686 432.154 255.218 431.387 255.559C430.642 255.9 429.704 256.092 428.639 256.092L428.66 256.134Z" fill="white"/>
<path d="M171.92 442.984V415.842H175.076V440.162H187.125V442.984H171.92ZM218.746 429.376C218.746 431.468 218.48 433.374 217.948 435.094C217.416 436.802 216.624 438.275 215.572 439.513C214.532 440.738 213.239 441.685 211.692 442.353C210.145 443.021 208.35 443.355 206.308 443.355C204.204 443.355 202.366 443.021 200.794 442.353C199.235 441.685 197.935 440.732 196.896 439.494C195.868 438.256 195.095 436.777 194.575 435.057C194.068 433.337 193.814 431.431 193.814 429.339C193.814 426.567 194.272 424.135 195.188 422.043C196.104 419.951 197.49 418.324 199.346 417.161C201.215 415.997 203.554 415.415 206.364 415.415C209.049 415.415 211.308 415.991 213.14 417.142C214.984 418.293 216.376 419.914 217.317 422.006C218.27 424.085 218.746 426.542 218.746 429.376ZM197.137 429.376C197.137 431.678 197.465 433.671 198.121 435.354C198.777 437.037 199.779 438.337 201.128 439.253C202.49 440.168 204.216 440.626 206.308 440.626C208.412 440.626 210.132 440.168 211.469 439.253C212.818 438.337 213.814 437.037 214.458 435.354C215.101 433.671 215.423 431.678 215.423 429.376C215.423 425.874 214.687 423.138 213.214 421.171C211.754 419.19 209.47 418.2 206.364 418.2C204.26 418.2 202.527 418.652 201.166 419.555C199.804 420.459 198.789 421.746 198.121 423.417C197.465 425.075 197.137 427.062 197.137 429.376ZM239.823 418.237C238.326 418.237 236.977 418.497 235.776 419.017C234.588 419.524 233.573 420.267 232.732 421.245C231.902 422.21 231.265 423.38 230.819 424.754C230.374 426.127 230.151 427.674 230.151 429.395C230.151 431.672 230.504 433.652 231.209 435.335C231.927 437.006 232.992 438.3 234.402 439.215C235.826 440.131 237.602 440.589 239.731 440.589C240.943 440.589 242.082 440.49 243.146 440.292C244.223 440.082 245.269 439.822 246.284 439.513V442.26C245.294 442.631 244.254 442.904 243.165 443.077C242.076 443.263 240.783 443.355 239.285 443.355C236.525 443.355 234.217 442.786 232.36 441.647C230.516 440.496 229.13 438.875 228.202 436.783C227.286 434.692 226.828 432.223 226.828 429.376C226.828 427.322 227.113 425.447 227.682 423.751C228.264 422.043 229.105 420.57 230.207 419.333C231.321 418.095 232.682 417.142 234.291 416.474C235.912 415.793 237.769 415.453 239.86 415.453C241.234 415.453 242.559 415.589 243.833 415.861C245.108 416.133 246.259 416.523 247.286 417.031L246.024 419.704C245.158 419.308 244.205 418.967 243.165 418.683C242.138 418.386 241.024 418.237 239.823 418.237ZM272.615 442.984L269.273 434.37H258.394L255.071 442.984H251.878L262.497 415.731H265.337L275.882 442.984H272.615ZM268.326 431.567L265.152 423.008C265.077 422.786 264.954 422.421 264.78 421.913C264.619 421.406 264.452 420.88 264.279 420.335C264.106 419.791 263.964 419.351 263.852 419.017C263.728 419.524 263.592 420.032 263.444 420.539C263.308 421.034 263.171 421.498 263.035 421.932C262.899 422.352 262.782 422.711 262.683 423.008L259.452 431.567H268.326ZM283.073 442.984V415.842H286.229V440.162H298.277V442.984H283.073ZM306.359 442.984V415.842H309.515V442.984H306.359ZM336.978 442.984H318.135V440.608L332.745 418.664H318.636V415.842H336.588V418.219L321.959 440.162H336.978V442.984ZM362.603 442.984L359.262 434.37H348.383L345.06 442.984H341.867L352.486 415.731H355.326L365.871 442.984H362.603ZM358.315 431.567L355.14 423.008C355.066 422.786 354.942 422.421 354.769 421.913C354.608 421.406 354.441 420.88 354.268 420.335C354.095 419.791 353.952 419.351 353.841 419.017C353.717 419.524 353.581 420.032 353.432 420.539C353.296 421.034 353.16 421.498 353.024 421.932C352.888 422.352 352.77 422.711 352.671 423.008L349.441 431.567H358.315ZM384.664 418.237C383.167 418.237 381.818 418.497 380.617 419.017C379.429 419.524 378.414 420.267 377.573 421.245C376.743 422.21 376.106 423.38 375.66 424.754C375.215 426.127 374.992 427.674 374.992 429.395C374.992 431.672 375.345 433.652 376.05 435.335C376.768 437.006 377.832 438.3 379.243 439.215C380.667 440.131 382.443 440.589 384.571 440.589C385.784 440.589 386.923 440.49 387.987 440.292C389.064 440.082 390.11 439.822 391.125 439.513V442.26C390.135 442.631 389.095 442.904 388.006 443.077C386.917 443.263 385.624 443.355 384.126 443.355C381.366 443.355 379.058 442.786 377.201 441.647C375.357 440.496 373.971 438.875 373.043 436.783C372.127 434.692 371.669 432.223 371.669 429.376C371.669 427.322 371.954 425.447 372.523 423.751C373.105 422.043 373.946 420.57 375.048 419.333C376.162 418.095 377.523 417.142 379.132 416.474C380.753 415.793 382.61 415.453 384.701 415.453C386.075 415.453 387.4 415.589 388.674 415.861C389.949 416.133 391.1 416.523 392.127 417.031L390.865 419.704C389.999 419.308 389.046 418.967 388.006 418.683C386.979 418.386 385.865 418.237 384.664 418.237ZM387.189 448.294C387.189 449.494 386.725 450.429 385.797 451.097C384.869 451.778 383.507 452.118 381.713 452.118C381.329 452.118 380.964 452.093 380.617 452.044C380.271 452.007 379.992 451.963 379.782 451.914V449.964C380.017 450.014 380.32 450.057 380.691 450.094C381.063 450.132 381.434 450.15 381.805 450.15C382.734 450.15 383.445 450.014 383.94 449.742C384.435 449.469 384.683 449.011 384.683 448.368C384.683 447.687 384.349 447.192 383.68 446.883C383.024 446.573 382.183 446.363 381.156 446.252L382.808 442.984H384.869L383.866 445.063C384.485 445.187 385.042 445.379 385.537 445.639C386.044 445.899 386.447 446.245 386.744 446.679C387.041 447.112 387.189 447.65 387.189 448.294ZM417.456 442.984L414.114 434.37H403.235L399.912 442.984H396.719L407.338 415.731H410.178L420.723 442.984H417.456ZM413.167 431.567L409.993 423.008C409.918 422.786 409.795 422.421 409.621 421.913C409.46 421.406 409.293 420.88 409.12 420.335C408.947 419.791 408.804 419.351 408.693 419.017C408.569 419.524 408.433 420.032 408.285 420.539C408.149 421.034 408.012 421.498 407.876 421.932C407.74 422.352 407.623 422.711 407.524 423.008L404.293 431.567H413.167ZM401.713 413.076C401.787 412.334 401.929 411.672 402.14 411.09C402.35 410.508 402.629 410.013 402.975 409.605C403.322 409.196 403.73 408.887 404.2 408.676C404.683 408.454 405.215 408.342 405.797 408.342C406.366 408.342 406.911 408.46 407.431 408.695C407.951 408.918 408.446 409.178 408.916 409.475C409.386 409.759 409.838 410.019 410.271 410.254C410.717 410.477 411.144 410.589 411.552 410.589C412.146 410.589 412.604 410.409 412.926 410.05C413.26 409.679 413.514 409.097 413.687 408.305H415.506C415.345 409.753 414.918 410.91 414.225 411.777C413.532 412.631 412.598 413.058 411.422 413.058C410.878 413.058 410.352 412.946 409.844 412.724C409.337 412.488 408.848 412.228 408.377 411.944C407.907 411.647 407.443 411.387 406.985 411.164C406.54 410.929 406.1 410.811 405.667 410.811C405.061 410.811 404.596 410.997 404.275 411.368C403.953 411.727 403.705 412.297 403.532 413.076H401.713ZM451.454 429.376C451.454 431.468 451.188 433.374 450.655 435.094C450.123 436.802 449.331 438.275 448.279 439.513C447.24 440.738 445.946 441.685 444.399 442.353C442.852 443.021 441.057 443.355 439.015 443.355C436.911 443.355 435.073 443.021 433.502 442.353C431.942 441.685 430.643 440.732 429.603 439.494C428.576 438.256 427.802 436.777 427.282 435.057C426.775 433.337 426.521 431.431 426.521 429.339C426.521 426.567 426.979 424.135 427.895 422.043C428.811 419.951 430.197 418.324 432.054 417.161C433.922 415.997 436.262 415.415 439.071 415.415C441.757 415.415 444.015 415.991 445.847 417.142C447.691 418.293 449.084 419.914 450.024 422.006C450.977 424.085 451.454 426.542 451.454 429.376ZM429.844 429.376C429.844 431.678 430.172 433.671 430.828 435.354C431.484 437.037 432.487 438.337 433.836 439.253C435.197 440.168 436.924 440.626 439.015 440.626C441.119 440.626 442.84 440.168 444.176 439.253C445.525 438.337 446.522 437.037 447.165 435.354C447.809 433.671 448.131 431.678 448.131 429.376C448.131 425.874 447.394 423.138 445.921 421.171C444.461 419.19 442.178 418.2 439.071 418.2C436.967 418.2 435.234 418.652 433.873 419.555C432.511 420.459 431.497 421.746 430.828 423.417C430.172 425.075 429.844 427.062 429.844 429.376Z" fill="white"/>
</svg>
