<svg width="624" height="523" viewBox="0 0 624 523" fill="none" xmlns="http://www.w3.org/2000/svg">
<g clip-path="url(#clip0_46_129)">
<path d="M364.854 196.44C378.531 194.629 384.944 186.022 384.944 186.022C385.306 185.703 388.075 185.809 388.075 185.809C388.075 185.809 380.47 196.376 363.512 199.529C350.367 201.979 330.021 199.487 321.798 183.743C315.151 171.024 306.608 156.452 298.214 156.452H295.849V170.364C295.849 177.394 296.019 181.058 296.616 187.833H283.471C284.068 181.037 284.238 177.394 284.238 170.364V137.47C284.238 130.439 284.068 126.775 283.471 120H301.963C317.728 120 331.555 123.217 331.555 138.237C331.555 151.04 321.457 155.28 308.738 156.217C316.621 157.666 328.998 173.367 334.239 183.104C340.162 194.097 354.223 197.846 364.854 196.44ZM295.828 154.875H301.857C311.103 154.875 319.752 151.488 319.752 138.258C319.752 125.028 311.103 121.64 301.857 121.64H295.828V154.875Z" fill="white"/>
<path d="M118 187.854C118.597 181.08 118.767 177.415 118.767 170.385V137.491C118.767 130.46 118.597 126.796 118 120.021H133.744L171.24 184.297L171.41 184.382V137.491C171.41 130.46 171.154 126.796 170.558 120.021H175.692C175.01 126.817 174.84 130.46 174.84 137.491V170.385C174.84 177.415 175.01 181.08 175.692 187.854H159.863L122.453 123.579L122.282 123.494V170.385C122.282 177.415 122.453 181.08 123.049 187.854H118Z" fill="white"/>
<path d="M181.913 178.268C181.913 168.255 192.778 165.549 201.258 164.1C208.544 162.822 212.783 161.309 212.783 155.962C212.783 150.274 210.248 147.227 205.327 147.227C197.529 147.227 195.228 152.319 192.864 155.195C189.817 159.179 184.214 158.327 183.277 153.15C188.965 149.251 197.444 145.608 206.605 145.608C215.766 145.608 222.796 148.91 222.881 158.497V170.705C222.881 176.819 222.881 180.973 224.16 187.833H213.55C213.039 183.849 212.868 181.314 212.868 178.246C210.759 184.531 205.582 189.516 196.251 189.516C189.221 189.516 181.913 186.385 181.913 178.246M212.783 170.896V161.139C211.079 163.504 207.691 164.271 203.196 165.293C196.336 167.083 192.928 170.641 192.928 176.734C192.928 182.827 196.23 186.065 200.981 186.065C208.181 186.065 212.762 179.546 212.762 170.896" fill="white"/>
<path d="M229.912 176.329C232.191 171.919 238.476 172.771 239.414 178.204C239.755 183.125 242.716 187.961 250.279 187.961C256.138 187.961 258.758 184.489 258.758 180.164C258.758 175.584 255.712 173.73 246.21 168.979C238.412 165.08 232.128 162.098 232.128 155.494C232.128 148.293 240.266 145.651 247.232 145.651C255.541 145.651 261.655 149.55 265.043 156.09C262.678 159.563 257.842 158.966 256.564 154.471C255.371 150.146 253.262 147.355 247.403 147.355C242.908 147.355 239.861 149.145 239.861 152.703C239.861 156.687 243.589 158.902 251.557 162.63C260.207 166.7 266.811 169.597 266.811 177.48C266.811 184.766 260.292 189.602 249.853 189.602C239.414 189.602 232.042 185.107 229.933 176.372" fill="white"/>
<path d="M336.093 167.594C336.093 153.938 346.788 145.629 361.445 145.629C376.102 145.629 386.797 153.938 386.797 167.594C386.797 181.25 376.039 189.559 361.445 189.559C346.852 189.559 336.093 181.25 336.093 167.594ZM375.698 167.594C375.698 154.79 370.862 147.249 361.445 147.249C352.028 147.249 347.107 154.79 347.107 167.594C347.107 180.398 351.943 187.94 361.445 187.94C370.947 187.94 375.698 180.483 375.698 167.594Z" fill="white"/>
<path d="M392.507 167.594C392.507 153.512 402.349 145.629 415.238 145.629C425.848 145.629 431.856 151.573 433.731 157.752C431.195 161.48 425.933 160.457 425.081 155.642C424.485 152.255 422.887 147.249 415.75 147.249C407.185 147.249 403.542 154.109 403.542 166.508C403.542 177.202 407.697 186.534 418.392 186.534C426.615 186.534 431.877 180.59 434.412 171.94H435.776C432.985 181.272 427.467 189.58 414.834 189.58C402.2 189.58 392.528 181.783 392.528 167.616" fill="white"/>
<path d="M441.102 178.268C441.102 168.255 451.967 165.549 460.447 164.1C467.733 162.822 471.972 161.309 471.972 155.962C471.972 150.274 469.437 147.227 464.516 147.227C456.718 147.227 454.417 152.319 452.053 155.195C449.006 159.179 443.403 158.327 442.466 153.15C448.154 149.251 456.633 145.608 465.794 145.608C474.955 145.608 481.985 148.91 482.07 158.497V170.705C482.07 176.819 482.07 180.973 483.349 187.833H472.739C472.228 183.849 472.057 181.314 472.057 178.246C469.927 184.531 464.771 189.516 455.44 189.516C448.41 189.516 441.102 186.385 441.102 178.246M471.972 170.896V161.139C470.268 163.504 466.88 164.271 462.385 165.293C455.525 167.083 452.117 170.641 452.117 176.734C452.117 182.827 455.419 186.065 460.17 186.065C467.37 186.065 471.951 179.546 471.951 170.896" fill="white"/>
<path d="M489.101 176.329C491.38 171.919 497.665 172.771 498.603 178.204C498.943 183.125 501.905 187.961 509.468 187.961C515.327 187.961 517.947 184.489 517.947 180.164C517.947 175.584 514.9 173.73 505.399 168.979C497.601 165.08 491.316 162.098 491.316 155.494C491.316 148.293 499.455 145.651 506.421 145.651C514.73 145.651 520.844 149.55 524.232 156.09C521.867 159.563 517.031 158.966 515.753 154.471C514.56 150.146 512.45 147.355 506.592 147.355C502.096 147.355 499.05 149.145 499.05 152.703C499.05 156.687 502.778 158.902 510.746 162.63C519.396 166.7 526 169.597 526 177.48C526 184.766 519.481 189.602 509.042 189.602C498.603 189.602 491.231 185.107 489.122 176.372" fill="white"/>
<path d="M209.374 238.857V222.708H211.484V238.857H209.374Z" fill="white"/>
<path d="M219.856 238.857V222.708H221.965V237.025H230.381V238.857H219.856Z" fill="white"/>
<path d="M237.645 238.857V222.708H239.755V238.857H237.645ZM238.711 231.188V229.355H249.384V231.188H238.711ZM248.319 238.857V222.708H250.428V238.857H248.319Z" fill="white"/>
<path d="M257.565 238.857L263.828 222.708H266.215L272.457 238.857H270.113L266.236 228.056C266.044 227.523 265.874 227.033 265.703 226.543C265.533 226.075 265.384 225.606 265.235 225.137C265.085 224.668 264.936 224.2 264.787 223.688H265.256C265.128 224.157 264.979 224.626 264.83 225.073C264.681 225.521 264.51 226.011 264.34 226.522C264.169 227.033 263.978 227.545 263.786 228.056L259.823 238.857H257.586H257.565ZM260.59 234.106L261.272 232.274H268.899L269.538 234.106H260.59Z" fill="white"/>
<path d="M290.246 238.857V222.708H297.745C298.768 222.708 299.641 222.879 300.387 223.241C301.133 223.603 301.708 224.093 302.091 224.732C302.496 225.372 302.688 226.117 302.688 226.991C302.688 227.8 302.517 228.503 302.198 229.121C301.878 229.739 301.409 230.229 300.834 230.591C300.259 230.953 299.62 231.145 298.896 231.188V230.953C299.535 230.953 300.089 231.06 300.579 231.273C301.069 231.486 301.452 231.805 301.75 232.232C302.049 232.658 302.219 233.148 302.283 233.744L302.624 236.727C302.645 237.004 302.688 237.259 302.709 237.494C302.73 237.728 302.773 237.984 302.794 238.197C302.816 238.431 302.858 238.665 302.879 238.9H300.749C300.728 238.644 300.685 238.367 300.664 238.09C300.621 237.792 300.6 237.494 300.557 237.195C300.557 237.132 300.557 237.068 300.536 237.025C300.536 236.961 300.536 236.919 300.536 236.855L300.28 234.618C300.216 233.979 300.067 233.467 299.854 233.084C299.641 232.7 299.322 232.423 298.938 232.232C298.533 232.061 298.022 231.955 297.383 231.955H291.375V230.122H297.042C297.766 230.122 298.406 230.016 298.938 229.782C299.471 229.547 299.876 229.228 300.153 228.802C300.429 228.375 300.579 227.843 300.579 227.246C300.579 226.671 300.451 226.202 300.216 225.798C299.982 225.414 299.62 225.116 299.151 224.903C298.683 224.711 298.107 224.605 297.426 224.605H291.396L292.419 223.774V238.942H290.31L290.246 238.857Z" fill="white"/>
<path d="M309.761 238.857L316.024 222.708H318.41L324.652 238.857H322.309L318.432 228.056C318.24 227.523 318.069 227.033 317.899 226.543C317.729 226.075 317.579 225.606 317.43 225.137C317.281 224.668 317.132 224.2 316.983 223.688H317.452C317.324 224.157 317.175 224.626 317.025 225.073C316.876 225.521 316.706 226.011 316.535 226.522C316.365 227.033 316.173 227.545 315.982 228.056L312.019 238.857H309.782H309.761ZM312.786 234.106L313.468 232.274H321.095L321.734 234.106H312.786Z" fill="white"/>
<path d="M337.52 239.198C336.178 239.198 335.028 238.985 334.069 238.58C333.11 238.175 332.386 237.558 331.853 236.727C331.321 235.896 331.022 234.873 330.937 233.638H332.961C333.046 234.532 333.259 235.257 333.643 235.811C334.026 236.386 334.538 236.791 335.198 237.068C335.859 237.345 336.668 237.472 337.605 237.472C338.543 237.472 339.267 237.345 339.885 237.11C340.503 236.876 340.972 236.535 341.27 236.088C341.568 235.64 341.739 235.129 341.739 234.511C341.739 234 341.632 233.552 341.398 233.19C341.185 232.828 340.822 232.53 340.311 232.274C339.8 232.018 339.139 231.805 338.309 231.635L336.05 231.166C335.113 230.975 334.303 230.698 333.643 230.378C332.982 230.058 332.45 229.59 332.088 229.036C331.704 228.482 331.512 227.8 331.512 226.969C331.512 226.053 331.725 225.244 332.173 224.562C332.62 223.88 333.281 223.348 334.133 222.964C334.985 222.581 336.029 222.389 337.243 222.389C338.458 222.389 339.459 222.581 340.332 222.943C341.206 223.326 341.888 223.88 342.399 224.605C342.91 225.329 343.187 226.202 343.272 227.246H341.249C341.185 226.565 340.993 225.989 340.652 225.542C340.311 225.073 339.864 224.732 339.267 224.477C338.671 224.242 337.968 224.115 337.158 224.115C336.391 224.115 335.731 224.221 335.177 224.434C334.623 224.647 334.197 224.945 333.92 225.35C333.643 225.755 333.472 226.224 333.472 226.799C333.472 227.246 333.579 227.609 333.771 227.928C333.962 228.248 334.303 228.503 334.772 228.738C335.241 228.972 335.901 229.164 336.732 229.355L339.118 229.845C340.141 230.058 340.972 230.357 341.675 230.762C342.378 231.166 342.868 231.656 343.23 232.274C343.592 232.871 343.762 233.595 343.762 234.426C343.762 235.321 343.549 236.13 343.123 236.855C342.697 237.579 342.015 238.154 341.078 238.58C340.141 239.006 338.969 239.219 337.542 239.219L337.52 239.198Z" fill="white"/>
<path d="M350.132 238.857L356.396 222.708H358.782L365.024 238.857H362.681L358.803 228.056C358.612 227.523 358.441 227.033 358.271 226.543C358.1 226.075 357.951 225.606 357.802 225.137C357.653 224.668 357.504 224.2 357.355 223.688H357.823C357.695 224.157 357.546 224.626 357.397 225.073C357.248 225.521 357.078 226.011 356.907 226.522C356.737 227.033 356.545 227.545 356.353 228.056L352.391 238.857H350.154H350.132ZM353.136 234.106L353.818 232.274H361.445L362.084 234.106H353.136Z" fill="white"/>
<path d="M382.813 243.48V221.899H384.901V243.48H382.813Z" fill="white"/>
<path d="M403.926 238.857V222.708H411.425C412.448 222.708 413.321 222.879 414.067 223.241C414.813 223.603 415.388 224.093 415.771 224.732C416.176 225.372 416.368 226.117 416.368 226.991C416.368 227.8 416.197 228.503 415.878 229.121C415.558 229.739 415.089 230.229 414.514 230.591C413.939 230.953 413.3 231.145 412.576 231.188V230.953C413.215 230.953 413.769 231.06 414.259 231.273C414.749 231.486 415.132 231.805 415.43 232.232C415.729 232.658 415.899 233.148 415.963 233.744L416.304 236.727C416.325 237.004 416.368 237.259 416.389 237.494C416.41 237.728 416.453 237.984 416.474 238.197C416.496 238.431 416.538 238.665 416.56 238.9H414.429C414.408 238.644 414.365 238.367 414.344 238.09C414.301 237.792 414.28 237.494 414.237 237.195C414.237 237.132 414.237 237.068 414.216 237.025C414.216 236.961 414.216 236.919 414.216 236.855L413.96 234.618C413.896 233.979 413.747 233.467 413.534 233.084C413.321 232.7 413.002 232.423 412.618 232.232C412.213 232.061 411.702 231.955 411.063 231.955H405.055V230.122H410.722C411.446 230.122 412.086 230.016 412.618 229.782C413.151 229.547 413.556 229.228 413.833 228.802C414.11 228.375 414.259 227.843 414.259 227.246C414.259 226.671 414.131 226.202 413.896 225.798C413.662 225.414 413.3 225.116 412.831 224.903C412.363 224.711 411.787 224.605 411.106 224.605H405.076L406.099 223.774V238.942H403.99L403.926 238.857Z" fill="white"/>
<path d="M428.66 239.134C427.595 239.134 426.658 238.964 425.87 238.58C425.081 238.218 424.485 237.686 424.08 237.004C423.675 236.322 423.462 235.491 423.462 234.533V233.318H425.571V234.405C425.571 235.023 425.678 235.555 425.933 235.981C426.168 236.407 426.509 236.727 426.977 236.94C427.446 237.153 428 237.26 428.682 237.26C429.321 237.26 429.853 237.153 430.28 236.94C430.706 236.727 431.046 236.407 431.26 235.981C431.473 235.555 431.6 235.023 431.6 234.405V222.666H433.71V234.469C433.71 235.47 433.518 236.322 433.113 237.004C432.73 237.686 432.154 238.218 431.387 238.559C430.642 238.9 429.704 239.092 428.639 239.092L428.66 239.134Z" fill="white"/>
<path d="M171.92 425.984V398.842H175.076V423.162H187.125V425.984H171.92ZM218.746 412.376C218.746 414.468 218.48 416.374 217.948 418.094C217.416 419.802 216.624 421.275 215.572 422.513C214.532 423.738 213.239 424.685 211.692 425.353C210.145 426.021 208.35 426.355 206.308 426.355C204.204 426.355 202.366 426.021 200.794 425.353C199.235 424.685 197.935 423.732 196.896 422.494C195.868 421.256 195.095 419.777 194.575 418.057C194.068 416.337 193.814 414.431 193.814 412.339C193.814 409.567 194.272 407.135 195.188 405.043C196.104 402.951 197.49 401.324 199.346 400.161C201.215 398.997 203.554 398.415 206.364 398.415C209.049 398.415 211.308 398.991 213.14 400.142C214.984 401.293 216.376 402.914 217.317 405.006C218.27 407.085 218.746 409.542 218.746 412.376ZM197.137 412.376C197.137 414.678 197.465 416.671 198.121 418.354C198.777 420.037 199.779 421.337 201.128 422.253C202.49 423.168 204.216 423.626 206.308 423.626C208.412 423.626 210.132 423.168 211.469 422.253C212.818 421.337 213.814 420.037 214.458 418.354C215.101 416.671 215.423 414.678 215.423 412.376C215.423 408.874 214.687 406.138 213.214 404.171C211.754 402.19 209.47 401.2 206.364 401.2C204.26 401.2 202.527 401.652 201.166 402.555C199.804 403.459 198.789 404.746 198.121 406.417C197.465 408.075 197.137 410.062 197.137 412.376ZM239.823 401.237C238.326 401.237 236.977 401.497 235.776 402.017C234.588 402.524 233.573 403.267 232.732 404.245C231.902 405.21 231.265 406.38 230.819 407.754C230.374 409.127 230.151 410.674 230.151 412.395C230.151 414.672 230.504 416.652 231.209 418.335C231.927 420.006 232.992 421.3 234.402 422.215C235.826 423.131 237.602 423.589 239.731 423.589C240.943 423.589 242.082 423.49 243.146 423.292C244.223 423.082 245.269 422.822 246.284 422.513V425.26C245.294 425.631 244.254 425.904 243.165 426.077C242.076 426.263 240.783 426.355 239.285 426.355C236.525 426.355 234.217 425.786 232.36 424.647C230.516 423.496 229.13 421.875 228.202 419.783C227.286 417.692 226.828 415.223 226.828 412.376C226.828 410.322 227.113 408.447 227.682 406.751C228.264 405.043 229.105 403.57 230.207 402.333C231.321 401.095 232.682 400.142 234.291 399.474C235.912 398.793 237.769 398.453 239.86 398.453C241.234 398.453 242.559 398.589 243.833 398.861C245.108 399.133 246.259 399.523 247.286 400.031L246.024 402.704C245.158 402.308 244.205 401.967 243.165 401.683C242.138 401.386 241.024 401.237 239.823 401.237ZM272.615 425.984L269.273 417.37H258.394L255.071 425.984H251.878L262.497 398.731H265.337L275.882 425.984H272.615ZM268.326 414.567L265.152 406.008C265.077 405.786 264.954 405.421 264.78 404.913C264.619 404.406 264.452 403.88 264.279 403.335C264.106 402.791 263.964 402.351 263.852 402.017C263.728 402.524 263.592 403.032 263.444 403.539C263.308 404.034 263.171 404.498 263.035 404.932C262.899 405.352 262.782 405.711 262.683 406.008L259.452 414.567H268.326ZM283.073 425.984V398.842H286.229V423.162H298.277V425.984H283.073ZM306.359 425.984V398.842H309.515V425.984H306.359ZM336.978 425.984H318.135V423.608L332.745 401.664H318.636V398.842H336.588V401.219L321.959 423.162H336.978V425.984ZM362.603 425.984L359.262 417.37H348.383L345.06 425.984H341.867L352.486 398.731H355.326L365.871 425.984H362.603ZM358.315 414.567L355.14 406.008C355.066 405.786 354.942 405.421 354.769 404.913C354.608 404.406 354.441 403.88 354.268 403.335C354.095 402.791 353.952 402.351 353.841 402.017C353.717 402.524 353.581 403.032 353.432 403.539C353.296 404.034 353.16 404.498 353.024 404.932C352.888 405.352 352.77 405.711 352.671 406.008L349.441 414.567H358.315ZM384.664 401.237C383.167 401.237 381.818 401.497 380.617 402.017C379.429 402.524 378.414 403.267 377.573 404.245C376.743 405.21 376.106 406.38 375.66 407.754C375.215 409.127 374.992 410.674 374.992 412.395C374.992 414.672 375.345 416.652 376.05 418.335C376.768 420.006 377.832 421.3 379.243 422.215C380.667 423.131 382.443 423.589 384.571 423.589C385.784 423.589 386.923 423.49 387.987 423.292C389.064 423.082 390.11 422.822 391.125 422.513V425.26C390.135 425.631 389.095 425.904 388.006 426.077C386.917 426.263 385.624 426.355 384.126 426.355C381.366 426.355 379.058 425.786 377.201 424.647C375.357 423.496 373.971 421.875 373.043 419.783C372.127 417.692 371.669 415.223 371.669 412.376C371.669 410.322 371.954 408.447 372.523 406.751C373.105 405.043 373.946 403.57 375.048 402.333C376.162 401.095 377.523 400.142 379.132 399.474C380.753 398.793 382.61 398.453 384.701 398.453C386.075 398.453 387.4 398.589 388.674 398.861C389.949 399.133 391.1 399.523 392.127 400.031L390.865 402.704C389.999 402.308 389.046 401.967 388.006 401.683C386.979 401.386 385.865 401.237 384.664 401.237ZM387.189 431.294C387.189 432.494 386.725 433.429 385.797 434.097C384.869 434.778 383.507 435.118 381.713 435.118C381.329 435.118 380.964 435.093 380.617 435.044C380.271 435.007 379.992 434.963 379.782 434.914V432.964C380.017 433.014 380.32 433.057 380.691 433.094C381.063 433.132 381.434 433.15 381.805 433.15C382.734 433.15 383.445 433.014 383.94 432.742C384.435 432.469 384.683 432.011 384.683 431.368C384.683 430.687 384.349 430.192 383.68 429.883C383.024 429.573 382.183 429.363 381.156 429.252L382.808 425.984H384.869L383.866 428.063C384.485 428.187 385.042 428.379 385.537 428.639C386.044 428.899 386.447 429.245 386.744 429.679C387.041 430.112 387.189 430.65 387.189 431.294ZM417.456 425.984L414.114 417.37H403.235L399.912 425.984H396.719L407.338 398.731H410.178L420.723 425.984H417.456ZM413.167 414.567L409.993 406.008C409.918 405.786 409.795 405.421 409.621 404.913C409.46 404.406 409.293 403.88 409.12 403.335C408.947 402.791 408.804 402.351 408.693 402.017C408.569 402.524 408.433 403.032 408.285 403.539C408.149 404.034 408.012 404.498 407.876 404.932C407.74 405.352 407.623 405.711 407.524 406.008L404.293 414.567H413.167ZM401.713 396.076C401.787 395.334 401.929 394.672 402.14 394.09C402.35 393.508 402.629 393.013 402.975 392.605C403.322 392.196 403.73 391.887 404.2 391.676C404.683 391.454 405.215 391.342 405.797 391.342C406.366 391.342 406.911 391.46 407.431 391.695C407.951 391.918 408.446 392.178 408.916 392.475C409.386 392.759 409.838 393.019 410.271 393.254C410.717 393.477 411.144 393.589 411.552 393.589C412.146 393.589 412.604 393.409 412.926 393.05C413.26 392.679 413.514 392.097 413.687 391.305H415.506C415.345 392.753 414.918 393.91 414.225 394.777C413.532 395.631 412.598 396.058 411.422 396.058C410.878 396.058 410.352 395.946 409.844 395.724C409.337 395.488 408.848 395.228 408.377 394.944C407.907 394.647 407.443 394.387 406.985 394.164C406.54 393.929 406.1 393.811 405.667 393.811C405.061 393.811 404.596 393.997 404.275 394.368C403.953 394.727 403.705 395.297 403.532 396.076H401.713ZM451.454 412.376C451.454 414.468 451.188 416.374 450.655 418.094C450.123 419.802 449.331 421.275 448.279 422.513C447.24 423.738 445.946 424.685 444.399 425.353C442.852 426.021 441.057 426.355 439.015 426.355C436.911 426.355 435.073 426.021 433.502 425.353C431.942 424.685 430.643 423.732 429.603 422.494C428.576 421.256 427.802 419.777 427.282 418.057C426.775 416.337 426.521 414.431 426.521 412.339C426.521 409.567 426.979 407.135 427.895 405.043C428.811 402.951 430.197 401.324 432.054 400.161C433.922 398.997 436.262 398.415 439.071 398.415C441.757 398.415 444.015 398.991 445.847 400.142C447.691 401.293 449.084 402.914 450.024 405.006C450.977 407.085 451.454 409.542 451.454 412.376ZM429.844 412.376C429.844 414.678 430.172 416.671 430.828 418.354C431.484 420.037 432.487 421.337 433.836 422.253C435.197 423.168 436.924 423.626 439.015 423.626C441.119 423.626 442.84 423.168 444.176 422.253C445.525 421.337 446.522 420.037 447.165 418.354C447.809 416.671 448.131 414.678 448.131 412.376C448.131 408.874 447.394 406.138 445.921 404.171C444.461 402.19 442.178 401.2 439.071 401.2C436.967 401.2 435.234 401.652 433.873 402.555C432.511 403.459 431.497 404.746 430.828 406.417C430.172 408.075 429.844 410.062 429.844 412.376Z" fill="white"/>
</g>
<defs>
<clipPath id="clip0_46_129">
<rect width="624" height="523" fill="white"/>
</clipPath>
</defs>
</svg>
