<svg width="119" height="125" viewBox="0 0 119 125" fill="none" xmlns="http://www.w3.org/2000/svg">
<g filter="url(#filter0_i_80_2)">
<path d="M119 0.463867L119 124.121L0.740008 124.121L0.740011 43.2326C0.740012 19.6121 19.8882 0.463863 43.5087 0.463864L119 0.463867Z" fill="#E2B34A"/>
</g>
<path d="M29.0245 35.723C29.0245 39.5329 29.0287 43.3408 29.0202 47.1508C29.0202 48.1764 29.5962 48.7891 30.4325 49.1977C31.1963 49.5696 31.8 49.2364 32.3633 48.6945C33.6902 47.4152 35.0407 46.1596 36.3826 44.8953C36.6472 44.648 36.9181 44.4072 37.2466 44.1105C37.5283 44.4266 37.7309 44.676 37.9549 44.9018C40.195 47.1594 42.418 49.4342 44.6859 51.6638C46.1451 53.098 48.1612 53.0485 49.5244 51.6251C50.8557 50.234 50.8258 48.2495 49.4348 46.8025C48.7116 46.0499 47.9671 45.321 47.231 44.5835C45.4987 42.8463 43.7642 41.109 42.017 39.3588C42.1407 39.1932 42.209 39.0793 42.2964 38.9847C43.7664 37.3936 45.2406 35.809 46.7083 34.2157" fill="white"/>
<path d="M47.3803 91.7456C47.6982 91.0791 47.4806 90.4985 46.9984 89.989C46.5931 89.5632 46.1899 89.1332 45.7909 88.7011C44.6538 87.469 43.521 86.237 42.2452 84.8502C42.5503 84.6309 42.8169 84.4868 43.0239 84.2826C45.2704 82.0314 47.519 79.7824 49.7441 77.5097C51.101 76.1251 51.2247 74.3534 50.1175 72.9343C48.7841 71.225 46.5526 71.0938 44.9568 72.6785C42.4948 75.1274 40.0627 77.6065 37.5709 80.12C37.3746 79.9544 37.2487 79.8577 37.1335 79.748C35.5569 78.2666 33.9867 76.7766 32.3995 75.3037C31.8192 74.7641 31.1493 74.4673 30.3599 74.8436C29.594 75.2091 29.3508 75.8477 29.353 76.682C29.3722 81.4294 29.3594 86.179 29.3636 90.9264" fill="white"/>
<path d="M90.7102 91.041C90.7166 86.214 90.7059 81.387 90.7187 76.56C90.7209 75.7107 90.3923 75.1087 89.6158 74.7905C88.8605 74.4809 88.372 74.9238 87.8813 75.4248C86.3538 76.9857 84.807 78.5274 83.2326 80.1141C82.9702 79.8669 82.7568 79.6755 82.5542 79.4713C80.3141 77.2158 78.0847 74.9474 75.8339 72.7027C74.4792 71.3525 72.6615 71.2062 71.2897 72.2877C69.6534 73.5778 69.4209 75.7559 70.8374 77.3039C72.6935 79.3358 74.6136 81.3096 76.5038 83.3092C77.0137 83.8467 77.5172 84.3907 78.0697 84.9798C76.4611 86.715 74.9101 88.4049 73.3357 90.0691C72.8471 90.5873 72.4588 91.0947 72.8002 91.8408" fill="white"/>
<path d="M73.704 34.5188C75.095 35.8475 76.5009 37.1591 77.8983 38.4793C78.0626 38.6341 78.2055 38.8147 78.4018 39.0319C78.1522 39.2598 77.9474 39.4318 77.7596 39.621C75.5004 41.8958 73.2283 44.1577 70.9882 46.454C69.5225 47.9548 69.5524 49.9802 71.001 51.3842C72.3984 52.7366 74.3697 52.6872 75.8438 51.2144C78.2823 48.7804 80.6974 46.3229 83.2212 43.775C84.9855 45.4585 86.6987 47.0604 88.3691 48.7052C89.0283 49.3545 89.6769 49.4341 90.2487 48.7052C90.494 48.3913 90.6924 47.9397 90.6945 47.5506C90.7201 42.6182 90.718 37.6816 90.7073 32.7471" fill="white"/>
<path d="M46.7132 34.2133C45.2454 35.8044 43.7712 37.3911 42.3013 38.9822C42.2139 39.0768 42.1456 39.1908 42.0218 39.3563C43.7691 41.1065 45.5036 42.8438 47.2359 44.5811C47.9719 45.3186 48.7165 46.0496 49.4397 46.8C50.8307 48.247 50.8606 50.2337 49.5293 51.6227C48.1661 53.0461 46.15 53.0955 44.6907 51.6614C42.4229 49.4317 40.1999 47.1591 37.9598 44.8993C37.7358 44.6714 37.531 44.4241 37.2515 44.1081C36.923 44.4069 36.6499 44.6456 36.3875 44.8929C35.0456 46.1571 33.6973 47.4128 32.3681 48.6921C31.8049 49.2339 31.2012 49.5693 30.4374 49.1952C29.599 48.7867 29.023 48.1739 29.0251 47.1483C29.0336 43.3383 29.0272 39.5305 29.0294 35.7205" fill="#234C43"/>
<path d="M29.3695 90.9293C29.3674 86.1819 29.378 81.4323 29.3588 76.6849C29.3546 75.8506 29.5999 75.2121 30.3658 74.8465C31.1552 74.4703 31.8251 74.767 32.4053 75.3067C33.9905 76.7795 35.5607 78.2695 37.1394 79.7509C37.2546 79.8584 37.3805 79.9552 37.5767 80.1229C40.0664 77.6116 42.4985 75.1304 44.9626 72.6814C46.5563 71.0968 48.7878 71.2279 50.1234 72.9372C51.2306 74.3563 51.1069 76.128 49.75 77.5127C47.5249 79.7853 45.2762 82.0344 43.0298 84.2855C42.8249 84.4919 42.5583 84.6338 42.2511 84.8531C43.5268 86.24 44.6618 87.472 45.7968 88.704C46.1957 89.1362 46.599 89.564 47.0043 89.9919C47.4865 90.5015 47.7041 91.0799 47.3862 91.7485" fill="#234C43"/>
<path d="M72.8002 91.8389C72.4567 91.0928 72.845 90.5854 73.3357 90.0672C74.9101 88.4008 76.4611 86.7109 78.0697 84.9779C77.5172 84.3887 77.0116 83.8469 76.5038 83.3072C74.6136 81.3076 72.6935 79.3338 70.8374 77.302C69.423 75.7539 69.6534 73.5759 71.2897 72.2858C72.6615 71.2043 74.4813 71.3505 75.8339 72.7008C78.0847 74.9455 80.3141 77.2117 82.5542 79.4693C82.7568 79.6736 82.9723 79.8649 83.2326 80.1122C84.807 78.5276 86.3538 76.9838 87.8813 75.4228C88.372 74.9218 88.8627 74.4789 89.6158 74.7885C90.3923 75.1089 90.7209 75.7109 90.7187 76.5602C90.7059 81.3872 90.7166 86.2142 90.7102 91.0412" fill="#234C43"/>
<path d="M90.7078 32.7472C90.7185 37.6817 90.7227 42.6183 90.6929 47.5528C90.6907 47.942 90.4923 48.3935 90.247 48.7074C89.6752 49.4363 89.0267 49.3568 88.3675 48.7074C86.697 47.0626 84.9839 45.4608 83.2195 43.7772C80.6957 46.3251 78.2807 48.7827 75.8422 51.2166C74.368 52.6873 72.3967 52.7389 70.9993 51.3865C69.5486 49.9824 69.5209 47.9592 70.9865 46.4563C73.2266 44.1621 75.4987 41.898 77.758 39.6232C77.9457 39.434 78.1505 39.262 78.4001 39.0341C78.2039 38.8169 78.0609 38.6385 77.8967 38.4815C76.4993 37.1613 75.0912 35.8498 73.7024 34.521" fill="#234C43"/>
<defs>
<filter id="filter0_i_80_2" x="0.740234" y="0.463867" width="118.26" height="128.281" filterUnits="userSpaceOnUse" color-interpolation-filters="sRGB">
<feFlood flood-opacity="0" result="BackgroundImageFix"/>
<feBlend mode="normal" in="SourceGraphic" in2="BackgroundImageFix" result="shape"/>
<feColorMatrix in="SourceAlpha" type="matrix" values="0 0 0 0 0 0 0 0 0 0 0 0 0 0 0 0 0 0 127 0" result="hardAlpha"/>
<feOffset dy="4.62364"/>
<feGaussianBlur stdDeviation="7.51342"/>
<feComposite in2="hardAlpha" operator="arithmetic" k2="-1" k3="1"/>
<feColorMatrix type="matrix" values="0 0 0 0 0 0 0 0 0 0 0 0 0 0 0 0 0 0 0.25 0"/>
<feBlend mode="normal" in2="shape" result="effect1_innerShadow_80_2"/>
</filter>
</defs>
</svg>
