<svg width="119" height="124" viewBox="0 0 119 124" fill="none" xmlns="http://www.w3.org/2000/svg">
<g filter="url(#filter0_i_80_13)">
<path d="M118.301 0L118.301 123.657L-0.00031821 123.657L-0.000314675 42.7687C-0.000313642 19.1482 19.1479 -4.33411e-06 42.7684 -3.30163e-06L118.301 0Z" fill="#E2B34A"/>
</g>
<path d="M39.2943 38.02C40.5991 38.0075 41.5834 38.6314 42.4707 39.5237C47.4143 44.4871 52.3678 49.4406 57.3362 54.3768C57.7364 54.7744 58.2509 55.1472 58.7803 55.3063C59.6402 55.5673 60.2964 55.0677 60.8979 54.4613C65.8862 49.4531 70.8944 44.4672 75.8802 39.459C76.9862 38.348 78.2588 37.7664 79.8197 38.107C82.8047 38.7581 83.9604 42.2974 81.9547 44.6039C81.4476 45.188 80.8735 45.7149 80.3267 46.2617C75.7684 50.8226 71.21 55.3809 66.6517 59.9392C65.1952 61.3957 65.1927 62.2532 66.6467 63.7072C71.6226 68.6855 76.6035 73.6564 81.5719 78.6373C83.2819 80.3498 83.4236 82.6687 81.9571 84.3041C80.4112 86.0241 77.8909 86.1111 76.1635 84.4508C74.6226 82.9695 73.1313 81.4334 71.6201 79.9223C68.046 76.3507 64.4744 72.7766 60.9004 69.2075C59.6253 67.9349 58.6734 67.93 57.4008 69.2C52.3777 74.2157 47.3646 79.2413 42.339 84.2544C40.6762 85.9147 38.4641 86.1011 36.8138 84.7615C34.9721 83.2677 34.8254 80.6207 36.528 78.8436C37.8353 77.4791 39.1949 76.1618 40.532 74.8246C44.2577 71.0989 47.9859 67.3732 51.7091 63.645C53.0761 62.2755 53.0786 61.3808 51.7141 60.0163C46.7183 55.018 41.7176 50.0247 36.7268 45.019C34.9696 43.2568 34.8726 40.8459 36.4708 39.2179C37.2463 38.4276 38.1907 38.0299 39.2992 38.02L39.2943 38.02Z" fill="#234C43"/>
<defs>
<filter id="filter0_i_80_13" x="-0.000488281" y="0" width="118.301" height="128.281" filterUnits="userSpaceOnUse" color-interpolation-filters="sRGB">
<feFlood flood-opacity="0" result="BackgroundImageFix"/>
<feBlend mode="normal" in="SourceGraphic" in2="BackgroundImageFix" result="shape"/>
<feColorMatrix in="SourceAlpha" type="matrix" values="0 0 0 0 0 0 0 0 0 0 0 0 0 0 0 0 0 0 127 0" result="hardAlpha"/>
<feOffset dy="4.62364"/>
<feGaussianBlur stdDeviation="7.51342"/>
<feComposite in2="hardAlpha" operator="arithmetic" k2="-1" k3="1"/>
<feColorMatrix type="matrix" values="0 0 0 0 0 0 0 0 0 0 0 0 0 0 0 0 0 0 0.25 0"/>
<feBlend mode="normal" in2="shape" result="effect1_innerShadow_80_13"/>
</filter>
</defs>
</svg>
