<svg width="207" height="292" viewBox="0 0 207 292" fill="none" xmlns="http://www.w3.org/2000/svg">
<path d="M103.601 9.125C155.142 9.125 197.1 51.1408 197.1 104.215C197.1 114.651 193.219 128.897 186.177 145.643C179.224 162.175 169.558 180.299 158.816 198.207C140.264 229.136 118.842 258.862 103.502 277.848C87.8217 258.944 66.1869 229.399 47.5121 198.544C36.7165 180.708 27.0271 162.625 20.0642 146.059C13.0179 129.294 9.125 114.913 9.125 104.215C9.125 51.1974 51.0268 9.125 103.601 9.125Z" fill="#234C43" stroke="#BC6422" stroke-width="18.25"/>
<path d="M103.601 0.793173C159.841 0.793173 205.432 46.6375 205.432 104.215C205.432 116.344 201.023 131.833 193.857 148.872C186.699 165.893 176.823 184.385 165.961 202.493C144.509 238.257 119.249 272.462 103.592 290.792C87.4626 272.473 61.96 238.506 40.3842 202.859C29.4619 184.813 19.5561 166.353 12.3833 149.287C5.20319 132.204 0.793173 116.591 0.793173 104.215C0.793173 46.6424 46.3788 0.793173 103.601 0.793173Z" fill="#234C43" stroke="#BC6422" stroke-width="1.58635"/>
<path d="M103.601 4.5625C157.715 4.5625 201.662 48.6748 201.662 104.215C201.662 115.578 197.492 130.505 190.382 147.411C183.317 164.211 173.536 182.536 162.729 200.554C142.627 234.067 119.169 266.191 103.55 284.99C87.5246 266.243 63.8363 234.327 43.6089 200.907C32.7439 182.956 22.936 164.667 15.8582 147.827C8.73855 130.888 4.5625 115.832 4.5625 104.215C4.5625 48.7031 48.4816 4.5625 103.601 4.5625Z" fill="#234C43" stroke="#BC6422" stroke-width="9.125"/>
<path d="M44.1934 101.232C44.1934 68.9356 70.3775 42.7515 102.674 42.7515C134.971 42.7515 161.155 68.9356 161.155 101.232" fill="#E2B34A"/>
</svg>
