<svg width="118" height="119" viewBox="0 0 118 119" fill="none" xmlns="http://www.w3.org/2000/svg">
<path opacity="0.75" d="M59 0C26.4668 0 0 26.4922 0 59.0566C0 91.6211 26.464 118.113 59 118.113C91.536 118.113 118 91.6211 118 59.0566C118 26.4922 91.536 0 59 0ZM59 113.192C29.1795 113.192 4.91667 88.9057 4.91667 59.0566C4.91667 29.2075 29.1795 4.92139 59 4.92139C88.8205 4.92139 113.083 29.2075 113.083 59.0566C113.083 88.9057 88.8233 113.192 59 113.192Z" fill="white"/>
<path opacity="0.75" d="M81.3623 58.1163L46.9457 35.9715C46.1923 35.4791 45.2168 35.4538 44.4381 35.8815C43.6454 36.3148 43.1562 37.1421 43.1562 38.0425V82.3321C43.1562 83.2326 43.6454 84.0598 44.4381 84.4932C44.8036 84.6929 45.2112 84.7942 45.6132 84.7942C46.0742 84.7942 46.5409 84.6648 46.9428 84.4031L81.3595 62.2583C82.0595 61.8053 82.4868 61.0258 82.4868 60.1901C82.4896 59.3488 82.0623 58.5694 81.3623 58.1163ZM48.0729 77.8244V42.5474L75.4842 60.1845L48.0729 77.8244Z" fill="white"/>
</svg>
