<svg width="1820" height="1082" viewBox="0 0 1820 1082" fill="none" xmlns="http://www.w3.org/2000/svg">
<g clip-path="url(#clip0_378_11596)">
<path d="M959.7 203.093C969.875 203.093 978.109 194.846 978.109 184.684C978.109 174.523 969.861 166.275 959.7 166.275C949.539 166.275 941.277 174.523 941.277 184.684C941.277 194.846 949.525 203.093 959.7 203.093Z" fill="#896337"/>
<path d="M956.104 179.282L956.104 189.699H954.837L954.837 180.602H954.77L952.223 182.287V181.007L954.824 179.282H956.09H956.104Z" fill="#E2DED2"/>
<path d="M963.551 189.833C962.783 189.833 962.136 189.618 961.597 189.2C961.058 188.782 960.64 188.176 960.357 187.367C960.074 186.559 959.926 185.602 959.926 184.47C959.926 183.338 960.074 182.381 960.357 181.586C960.64 180.791 961.058 180.171 961.597 179.753C962.136 179.335 962.783 179.12 963.551 179.12C964.319 179.12 964.966 179.335 965.505 179.753C966.044 180.171 966.462 180.791 966.745 181.586C967.028 182.381 967.176 183.351 967.176 184.47C967.176 185.588 967.028 186.572 966.745 187.367C966.462 188.162 966.044 188.769 965.505 189.2C964.966 189.618 964.319 189.833 963.551 189.833ZM963.551 188.715C964.306 188.715 964.899 188.351 965.316 187.61C965.734 186.882 965.95 185.831 965.95 184.47C965.95 183.567 965.855 182.799 965.667 182.165C965.478 181.532 965.195 181.047 964.845 180.71C964.481 180.373 964.063 180.211 963.551 180.211C962.796 180.211 962.203 180.575 961.786 181.316C961.368 182.058 961.152 183.109 961.152 184.456C961.152 185.359 961.246 186.127 961.435 186.761C961.624 187.394 961.893 187.866 962.257 188.203C962.608 188.526 963.039 188.701 963.551 188.701V188.715Z" fill="#E2DED2"/>
<path d="M855.536 394.838C865.711 394.838 873.945 386.59 873.945 376.429C873.945 366.267 865.697 358.006 855.536 358.006C845.374 358.006 837.113 366.254 837.113 376.429C837.113 386.604 845.361 394.838 855.536 394.838Z" fill="#896337"/>
<path d="M855.552 381.576C854.851 381.576 854.231 381.455 853.706 381.199C853.167 380.957 852.749 380.606 852.453 380.161C852.156 379.717 852.008 379.218 852.008 378.652C852.008 378.207 852.089 377.803 852.264 377.426C852.439 377.048 852.682 376.738 852.992 376.482C853.302 376.226 853.638 376.065 854.016 375.997V375.93C853.517 375.795 853.126 375.525 852.83 375.094C852.533 374.663 852.385 374.164 852.399 373.612C852.399 373.086 852.533 372.615 852.803 372.197C853.072 371.779 853.45 371.456 853.922 371.213C854.393 370.97 854.946 370.849 855.552 370.849C856.159 370.849 856.698 370.97 857.169 371.213C857.641 371.456 858.018 371.779 858.288 372.197C858.557 372.615 858.706 373.086 858.706 373.612C858.706 374.164 858.557 374.663 858.261 375.094C857.964 375.525 857.574 375.809 857.088 375.93V375.997C857.466 376.065 857.803 376.226 858.099 376.482C858.396 376.738 858.638 377.048 858.827 377.426C859.002 377.803 859.096 378.207 859.096 378.652C859.096 379.218 858.935 379.717 858.638 380.161C858.342 380.606 857.924 380.943 857.398 381.199C856.873 381.455 856.253 381.576 855.566 381.576H855.552ZM855.552 380.458C856.024 380.458 856.428 380.377 856.779 380.229C857.115 380.081 857.385 379.865 857.574 379.582C857.762 379.299 857.857 378.975 857.857 378.612C857.857 378.221 857.749 377.87 857.547 377.574C857.345 377.277 857.075 377.035 856.725 376.86C856.374 376.684 855.983 376.604 855.552 376.604C855.121 376.604 854.717 376.684 854.366 376.86C854.016 377.035 853.746 377.264 853.544 377.574C853.342 377.87 853.248 378.221 853.248 378.612C853.248 378.989 853.329 379.312 853.517 379.582C853.706 379.865 853.962 380.081 854.312 380.229C854.663 380.377 855.067 380.458 855.539 380.458H855.552ZM855.552 375.512C855.929 375.512 856.253 375.431 856.549 375.283C856.832 375.135 857.062 374.919 857.237 374.663C857.398 374.393 857.493 374.083 857.493 373.72C857.493 373.369 857.412 373.059 857.237 372.803C857.075 372.534 856.846 372.332 856.563 372.197C856.28 372.049 855.943 371.981 855.552 371.981C855.161 371.981 854.824 372.049 854.528 372.197C854.231 372.345 854.016 372.547 853.854 372.803C853.692 373.059 853.612 373.369 853.625 373.72C853.625 374.083 853.706 374.393 853.868 374.663C854.029 374.933 854.258 375.135 854.555 375.283C854.851 375.431 855.175 375.512 855.566 375.512H855.552Z" fill="#E2DED2"/>
<path d="M996.54 406.118C1006.71 406.118 1014.95 397.87 1014.95 387.709C1014.95 377.547 1006.7 369.286 996.54 369.286C986.378 369.286 978.117 377.534 978.117 387.709C978.117 397.883 986.365 406.118 996.54 406.118Z" fill="#1E1E1E"/>
<path d="M996.463 382.154C996.895 382.154 997.313 382.235 997.744 382.397C998.175 382.559 998.566 382.815 998.916 383.192C999.267 383.556 999.55 384.054 999.765 384.701C999.981 385.348 1000.09 386.13 1000.09 387.087C1000.09 388.044 1000.01 388.839 999.833 389.553C999.657 390.267 999.401 390.874 999.078 391.372C998.755 391.871 998.35 392.235 997.892 392.491C997.42 392.747 996.895 392.868 996.315 392.868C995.736 392.868 995.21 392.747 994.752 392.518C994.294 392.289 993.916 391.965 993.633 391.547C993.337 391.13 993.162 390.645 993.081 390.105H994.321C994.428 390.577 994.658 390.981 994.995 391.291C995.331 391.601 995.776 391.763 996.315 391.763C997.124 391.763 997.757 391.413 998.215 390.712C998.687 390.011 998.916 389.014 998.916 387.734H998.835C998.647 388.017 998.418 388.259 998.162 388.475C997.905 388.677 997.609 388.839 997.286 388.946C996.962 389.054 996.625 389.108 996.275 389.108C995.682 389.108 995.129 388.96 994.631 388.663C994.132 388.367 993.741 387.963 993.445 387.437C993.148 386.911 993 386.319 993 385.645C993 384.971 993.148 384.418 993.431 383.893C993.714 383.367 994.119 382.936 994.644 382.626C995.17 382.316 995.776 382.154 996.477 382.168L996.463 382.154ZM996.463 383.273C996.032 383.273 995.655 383.381 995.318 383.596C994.981 383.812 994.712 384.095 994.509 384.445C994.307 384.809 994.213 385.2 994.213 385.631C994.213 386.062 994.307 386.453 994.496 386.817C994.685 387.168 994.954 387.451 995.278 387.666C995.601 387.882 995.992 387.976 996.423 387.976C996.747 387.976 997.043 387.909 997.326 387.787C997.609 387.666 997.852 387.491 998.054 387.262C998.269 387.033 998.431 386.79 998.539 386.507C998.647 386.224 998.714 385.928 998.714 385.618C998.714 385.213 998.62 384.836 998.418 384.472C998.229 384.122 997.959 383.825 997.609 383.61C997.272 383.394 996.881 383.273 996.45 383.273H996.463Z" fill="#E2DED2"/>
<path d="M1117.33 231.515C1127.51 231.515 1135.74 223.268 1135.74 213.106C1135.74 202.945 1127.49 194.697 1117.33 194.697C1107.17 194.697 1098.91 202.945 1098.91 213.106C1098.91 223.268 1107.16 231.515 1117.33 231.515Z" fill="#896337"/>
<path d="M1114.88 207.703L1114.88 218.12H1113.61L1113.61 209.023H1113.55L1111 210.708V209.428L1113.6 207.703H1114.87H1114.88Z" fill="#E2DED2"/>
<path d="M1122.58 207.703L1122.58 218.12H1121.32L1121.32 209.023H1121.25L1118.7 210.708V209.428L1121.3 207.703H1122.57H1122.58Z" fill="#E2DED2"/>
<path d="M1184.71 303.939C1194.89 303.939 1203.12 295.691 1203.12 285.53C1203.12 275.369 1194.87 267.121 1184.71 267.121C1174.55 267.121 1166.29 275.369 1166.29 285.53C1166.29 295.691 1174.54 303.939 1184.71 303.939Z" fill="#896337"/>
<path d="M1181.04 280.111L1181.04 290.529H1179.77L1179.77 281.432H1179.71L1177.16 283.117V281.836L1179.76 280.111H1181.03H1181.04Z" fill="#E2DED2"/>
<path d="M1188.62 290.664C1187.94 290.664 1187.35 290.556 1186.82 290.314C1186.3 290.085 1185.88 289.761 1185.58 289.357C1185.27 288.939 1185.11 288.467 1185.09 287.915H1186.37C1186.39 288.252 1186.51 288.535 1186.72 288.777C1186.92 289.02 1187.19 289.209 1187.51 289.343C1187.84 289.478 1188.2 289.546 1188.6 289.546C1189.05 289.546 1189.45 289.465 1189.79 289.316C1190.14 289.155 1190.41 288.939 1190.6 288.67C1190.8 288.387 1190.89 288.063 1190.89 287.699C1190.89 287.335 1190.8 286.972 1190.61 286.689C1190.42 286.406 1190.14 286.163 1189.78 286.001C1189.41 285.84 1188.97 285.759 1188.43 285.759H1187.59V284.64H1188.43C1188.85 284.64 1189.21 284.573 1189.52 284.411C1189.83 284.263 1190.09 284.047 1190.26 283.778C1190.44 283.508 1190.53 283.185 1190.53 282.821C1190.53 282.457 1190.45 282.16 1190.3 281.904C1190.14 281.648 1189.92 281.446 1189.64 281.298C1189.36 281.15 1189.02 281.082 1188.64 281.082C1188.28 281.082 1187.94 281.15 1187.63 281.284C1187.32 281.419 1187.05 281.608 1186.85 281.85C1186.65 282.093 1186.54 282.39 1186.53 282.74H1185.3C1185.32 282.187 1185.49 281.716 1185.8 281.298C1186.11 280.88 1186.51 280.57 1187.01 280.341C1187.51 280.112 1188.06 279.991 1188.66 279.991C1189.3 279.991 1189.86 280.125 1190.31 280.382C1190.77 280.638 1191.14 280.988 1191.38 281.406C1191.62 281.824 1191.76 282.282 1191.76 282.78C1191.76 283.373 1191.61 283.872 1191.3 284.276C1190.99 284.694 1190.57 284.977 1190.05 285.139V285.22C1190.71 285.327 1191.22 285.61 1191.58 286.055C1191.95 286.5 1192.13 287.066 1192.13 287.726C1192.13 288.292 1191.99 288.804 1191.68 289.249C1191.37 289.694 1190.95 290.058 1190.42 290.314C1189.9 290.57 1189.29 290.705 1188.62 290.705V290.664Z" fill="#E2DED2"/>
<path d="M1343.37 264.398C1353.54 264.398 1361.78 256.151 1361.78 245.99C1361.78 235.828 1353.53 227.581 1343.37 227.581C1333.21 227.581 1324.95 235.828 1324.95 245.99C1324.95 256.151 1333.19 264.398 1343.37 264.398Z" fill="#896337"/>
<path d="M1339.9 240.571L1339.9 250.989H1338.63L1338.63 241.892H1338.56L1336.02 243.577V242.296L1338.62 240.571H1339.88H1339.9Z" fill="#E2DED2"/>
<path d="M1343.95 250.988V250.072L1347.39 246.312C1347.8 245.867 1348.13 245.49 1348.39 245.167C1348.64 244.843 1348.85 244.533 1348.97 244.237C1349.09 243.954 1349.16 243.644 1349.16 243.32C1349.16 242.956 1349.08 242.633 1348.9 242.363C1348.73 242.094 1348.48 241.892 1348.19 241.744C1347.89 241.595 1347.54 241.528 1347.18 241.528C1346.77 241.528 1346.42 241.609 1346.12 241.771C1345.83 241.932 1345.6 242.161 1345.44 242.458C1345.28 242.754 1345.19 243.105 1345.19 243.496L1344 243.496C1344 242.889 1344.13 242.35 1344.41 241.892C1344.7 241.434 1345.07 241.07 1345.57 240.814C1346.06 240.558 1346.61 240.423 1347.22 240.423C1347.82 240.423 1348.36 240.558 1348.83 240.814C1349.31 241.07 1349.67 241.42 1349.94 241.851C1350.21 242.283 1350.34 242.781 1350.34 243.307C1350.34 243.698 1350.28 244.062 1350.14 244.425C1350.01 244.789 1349.76 245.194 1349.43 245.638C1349.09 246.083 1348.62 246.622 1348.02 247.269L1345.68 249.776V249.856L1350.52 249.856V250.975L1343.94 250.975L1343.95 250.988Z" fill="#E2DED2"/>
<path d="M1309.53 322.347C1319.7 322.347 1327.94 314.1 1327.94 303.938C1327.94 293.777 1319.69 285.529 1309.53 285.529C1299.37 285.529 1291.11 293.777 1291.11 303.938C1291.11 314.1 1299.35 322.347 1309.53 322.347Z" fill="#896337"/>
<path d="M1305.8 298.521L1305.8 308.938H1304.53L1304.53 299.842H1304.47L1301.92 301.526V300.246L1304.52 298.521H1305.79H1305.8Z" fill="#E2DED2"/>
<path d="M1309.6 306.809V305.771L1314.18 298.521L1314.94 298.521V300.125L1314.42 300.125L1310.96 305.596V305.677L1317.12 305.677V306.796L1309.59 306.796L1309.6 306.809ZM1314.5 308.938L1314.5 298.521L1315.7 298.521L1315.7 308.938L1314.5 308.938Z" fill="#E2DED2"/>
<path d="M1329.83 369.286C1340.01 369.286 1348.24 361.038 1348.24 350.877C1348.24 340.715 1339.99 332.468 1329.83 332.468C1319.67 332.468 1311.41 340.715 1311.41 350.877C1311.41 361.038 1319.66 369.286 1329.83 369.286Z" fill="#896337"/>
<path d="M1326.35 345.459L1326.35 355.876H1325.08L1325.08 346.78H1325.02L1322.47 348.464V347.184L1325.07 345.459H1326.34H1326.35Z" fill="#E2DED2"/>
<path d="M1333.66 356.024C1333.07 356.024 1332.53 355.903 1332.05 355.674C1331.58 355.431 1331.18 355.108 1330.9 354.703C1330.62 354.286 1330.46 353.814 1330.43 353.288H1331.66C1331.71 353.76 1331.93 354.151 1332.3 354.461C1332.68 354.771 1333.14 354.919 1333.68 354.919C1334.11 354.919 1334.49 354.825 1334.82 354.622C1335.16 354.42 1335.42 354.151 1335.6 353.8C1335.79 353.45 1335.89 353.046 1335.89 352.601C1335.89 352.156 1335.79 351.738 1335.59 351.388C1335.39 351.038 1335.12 350.741 1334.77 350.539C1334.42 350.337 1334.03 350.229 1333.58 350.229C1333.26 350.229 1332.94 350.27 1332.6 350.377C1332.26 350.485 1331.99 350.606 1331.76 350.755L1330.58 350.606L1331.21 345.485L1336.63 345.485V346.604L1332.28 346.604L1331.91 349.677H1331.98C1332.2 349.501 1332.46 349.367 1332.79 349.259C1333.11 349.151 1333.45 349.097 1333.8 349.097C1334.43 349.097 1335 349.245 1335.51 349.555C1336.01 349.852 1336.4 350.27 1336.7 350.795C1336.98 351.321 1337.13 351.914 1337.13 352.601C1337.13 353.288 1336.98 353.854 1336.68 354.38C1336.39 354.905 1335.98 355.31 1335.46 355.606C1334.93 355.903 1334.35 356.051 1333.69 356.051L1333.66 356.024Z" fill="#E2DED2"/>
<path d="M1217.15 617.604C1227.33 617.604 1235.56 609.357 1235.56 599.195C1235.56 589.034 1227.31 580.773 1217.15 580.773C1206.99 580.773 1198.73 589.021 1198.73 599.195C1198.73 609.37 1206.98 617.604 1217.15 617.604Z" fill="#896337"/>
<path d="M1213.56 593.78L1213.56 604.198L1212.29 604.198L1212.29 595.101H1212.23L1209.68 596.786V595.505L1212.28 593.78L1213.55 593.78H1213.56Z" fill="#E2DED2"/>
<path d="M1221.08 604.345C1220.65 604.345 1220.23 604.251 1219.8 604.103C1219.37 603.941 1218.98 603.685 1218.63 603.308C1218.28 602.93 1218 602.432 1217.78 601.798C1217.56 601.165 1217.46 600.356 1217.46 599.4C1217.46 598.443 1217.54 597.661 1217.71 596.947C1217.89 596.233 1218.13 595.626 1218.47 595.141C1218.79 594.656 1219.2 594.278 1219.65 594.022C1220.13 593.766 1220.65 593.645 1221.23 593.645C1221.81 593.645 1222.34 593.766 1222.79 593.995C1223.25 594.225 1223.62 594.548 1223.91 594.966C1224.21 595.383 1224.38 595.855 1224.48 596.394H1223.24C1223.12 595.923 1222.9 595.545 1222.56 595.235C1222.23 594.925 1221.8 594.777 1221.24 594.777C1220.44 594.777 1219.8 595.127 1219.34 595.828C1218.89 596.529 1218.64 597.513 1218.64 598.78H1218.72C1218.91 598.497 1219.14 598.241 1219.4 598.038C1219.67 597.836 1219.95 597.674 1220.27 597.567C1220.6 597.459 1220.93 597.405 1221.28 597.405C1221.88 597.405 1222.43 597.553 1222.93 597.85C1223.43 598.146 1223.82 598.551 1224.11 599.076C1224.41 599.602 1224.56 600.195 1224.56 600.868C1224.56 601.542 1224.41 602.108 1224.13 602.634C1223.84 603.159 1223.44 603.591 1222.92 603.901C1222.39 604.211 1221.78 604.372 1221.08 604.359V604.345ZM1221.08 603.227C1221.51 603.227 1221.89 603.119 1222.23 602.903C1222.56 602.688 1222.83 602.405 1223.04 602.041C1223.24 601.677 1223.33 601.286 1223.33 600.842C1223.33 600.397 1223.24 600.019 1223.05 599.669C1222.86 599.319 1222.59 599.036 1222.27 598.82C1221.93 598.604 1221.55 598.51 1221.12 598.51C1220.8 598.51 1220.5 598.577 1220.22 598.699C1219.94 598.82 1219.69 598.995 1219.49 599.224C1219.28 599.44 1219.11 599.696 1219.01 599.979C1218.9 600.262 1218.83 600.558 1218.83 600.868C1218.83 601.286 1218.93 601.664 1219.13 602.027C1219.33 602.391 1219.59 602.674 1219.94 602.903C1220.27 603.119 1220.66 603.24 1221.1 603.24L1221.08 603.227Z" fill="#E2DED2"/>
<path d="M1014.95 599.182C1025.13 599.182 1033.36 590.934 1033.36 580.773C1033.36 570.612 1025.12 562.351 1014.95 562.351C1004.79 562.351 996.531 570.598 996.531 580.773C996.531 590.948 1004.78 599.182 1014.95 599.182Z" fill="#896337"/>
<path d="M1011.73 575.355L1011.73 585.772L1010.47 585.772L1010.47 576.676H1010.4L1007.85 578.36V577.08L1010.45 575.355L1011.72 575.355H1011.73Z" fill="#E2DED2"/>
<path d="M1016.11 585.772L1020.78 576.554V576.474L1015.4 576.474V575.355L1022.07 575.355V576.541L1017.43 585.772H1016.11Z" fill="#E2DED2"/>
<path d="M801.633 646.364C811.808 646.364 820.042 638.116 820.042 627.955C820.042 617.793 811.795 609.532 801.633 609.532C791.472 609.532 783.211 617.78 783.211 627.955C783.211 638.13 791.459 646.364 801.633 646.364Z" fill="#896337"/>
<path d="M798.945 632.953L803.608 623.736V623.655L798.23 623.655V622.536L804.901 622.536V623.722L800.265 632.953H798.945Z" fill="#E2DED2"/>
<path d="M783.212 452.14C793.386 452.14 801.621 443.893 801.621 433.732C801.621 423.57 793.373 415.309 783.212 415.309C773.05 415.309 764.789 423.557 764.789 433.732C764.789 443.906 773.037 452.14 783.212 452.14Z" fill="#1E1E1E"/>
<path d="M783.293 438.879C782.862 438.879 782.444 438.784 782.013 438.636C781.582 438.474 781.191 438.218 780.84 437.841C780.49 437.464 780.207 436.965 779.991 436.332C779.776 435.698 779.668 434.89 779.668 433.933C779.668 432.976 779.749 432.194 779.924 431.48C780.099 430.766 780.342 430.159 780.679 429.674C781.002 429.189 781.406 428.812 781.865 428.556C782.336 428.3 782.862 428.178 783.441 428.178C784.021 428.178 784.546 428.3 785.005 428.529C785.463 428.758 785.827 429.081 786.123 429.499C786.42 429.917 786.595 430.388 786.689 430.927H785.449C785.328 430.456 785.113 430.078 784.776 429.768C784.439 429.458 784.007 429.31 783.455 429.31C782.646 429.31 782.013 429.661 781.555 430.361C781.096 431.062 780.854 432.046 780.854 433.313H780.935C781.123 433.03 781.353 432.774 781.609 432.572C781.878 432.369 782.161 432.208 782.485 432.1C782.808 431.992 783.145 431.938 783.495 431.938C784.088 431.938 784.641 432.086 785.139 432.383C785.638 432.679 786.029 433.084 786.325 433.609C786.622 434.135 786.77 434.728 786.77 435.402C786.77 436.075 786.622 436.642 786.339 437.167C786.056 437.693 785.652 438.124 785.126 438.434C784.6 438.744 783.994 438.906 783.293 438.892V438.879ZM783.293 437.76C783.724 437.76 784.102 437.652 784.439 437.437C784.776 437.221 785.045 436.938 785.247 436.574C785.449 436.21 785.544 435.819 785.544 435.375C785.544 434.93 785.449 434.553 785.261 434.202C785.072 433.852 784.803 433.569 784.479 433.353C784.142 433.138 783.765 433.043 783.334 433.043C783.01 433.043 782.714 433.111 782.431 433.232C782.148 433.353 781.905 433.528 781.703 433.757C781.487 433.973 781.326 434.229 781.218 434.512C781.11 434.795 781.043 435.092 781.043 435.402C781.043 435.819 781.137 436.197 781.339 436.561C781.541 436.925 781.797 437.208 782.148 437.437C782.485 437.652 782.875 437.774 783.307 437.774L783.293 437.76Z" fill="#E2DED2"/>
<path d="M664.254 534.022C674.429 534.022 682.663 525.775 682.663 515.613C682.663 505.452 674.416 497.191 664.254 497.191C654.093 497.191 645.832 505.439 645.832 515.613C645.832 525.788 654.08 534.022 664.254 534.022Z" fill="#896337"/>
<path d="M660.494 518.485V517.448L665.076 510.197L665.831 510.197V511.801L665.319 511.801L661.855 517.272V517.353L668.014 517.353V518.472L660.48 518.472L660.494 518.485ZM665.399 520.615L665.399 510.197H666.599L666.599 520.615H665.399Z" fill="#E2DED2"/>
<path d="M686.583 580.775C696.757 580.775 704.992 572.528 704.992 562.366C704.992 552.205 696.744 543.944 686.583 543.944C676.421 543.944 668.16 552.192 668.16 562.366C668.16 572.541 676.408 580.775 686.583 580.775Z" fill="#896337"/>
<path d="M686.625 567.513C685.951 567.513 685.358 567.405 684.832 567.163C684.307 566.934 683.889 566.61 683.592 566.206C683.282 565.788 683.121 565.317 683.094 564.764H684.374C684.401 565.101 684.522 565.384 684.724 565.627C684.927 565.869 685.196 566.058 685.52 566.193C685.843 566.327 686.207 566.395 686.611 566.395C687.056 566.395 687.46 566.314 687.797 566.166C688.147 566.004 688.417 565.788 688.606 565.519C688.808 565.236 688.902 564.912 688.902 564.548C688.902 564.185 688.808 563.821 688.619 563.538C688.43 563.255 688.147 563.012 687.784 562.85C687.42 562.689 686.975 562.608 686.436 562.608L685.6 562.608V561.489L686.436 561.489C686.854 561.489 687.218 561.422 687.528 561.26C687.838 561.112 688.094 560.896 688.269 560.627C688.444 560.357 688.538 560.034 688.538 559.67C688.538 559.306 688.457 559.01 688.309 558.753C688.147 558.497 687.932 558.295 687.649 558.147C687.366 557.999 687.029 557.931 686.652 557.931C686.288 557.931 685.951 557.999 685.641 558.134C685.331 558.268 685.061 558.457 684.859 558.7C684.657 558.942 684.549 559.239 684.536 559.589H683.309C683.323 559.037 683.498 558.565 683.808 558.147C684.118 557.729 684.522 557.419 685.021 557.19C685.52 556.961 686.072 556.84 686.665 556.84C687.312 556.84 687.864 556.975 688.323 557.231C688.781 557.487 689.145 557.837 689.387 558.255C689.63 558.673 689.765 559.131 689.765 559.629C689.765 560.222 689.616 560.721 689.306 561.125C688.997 561.543 688.579 561.826 688.053 561.988V562.069C688.713 562.177 689.226 562.46 689.589 562.904C689.953 563.349 690.142 563.915 690.142 564.575C690.142 565.141 689.994 565.653 689.684 566.098C689.374 566.543 688.956 566.907 688.43 567.163C687.905 567.419 687.298 567.554 686.625 567.554V567.513Z" fill="#E2DED2"/>
<path d="M624.325 344.543C634.5 344.543 642.734 336.295 642.734 326.134C642.734 315.973 634.486 307.725 624.325 307.725C614.163 307.725 605.902 315.973 605.902 326.134C605.902 336.295 614.15 344.543 624.325 344.543Z" fill="#896337"/>
<path d="M624.309 331.268C623.716 331.268 623.177 331.147 622.691 330.918C622.22 330.675 621.829 330.352 621.546 329.947C621.263 329.53 621.101 329.058 621.074 328.532H622.301C622.354 329.004 622.57 329.395 622.947 329.705C623.325 330.015 623.783 330.163 624.322 330.163C624.753 330.163 625.131 330.069 625.468 329.867C625.804 329.664 626.061 329.395 626.249 329.045C626.438 328.694 626.532 328.29 626.532 327.845C626.532 327.4 626.438 326.983 626.236 326.632C626.034 326.282 625.764 325.985 625.414 325.783C625.063 325.581 624.672 325.473 624.228 325.473C623.904 325.473 623.581 325.514 623.244 325.621C622.907 325.729 622.637 325.851 622.408 325.999L621.222 325.851L621.856 320.729L627.273 320.729V321.848L622.92 321.848L622.557 324.921H622.624C622.84 324.746 623.109 324.611 623.433 324.503C623.756 324.395 624.093 324.341 624.443 324.341C625.077 324.341 625.643 324.489 626.155 324.799C626.653 325.096 627.044 325.514 627.341 326.039C627.624 326.565 627.772 327.158 627.772 327.845C627.772 328.532 627.624 329.098 627.327 329.624C627.031 330.15 626.627 330.554 626.101 330.85C625.575 331.147 624.996 331.295 624.336 331.295L624.309 331.268Z" fill="#E2DED2"/>
<path d="M430.79 381.375C440.964 381.375 449.199 373.127 449.199 362.966C449.199 352.805 440.951 344.543 430.79 344.543C420.628 344.543 412.367 352.791 412.367 362.966C412.367 373.141 420.615 381.375 430.79 381.375Z" fill="#1E1E1E"/>
<path d="M432.186 357.547L432.186 367.964H430.919L430.919 358.868H430.852L428.305 360.552V359.272L430.906 357.547H432.172H432.186Z" fill="#E2DED2"/>
<path d="M423.333 646.364C433.507 646.364 441.742 638.116 441.742 627.955C441.742 617.793 433.494 609.532 423.333 609.532C413.171 609.532 404.91 617.78 404.91 627.955C404.91 638.13 413.158 646.364 423.333 646.364Z" fill="#1E1E1E"/>
<path d="M420.084 632.955V632.038L423.52 628.278C423.925 627.834 424.262 627.456 424.518 627.133C424.774 626.809 424.976 626.499 425.097 626.203C425.218 625.92 425.286 625.61 425.286 625.287C425.286 624.923 425.205 624.599 425.03 624.33C424.854 624.06 424.612 623.858 424.315 623.71C424.019 623.562 423.669 623.494 423.305 623.494C422.9 623.494 422.55 623.575 422.254 623.737C421.957 623.899 421.728 624.128 421.566 624.424C421.404 624.721 421.324 625.071 421.324 625.462H420.124C420.124 624.855 420.259 624.316 420.542 623.858C420.825 623.4 421.202 623.036 421.701 622.78C422.186 622.524 422.739 622.389 423.345 622.389C423.952 622.389 424.491 622.524 424.962 622.78C425.434 623.036 425.798 623.386 426.067 623.818C426.337 624.249 426.472 624.747 426.472 625.273C426.472 625.664 426.404 626.028 426.27 626.392C426.135 626.756 425.892 627.16 425.555 627.605C425.218 628.049 424.747 628.588 424.154 629.235L421.809 631.742V631.823L426.647 631.823V632.941L420.07 632.941L420.084 632.955Z" fill="#E2DED2"/>
<path d="M772.364 791.02C782.539 791.02 790.773 782.772 790.773 772.611C790.773 762.45 782.525 754.202 772.364 754.202C762.203 754.202 753.941 762.45 753.941 772.611C753.941 782.772 762.189 791.02 772.364 791.02Z" fill="#896337"/>
<path d="M768.815 767.194L768.815 777.612L767.548 777.612L767.548 768.515H767.481L764.934 770.2V768.919L767.535 767.194L768.801 767.194H768.815Z" fill="#E2DED2"/>
<path d="M776.212 777.747C775.512 777.747 774.892 777.626 774.366 777.37C773.827 777.127 773.409 776.777 773.113 776.332C772.816 775.888 772.668 775.389 772.668 774.823C772.668 774.378 772.749 773.974 772.924 773.597C773.099 773.219 773.342 772.909 773.652 772.653C773.962 772.397 774.299 772.235 774.676 772.168V772.101C774.177 771.966 773.787 771.696 773.49 771.265C773.194 770.834 773.045 770.335 773.059 769.783C773.059 769.257 773.194 768.785 773.463 768.368C773.733 767.95 774.11 767.626 774.582 767.384C775.053 767.141 775.606 767.02 776.212 767.02C776.819 767.02 777.358 767.141 777.829 767.384C778.301 767.626 778.679 767.95 778.948 768.368C779.218 768.785 779.366 769.257 779.366 769.783C779.366 770.335 779.218 770.834 778.921 771.265C778.625 771.696 778.234 771.979 777.749 772.101V772.168C778.126 772.235 778.463 772.397 778.759 772.653C779.056 772.909 779.298 773.219 779.487 773.597C779.662 773.974 779.757 774.378 779.757 774.823C779.757 775.389 779.595 775.888 779.298 776.332C779.002 776.777 778.584 777.114 778.059 777.37C777.533 777.626 776.913 777.747 776.226 777.747H776.212ZM776.212 776.629C776.684 776.629 777.088 776.548 777.439 776.4C777.776 776.251 778.045 776.036 778.234 775.753C778.422 775.47 778.517 775.146 778.517 774.782C778.517 774.392 778.409 774.041 778.207 773.745C778.005 773.448 777.735 773.206 777.385 773.031C777.034 772.855 776.644 772.774 776.212 772.774C775.781 772.774 775.377 772.855 775.026 773.031C774.676 773.206 774.406 773.435 774.204 773.745C774.002 774.041 773.908 774.392 773.908 774.782C773.908 775.16 773.989 775.483 774.177 775.753C774.366 776.036 774.622 776.251 774.972 776.4C775.323 776.548 775.727 776.629 776.199 776.629H776.212ZM776.212 771.683C776.59 771.683 776.913 771.602 777.21 771.454C777.493 771.306 777.722 771.09 777.897 770.834C778.059 770.564 778.153 770.254 778.153 769.891C778.153 769.54 778.072 769.23 777.897 768.974C777.735 768.705 777.506 768.502 777.223 768.368C776.94 768.219 776.603 768.152 776.212 768.152C775.821 768.152 775.485 768.219 775.188 768.368C774.892 768.516 774.676 768.718 774.514 768.974C774.353 769.23 774.272 769.54 774.285 769.891C774.285 770.254 774.366 770.564 774.528 770.834C774.689 771.103 774.919 771.306 775.215 771.454C775.512 771.602 775.835 771.683 776.226 771.683H776.212Z" fill="#E2DED2"/>
<path d="M1107.34 822.314C1117.52 822.314 1125.75 814.066 1125.75 803.905C1125.75 793.744 1117.51 785.496 1107.34 785.496C1097.18 785.496 1088.92 793.744 1088.92 803.905C1088.92 814.066 1097.17 822.314 1107.34 822.314Z" fill="#896337"/>
<path d="M1103.76 798.485L1103.76 808.903L1102.5 808.903L1102.5 799.806H1102.43L1099.88 801.491V800.21L1102.48 798.485L1103.75 798.485H1103.76Z" fill="#E2DED2"/>
<path d="M1111.12 798.351C1111.55 798.351 1111.97 798.432 1112.4 798.594C1112.84 798.755 1113.23 799.011 1113.58 799.389C1113.93 799.753 1114.21 800.251 1114.43 800.898C1114.64 801.545 1114.75 802.327 1114.75 803.283C1114.75 804.24 1114.67 805.035 1114.49 805.75C1114.32 806.464 1114.06 807.07 1113.74 807.569C1113.41 808.068 1113.01 808.432 1112.55 808.688C1112.08 808.944 1111.55 809.065 1110.98 809.065C1110.4 809.065 1109.87 808.944 1109.41 808.715C1108.95 808.485 1108.58 808.162 1108.29 807.744C1108 807.326 1107.82 806.841 1107.74 806.302H1108.98C1109.09 806.774 1109.32 807.178 1109.65 807.488C1109.99 807.798 1110.44 807.96 1110.98 807.96C1111.78 807.96 1112.42 807.609 1112.88 806.909C1113.35 806.208 1113.58 805.211 1113.58 803.93H1113.5C1113.31 804.213 1113.08 804.456 1112.82 804.672C1112.57 804.874 1112.27 805.035 1111.95 805.143C1111.62 805.251 1111.29 805.305 1110.93 805.305C1110.34 805.305 1109.79 805.157 1109.29 804.86C1108.79 804.564 1108.4 804.159 1108.1 803.634C1107.81 803.108 1107.66 802.515 1107.66 801.841C1107.66 801.168 1107.81 800.615 1108.09 800.09C1108.37 799.564 1108.78 799.133 1109.3 798.823C1109.83 798.513 1110.44 798.351 1111.14 798.364L1111.12 798.351ZM1111.12 799.47C1110.69 799.47 1110.31 799.577 1109.98 799.793C1109.64 800.009 1109.37 800.292 1109.17 800.642C1108.97 801.006 1108.87 801.397 1108.87 801.828C1108.87 802.259 1108.97 802.65 1109.16 803.014C1109.34 803.364 1109.61 803.647 1109.94 803.863C1110.26 804.079 1110.65 804.173 1111.08 804.173C1111.41 804.173 1111.7 804.106 1111.99 803.984C1112.27 803.863 1112.51 803.688 1112.71 803.459C1112.93 803.23 1113.09 802.987 1113.2 802.704C1113.31 802.421 1113.37 802.124 1113.37 801.814C1113.37 801.41 1113.28 801.033 1113.08 800.669C1112.89 800.319 1112.62 800.022 1112.27 799.806C1111.93 799.591 1111.54 799.47 1111.11 799.47H1111.12Z" fill="#E2DED2"/>
<path d="M1517.63 479.255C1527.8 479.255 1536.04 471.007 1536.04 460.846C1536.04 450.684 1527.79 442.423 1517.63 442.423C1507.47 442.423 1499.21 450.671 1499.21 460.846C1499.21 471.021 1507.45 479.255 1517.63 479.255Z" fill="#1E1E1E"/>
<path d="M1509.35 465.86V464.943L1512.79 461.183C1513.19 460.738 1513.53 460.361 1513.79 460.038C1514.04 459.714 1514.25 459.404 1514.37 459.108C1514.49 458.825 1514.56 458.515 1514.56 458.191C1514.56 457.828 1514.47 457.504 1514.3 457.235C1514.12 456.965 1513.88 456.763 1513.58 456.615C1513.29 456.466 1512.94 456.399 1512.57 456.399C1512.17 456.399 1511.82 456.48 1511.52 456.642C1511.23 456.803 1511 457.032 1510.84 457.329C1510.67 457.625 1510.59 457.976 1510.59 458.367H1509.39C1509.39 457.76 1509.53 457.221 1509.81 456.763C1510.09 456.305 1510.47 455.941 1510.97 455.685C1511.46 455.429 1512.01 455.294 1512.61 455.294C1513.22 455.294 1513.76 455.429 1514.23 455.685C1514.7 455.941 1515.07 456.291 1515.34 456.722C1515.61 457.154 1515.74 457.652 1515.74 458.178C1515.74 458.569 1515.67 458.933 1515.54 459.296C1515.4 459.66 1515.16 460.065 1514.82 460.509C1514.49 460.954 1514.02 461.493 1513.42 462.14L1511.08 464.647V464.728L1515.92 464.728V465.846L1509.34 465.846L1509.35 465.86Z" fill="#E2DED2"/>
<path d="M1522.48 465.994C1521.71 465.994 1521.06 465.778 1520.52 465.36C1519.98 464.942 1519.57 464.336 1519.28 463.527C1519 462.719 1518.85 461.762 1518.85 460.63C1518.85 459.498 1519 458.541 1519.28 457.746C1519.57 456.951 1519.98 456.331 1520.52 455.913C1521.06 455.495 1521.71 455.28 1522.48 455.28C1523.24 455.28 1523.89 455.495 1524.43 455.913C1524.97 456.331 1525.39 456.951 1525.67 457.746C1525.95 458.541 1526.1 459.511 1526.1 460.63C1526.1 461.749 1525.95 462.732 1525.67 463.527C1525.39 464.323 1524.97 464.929 1524.43 465.36C1523.89 465.778 1523.24 465.994 1522.48 465.994ZM1522.48 464.875C1523.23 464.875 1523.82 464.511 1524.24 463.77C1524.66 463.042 1524.88 461.991 1524.88 460.63C1524.88 459.727 1524.78 458.959 1524.59 458.325C1524.4 457.692 1524.12 457.207 1523.77 456.87C1523.41 456.533 1522.99 456.371 1522.48 456.371C1521.72 456.371 1521.13 456.735 1520.71 457.476C1520.29 458.218 1520.08 459.269 1520.08 460.617C1520.08 461.519 1520.17 462.288 1520.36 462.921C1520.55 463.554 1520.82 464.026 1521.18 464.363C1521.53 464.686 1521.96 464.862 1522.48 464.862V464.875Z" fill="#E2DED2"/>
</g>
<defs>
<clipPath id="clip0_378_11596">
<rect width="1082" height="1820" fill="white" transform="translate(1820) rotate(90)"/>
</clipPath>
</defs>
</svg>
