<svg width="445" height="170" viewBox="0 0 445 170" fill="none" xmlns="http://www.w3.org/2000/svg">
<path d="M0.945441 98.2612V95.6011H19.5327V98.2612H11.752V120.373H8.75942V98.2612H0.945441ZM36.6271 120.706C34.5212 120.706 32.6425 120.19 30.991 119.159C29.3396 118.129 28.0372 116.666 27.084 114.77C26.1419 112.864 25.6709 110.608 25.6709 108.004C25.6709 105.388 26.1419 103.127 27.084 101.22C28.0372 99.3141 29.3396 97.8455 30.991 96.8147C32.6425 95.784 34.5212 95.2686 36.6271 95.2686C38.744 95.2686 40.6227 95.784 42.2631 96.8147C43.9035 97.8455 45.1947 99.3141 46.1368 101.22C47.0789 103.127 47.55 105.388 47.55 108.004C47.55 110.608 47.0789 112.864 46.1368 114.77C45.1947 116.666 43.9035 118.129 42.2631 119.159C40.6227 120.19 38.744 120.706 36.6271 120.706ZM36.6271 117.912C38.1234 117.912 39.4756 117.536 40.6837 116.782C41.9029 116.017 42.8672 114.898 43.5765 113.424C44.297 111.949 44.6572 110.143 44.6572 108.004C44.6572 105.853 44.297 104.041 43.5765 102.567C42.8672 101.082 41.9029 99.9625 40.6837 99.2088C39.4756 98.444 38.1234 98.0616 36.6271 98.0616C35.1308 98.0616 33.773 98.444 32.5538 99.2088C31.3346 99.9625 30.3648 101.082 29.6444 102.567C28.9239 104.041 28.5637 105.853 28.5637 108.004C28.5637 110.143 28.9239 111.949 29.6444 113.424C30.3648 114.898 31.3346 116.017 32.5538 116.782C33.773 117.536 35.1308 117.912 36.6271 117.912ZM65.0932 112.626H68.3851L71.1449 116.25L71.8432 117.214L75.9663 122.701H72.6744L69.9811 119.076L69.2828 118.145L65.0932 112.626ZM66.0741 120.706C63.9682 120.706 62.0895 120.19 60.4381 119.159C58.7866 118.129 57.4843 116.666 56.5311 114.77C55.589 112.864 55.1179 110.608 55.1179 108.004C55.1179 105.388 55.589 103.127 56.5311 101.22C57.4843 99.3141 58.7866 97.8455 60.4381 96.8147C62.0895 95.784 63.9682 95.2686 66.0741 95.2686C68.1911 95.2686 70.0698 95.784 71.7102 96.8147C73.3505 97.8455 74.6418 99.3141 75.5839 101.22C76.526 103.127 76.9971 105.388 76.9971 108.004C76.9971 110.608 76.526 112.864 75.5839 114.77C74.6418 116.666 73.3505 118.129 71.7102 119.159C70.0698 120.19 68.1911 120.706 66.0741 120.706ZM66.0741 117.912C67.5704 117.912 68.9226 117.536 70.1307 116.782C71.3499 116.017 72.3142 114.898 73.0236 113.424C73.744 111.949 74.1042 110.143 74.1042 108.004C74.1042 105.853 73.744 104.041 73.0236 102.567C72.3142 101.082 71.3499 99.9625 70.1307 99.2088C68.9226 98.444 67.5704 98.0616 66.0741 98.0616C64.5778 98.0616 63.2201 98.444 62.0009 99.2088C60.7817 99.9625 59.8119 101.082 59.0914 102.567C58.371 104.041 58.0108 105.853 58.0108 108.004C58.0108 110.143 58.371 111.949 59.0914 113.424C59.8119 114.898 60.7817 116.017 62.0009 116.782C63.2201 117.536 64.5778 117.912 66.0741 117.912ZM101.789 95.6011H104.782V111.994C104.782 113.69 104.383 115.203 103.585 116.533C102.798 117.852 101.684 118.893 100.243 119.658C98.8019 120.423 97.1117 120.805 95.172 120.805C93.2324 120.805 91.5366 120.423 90.0846 119.658C88.6438 118.893 87.5243 117.852 86.7263 116.533C85.9283 115.203 85.5293 113.69 85.5293 111.994V95.6011H88.5219V111.761C88.5219 112.969 88.7879 114.044 89.3199 114.986C89.8519 115.929 90.6167 116.671 91.6142 117.214C92.6117 117.746 93.7977 118.012 95.172 118.012C96.5464 118.012 97.7268 117.746 98.7133 117.214C99.6997 116.671 100.459 115.929 100.991 114.986C101.523 114.044 101.789 112.969 101.789 111.761V95.6011ZM114.278 120.373V95.6011H129.241V98.2612H117.271V106.541H128.443V109.201H117.271V117.713H129.407V120.373H114.278ZM170.911 95.6011V120.373H167.952L154.485 100.921H154.219V120.373H151.227V95.6011H154.119L167.686 115.086H167.919V95.6011H170.911ZM181.438 120.373H178.28L187.39 95.6011H190.483L199.56 120.373H196.435L189.02 99.5247H188.82L181.438 120.373ZM182.602 110.697H195.271V113.357H182.602V110.697ZM214.776 120.805C213.002 120.805 211.467 120.523 210.171 119.957C208.874 119.381 207.854 118.583 207.111 117.563C206.38 116.533 205.964 115.341 205.865 113.989H208.957C209.046 114.92 209.361 115.69 209.905 116.3C210.459 116.909 211.163 117.364 212.016 117.663C212.869 117.962 213.789 118.112 214.776 118.112C215.917 118.112 216.943 117.924 217.852 117.547C218.771 117.17 219.497 116.643 220.029 115.967C220.561 115.291 220.827 114.499 220.827 113.59C220.827 112.77 220.595 112.105 220.129 111.595C219.664 111.085 219.054 110.669 218.3 110.348C217.558 110.026 216.749 109.744 215.873 109.5L212.847 108.635C210.908 108.081 209.373 107.289 208.242 106.258C207.123 105.216 206.563 103.858 206.563 102.185C206.563 100.799 206.934 99.5912 207.677 98.5604C208.43 97.5185 209.445 96.7094 210.719 96.1331C212.005 95.5567 213.435 95.2686 215.009 95.2686C216.605 95.2686 218.023 95.5567 219.265 96.1331C220.506 96.6984 221.492 97.4742 222.224 98.4607C222.956 99.436 223.343 100.544 223.388 101.786H220.462C220.318 100.567 219.73 99.6189 218.699 98.9428C217.68 98.2667 216.416 97.9286 214.909 97.9286C213.823 97.9286 212.869 98.106 212.049 98.4607C211.229 98.8153 210.592 99.303 210.137 99.9237C209.683 100.544 209.456 101.254 209.456 102.052C209.456 102.927 209.727 103.637 210.27 104.18C210.813 104.712 211.456 105.127 212.199 105.427C212.953 105.726 213.634 105.964 214.244 106.142L216.738 106.84C217.38 107.017 218.095 107.256 218.882 107.555C219.68 107.854 220.445 108.259 221.177 108.768C221.919 109.278 222.529 109.932 223.005 110.73C223.482 111.517 223.72 112.493 223.72 113.656C223.72 114.986 223.371 116.195 222.673 117.281C221.975 118.356 220.96 119.215 219.63 119.858C218.3 120.489 216.682 120.805 214.776 120.805ZM245.24 120.373V95.6011H248.233V117.713H259.771V120.373H245.24ZM267.904 120.373V95.6011H282.867V98.2612H270.897V106.541H282.069V109.201H270.897V117.713H283.033V120.373H267.904ZM301.84 120.706C299.646 120.706 297.717 120.19 296.054 119.159C294.403 118.129 293.112 116.666 292.181 114.77C291.261 112.864 290.801 110.608 290.801 108.004C290.801 105.388 291.261 103.127 292.181 101.22C293.112 99.3141 294.392 97.8455 296.021 96.8147C297.651 95.784 299.524 95.2686 301.641 95.2686C302.949 95.2686 304.168 95.4625 305.298 95.8505C306.429 96.2384 307.437 96.7926 308.324 97.513C309.211 98.2334 309.948 99.0869 310.535 100.073C311.134 101.06 311.549 102.152 311.782 103.349H308.69C308.424 102.528 308.075 101.797 307.642 101.154C307.221 100.5 306.711 99.9459 306.113 99.4914C305.514 99.0259 304.844 98.6712 304.101 98.4274C303.359 98.1836 302.538 98.0616 301.641 98.0616C300.178 98.0616 298.842 98.444 297.634 99.2088C296.437 99.9625 295.478 101.082 294.758 102.567C294.048 104.041 293.694 105.853 293.694 108.004C293.694 110.143 294.054 111.949 294.774 113.424C295.495 114.898 296.47 116.017 297.7 116.782C298.931 117.536 300.311 117.912 301.84 117.912C303.259 117.912 304.506 117.608 305.581 116.998C306.656 116.388 307.498 115.529 308.108 114.421C308.718 113.302 309.022 111.983 309.022 110.464L309.953 110.664H302.505V108.004H311.948V110.664C311.948 112.703 311.516 114.477 310.652 115.984C309.787 117.48 308.59 118.644 307.061 119.475C305.542 120.295 303.802 120.706 301.84 120.706ZM320.58 120.373V95.6011H335.543V98.2612H323.573V106.541H334.745V109.201H323.573V117.713H335.71V120.373H320.58ZM364.126 95.6011V120.373H361.167L347.7 100.921H347.434V120.373H344.441V95.6011H347.334L360.901 115.086H361.133V95.6011H364.126ZM381.27 120.373H375.318V117.713H381.071C383.121 117.713 384.817 117.319 386.158 116.533C387.51 115.746 388.519 114.621 389.184 113.158C389.849 111.695 390.181 109.954 390.181 107.937C390.181 105.942 389.854 104.224 389.2 102.783C388.546 101.331 387.566 100.217 386.258 99.4416C384.961 98.6546 383.343 98.2612 381.403 98.2612H375.185V95.6011H381.603C384.008 95.6011 386.064 96.0943 387.771 97.0807C389.489 98.0672 390.802 99.4859 391.711 101.337C392.62 103.177 393.074 105.377 393.074 107.937C393.074 110.52 392.614 112.742 391.694 114.604C390.774 116.455 389.433 117.879 387.671 118.877C385.92 119.874 383.786 120.373 381.27 120.373ZM376.615 95.6011V120.373H373.622V95.6011H376.615ZM401.473 120.373H398.315L407.425 95.6011H410.518L419.595 120.373H416.47L409.055 99.5247H408.855L401.473 120.373ZM402.637 110.697H415.306V113.357H402.637V110.697ZM434.811 120.805C433.037 120.805 431.502 120.523 430.206 119.957C428.909 119.381 427.889 118.583 427.146 117.563C426.415 116.533 425.999 115.341 425.9 113.989H428.992C429.081 114.92 429.396 115.69 429.94 116.3C430.494 116.909 431.198 117.364 432.051 117.663C432.904 117.962 433.824 118.112 434.811 118.112C435.952 118.112 436.978 117.924 437.886 117.547C438.806 117.17 439.532 116.643 440.064 115.967C440.596 115.291 440.862 114.499 440.862 113.59C440.862 112.77 440.63 112.105 440.164 111.595C439.699 111.085 439.089 110.669 438.335 110.348C437.593 110.026 436.784 109.744 435.908 109.5L432.882 108.635C430.943 108.081 429.407 107.289 428.277 106.258C427.158 105.216 426.598 103.858 426.598 102.185C426.598 100.799 426.969 99.5912 427.712 98.5604C428.465 97.5185 429.48 96.7094 430.754 96.1331C432.04 95.5567 433.47 95.2686 435.044 95.2686C436.64 95.2686 438.058 95.5567 439.3 96.1331C440.541 96.6984 441.527 97.4742 442.259 98.4607C442.991 99.436 443.378 100.544 443.423 101.786H440.497C440.353 100.567 439.765 99.6189 438.734 98.9428C437.715 98.2667 436.451 97.9286 434.944 97.9286C433.858 97.9286 432.904 98.106 432.084 98.4607C431.264 98.8153 430.627 99.303 430.172 99.9237C429.718 100.544 429.491 101.254 429.491 102.052C429.491 102.927 429.762 103.637 430.305 104.18C430.848 104.712 431.491 105.127 432.234 105.427C432.988 105.726 433.669 105.964 434.279 106.142L436.773 106.84C437.415 107.017 438.13 107.256 438.917 107.555C439.715 107.854 440.48 108.259 441.212 108.768C441.954 109.278 442.564 109.932 443.04 110.73C443.517 111.517 443.755 112.493 443.755 113.656C443.755 114.986 443.406 116.195 442.708 117.281C442.01 118.356 440.995 119.215 439.665 119.858C438.335 120.489 436.717 120.805 434.811 120.805ZM76.7743 161.373V136.601H85.1535C87.0932 136.601 88.6781 136.95 89.9084 137.648C91.1498 138.347 92.0697 139.289 92.6683 140.475C93.2668 141.661 93.566 142.985 93.566 144.448C93.566 145.9 93.2668 147.225 92.6683 148.422C92.0808 149.619 91.1664 150.572 89.9251 151.281C88.6948 151.98 87.1153 152.329 85.1868 152.329H79.2016V149.669H85.087C86.4171 149.669 87.4866 149.441 88.2958 148.987C89.1049 148.533 89.6923 147.912 90.0581 147.125C90.4238 146.327 90.6067 145.435 90.6067 144.448C90.6067 143.451 90.4238 142.564 90.0581 141.788C89.6923 141.001 89.0993 140.386 88.2791 139.943C87.47 139.488 86.3949 139.261 85.0538 139.261H79.7669V161.373H76.7743ZM100.402 161.373H97.2436L106.354 136.601H109.447L118.524 161.373H115.399L107.984 140.525H107.784L100.402 161.373ZM101.566 151.697H114.235V154.357H101.566V151.697ZM125.893 161.373V136.601H134.272C136.212 136.601 137.796 136.934 139.027 137.599C140.268 138.253 141.188 139.156 141.787 140.309C142.385 141.45 142.684 142.753 142.684 144.216C142.684 145.668 142.385 146.959 141.787 148.089C141.199 149.22 140.285 150.107 139.043 150.749C137.813 151.381 136.234 151.697 134.305 151.697H127.555V149.004H134.205C135.535 149.004 136.605 148.81 137.414 148.422C138.223 148.034 138.811 147.485 139.176 146.776C139.542 146.055 139.725 145.202 139.725 144.216C139.725 143.218 139.537 142.348 139.16 141.605C138.794 140.863 138.207 140.286 137.397 139.876C136.588 139.466 135.513 139.261 134.172 139.261H128.885V161.373H125.893ZM140.157 161.373L134.172 150.234H137.564L143.649 161.373H140.157ZM152.214 161.373H149.055L158.166 136.601H161.258L170.336 161.373H167.21L159.795 140.525H159.596L152.214 161.373ZM153.378 151.697H166.047V154.357H153.378V151.697ZM191.823 136.601L199.171 157.449H199.47L206.819 136.601H209.944L200.867 161.373H197.775L188.664 136.601H191.823ZM217.313 161.373V136.601H232.276V139.261H220.305V147.541H231.478V150.201H220.305V158.713H232.442V161.373H217.313ZM241.174 161.373V136.601H249.553C251.493 136.601 253.078 136.934 254.308 137.599C255.549 138.253 256.469 139.156 257.068 140.309C257.666 141.45 257.965 142.753 257.965 144.216C257.965 145.668 257.666 146.959 257.068 148.089C256.48 149.22 255.566 150.107 254.325 150.749C253.094 151.381 251.515 151.697 249.586 151.697H242.836V149.004H249.486C250.817 149.004 251.886 148.81 252.695 148.422C253.504 148.034 254.092 147.485 254.458 146.776C254.823 146.055 255.006 145.202 255.006 144.216C255.006 143.218 254.818 142.348 254.441 141.605C254.075 140.863 253.488 140.286 252.679 139.876C251.869 139.466 250.794 139.261 249.453 139.261H244.166V161.373H241.174ZM255.438 161.373L249.453 150.234H252.845L258.93 161.373H255.438ZM279.552 136.601H283.143L291.556 157.15H291.855L300.267 136.601H303.975V161.373H301.032V142.553H300.799L293.002 161.373H290.309L282.611 142.553H282.378V161.373H279.552V136.601ZM314.519 161.373H311.36L320.471 136.601H323.563L332.641 161.373H329.515L322.1 140.525H321.9L314.519 161.373ZM315.683 151.697H328.351V154.357H315.683V151.697ZM343.002 136.601V161.373H340.009V136.601H343.002ZM360.345 161.805C358.572 161.805 357.037 161.523 355.74 160.957C354.443 160.381 353.424 159.583 352.681 158.563C351.949 157.533 351.534 156.341 351.434 154.989H354.526C354.615 155.92 354.931 156.69 355.474 157.3C356.028 157.909 356.732 158.364 357.585 158.663C358.439 158.962 359.359 159.112 360.345 159.112C361.487 159.112 362.512 158.924 363.421 158.547C364.341 158.17 365.067 157.643 365.599 156.967C366.131 156.291 366.397 155.499 366.397 154.59C366.397 153.77 366.164 153.105 365.699 152.595C365.233 152.085 364.624 151.669 363.87 151.348C363.127 151.026 362.318 150.744 361.443 150.5L358.417 149.635C356.477 149.081 354.942 148.289 353.811 147.258C352.692 146.216 352.132 144.858 352.132 143.185C352.132 141.799 352.504 140.591 353.246 139.56C354 138.519 355.014 137.709 356.289 137.133C357.574 136.557 359.004 136.269 360.578 136.269C362.174 136.269 363.593 136.557 364.834 137.133C366.076 137.698 367.062 138.474 367.793 139.461C368.525 140.436 368.913 141.544 368.957 142.786H366.031C365.887 141.567 365.3 140.619 364.269 139.943C363.249 139.267 361.986 138.929 360.478 138.929C359.392 138.929 358.439 139.106 357.619 139.461C356.798 139.815 356.161 140.303 355.707 140.924C355.252 141.544 355.025 142.254 355.025 143.052C355.025 143.927 355.297 144.637 355.84 145.18C356.383 145.712 357.026 146.127 357.768 146.427C358.522 146.726 359.204 146.964 359.813 147.142L362.307 147.84C362.95 148.017 363.665 148.256 364.452 148.555C365.25 148.854 366.015 149.259 366.746 149.768C367.489 150.278 368.098 150.932 368.575 151.73C369.051 152.517 369.29 153.493 369.29 154.656C369.29 155.986 368.941 157.195 368.242 158.281C367.544 159.356 366.53 160.215 365.2 160.858C363.87 161.489 362.252 161.805 360.345 161.805Z" fill="#896337"/>
<path d="M245.917 67.9917H212.704C212.633 67.9917 212.563 67.9638 212.511 67.9182L192.353 49.0964C192.247 48.9975 192.247 48.8379 192.353 48.739L204.657 37.2031C204.763 37.1043 204.933 37.1043 205.039 37.2031L211 42.7759V9.31124C211 9.17186 211.122 9.05781 211.271 9.05781H226.944C227.093 9.05781 227.215 9.17186 227.215 9.31124V29.7651H245.892C245.976 29.7651 246.055 29.8006 246.106 29.8614L246.837 30.7358C247.71 31.7799 248.511 32.8823 249.215 34.0125C252.029 38.5007 253.519 43.6477 253.519 48.8885C253.519 54.1294 252.029 59.2764 249.21 63.7722C248.514 64.8872 247.723 65.9795 246.856 67.016L246.125 67.8928C246.074 67.9537 245.995 67.9892 245.911 67.9892L245.917 67.9917ZM243.365 62.9232C243.785 62.3657 244.178 61.7955 244.538 61.2151C246.873 57.4923 248.105 53.2322 248.105 48.8911C248.105 44.5499 246.873 40.2899 244.541 36.5721C244.172 35.9791 243.772 35.3988 243.346 34.8336H221.801V14.1263H216.419V55.0062L204.855 44.1926L199.822 48.9114L214.83 62.9232H243.365Z" fill="#896337"/>
<path fill-rule="evenodd" clip-rule="evenodd" d="M236.184 0.543945V3.86574L202.032 3.86574V0.543947L236.184 0.543945Z" fill="#896337"/>
</svg>
