<svg width="78" height="79" viewBox="0 0 78 79" fill="none" xmlns="http://www.w3.org/2000/svg">
<path fill-rule="evenodd" clip-rule="evenodd" d="M43.1212 43.654C45.2077 41.5805 45.2077 38.2185 43.1212 36.1449L9.12019 2.35401C7.03372 0.280433 3.65088 0.280433 1.56441 2.35401C-0.522056 4.42759 -0.522056 7.78953 1.56441 9.86311L31.7875 39.8995L1.56441 69.9359C-0.522056 72.0094 -0.522056 75.3714 1.56441 77.445C3.65088 79.5185 7.03372 79.5185 9.12019 77.445L43.1212 43.654Z" fill="#F0EFE9"/>
<path fill-rule="evenodd" clip-rule="evenodd" d="M76.7609 42.6111C78.2678 41.1136 78.2678 38.6855 76.7609 37.1879L52.2047 12.7833C50.6978 11.2858 48.2546 11.2858 46.7477 12.7833C45.2408 14.2809 45.2408 16.709 46.7477 18.2066L68.5755 39.8995L46.7477 61.5925C45.2408 63.09 45.2408 65.5181 46.7477 67.0157C48.2546 68.5133 50.6978 68.5133 52.2047 67.0157L76.7609 42.6111Z" fill="#F0EFE9" fill-opacity="0.5"/>
</svg>
