<svg width="1051" height="529" viewBox="0 0 1051 529" fill="none" xmlns="http://www.w3.org/2000/svg">
<path fill-rule="evenodd" clip-rule="evenodd" d="M915.231 267.654C917.317 265.58 917.317 262.219 915.231 260.145L881.23 226.354C879.143 224.28 875.76 224.28 873.674 226.354C871.587 228.428 871.587 231.79 873.674 233.863L903.897 263.899L873.674 293.936C871.587 296.009 871.587 299.371 873.674 301.445C875.76 303.519 879.143 303.519 881.23 301.445L915.231 267.654Z" fill="#F0EFE9"/>
<path fill-rule="evenodd" clip-rule="evenodd" d="M948.87 266.611C950.377 265.114 950.377 262.685 948.87 261.188L924.314 236.783C922.807 235.286 920.364 235.286 918.857 236.783C917.35 238.281 917.35 240.709 918.857 242.207L940.685 263.9L918.857 285.592C917.35 287.09 917.35 289.518 918.857 291.016C920.364 292.513 922.807 292.513 924.314 291.016L948.87 266.611Z" fill="#F0EFE9" fill-opacity="0.5"/>
</svg>
